<svg width="48" height="48" viewBox="0 0 48 48" fill="none" xmlns="http://www.w3.org/2000/svg">
<path fill-rule="evenodd" clip-rule="evenodd" d="M2.38602 0C1.06826 0 0 1.06826 0 2.38602V20.2811C0 21.5989 1.06826 22.6672 2.38602 22.6672H3.18858H5.78828H16.7871H18.4223H20.2811C21.5989 22.6672 22.6672 21.5989 22.6672 20.2811V2.38602C22.6672 1.06826 21.5989 0 20.2811 0H19.122C18.4892 0 17.8823 0.251383 17.4349 0.698848L13.0208 5.11298C12.089 6.04478 10.5782 6.04478 9.64641 5.11298L5.23228 0.698848C4.78482 0.251383 4.17792 0 3.54511 0H2.38602Z" fill="#9784FF" style="fill:#9784FF;fill:color(display-p3 0.5910 0.5188 1.0000);fill-opacity:1;"/>
<path fill-rule="evenodd" clip-rule="evenodd" d="M25.3325 27.7189C25.3325 26.4011 26.4008 25.3329 27.7185 25.3329H45.6137C46.9314 25.3329 47.9997 26.4011 47.9997 27.7189V45.614C47.9997 46.9318 46.9314 48 45.6137 48H27.7185C26.4008 48 25.3325 46.9318 25.3325 45.614V27.7189ZM27.7185 32.4909C27.7185 29.8554 29.855 27.7189 32.4906 27.7189H40.8416C43.4772 27.7189 45.6137 29.8554 45.6137 32.4909C45.6137 35.1264 43.4772 37.2629 40.8416 37.2629V41.4385C40.8416 43.7446 38.9722 45.614 36.6661 45.614C34.36 45.614 32.4906 43.7446 32.4906 41.4385V37.2629C29.855 37.2629 27.7185 35.1264 27.7185 32.4909Z" fill="#00B9E2" style="fill:#00B9E2;fill:color(display-p3 0.0000 0.7244 0.8873);fill-opacity:1;"/>
<path d="M22.6672 36.6664C22.6672 42.9258 17.5929 48 11.3336 48C5.07422 48 0 42.9258 0 36.6664C0 30.4071 5.07422 25.3329 11.3336 25.3329C17.5929 25.3329 22.6672 30.4071 22.6672 36.6664Z" fill="#7552FF" style="fill:#7552FF;fill:color(display-p3 0.4583 0.3229 1.0000);fill-opacity:1;"/>
<path d="M47.9997 11.3336C47.9997 17.5929 42.9255 22.6672 36.6661 22.6672C30.4067 22.6672 25.3325 17.5929 25.3325 11.3336C25.3325 5.07422 30.4067 0 36.6661 0C42.9255 0 47.9997 5.07422 47.9997 11.3336Z" fill="#00D179" style="fill:#00D179;fill:color(display-p3 0.0000 0.8179 0.4744);fill-opacity:1;"/>
</svg>
