%TF.GenerationSoftware,KiCad,Pcbnew,7.0.10*%
%TF.CreationDate,2024-04-11T21:52:28-07:00*%
%TF.ProjectId,magical toys integration pcbrev4,6d616769-6361-46c2-9074-6f797320696e,rev?*%
%TF.SameCoordinates,Original*%
%TF.FileFunction,Copper,L2,Bot*%
%TF.FilePolarity,Positive*%
%FSLAX46Y46*%
G04 Gerber Fmt 4.6, Leading zero omitted, Abs format (unit mm)*
G04 Created by KiCad (PCBNEW 7.0.10) date 2024-04-11 21:52:28*
%MOMM*%
%LPD*%
G01*
G04 APERTURE LIST*
G04 Aperture macros list*
%AMRoundRect*
0 Rectangle with rounded corners*
0 $1 Rounding radius*
0 $2 $3 $4 $5 $6 $7 $8 $9 X,Y pos of 4 corners*
0 Add a 4 corners polygon primitive as box body*
4,1,4,$2,$3,$4,$5,$6,$7,$8,$9,$2,$3,0*
0 Add four circle primitives for the rounded corners*
1,1,$1+$1,$2,$3*
1,1,$1+$1,$4,$5*
1,1,$1+$1,$6,$7*
1,1,$1+$1,$8,$9*
0 Add four rect primitives between the rounded corners*
20,1,$1+$1,$2,$3,$4,$5,0*
20,1,$1+$1,$4,$5,$6,$7,0*
20,1,$1+$1,$6,$7,$8,$9,0*
20,1,$1+$1,$8,$9,$2,$3,0*%
G04 Aperture macros list end*
%TA.AperFunction,ComponentPad*%
%ADD10R,1.700000X1.700000*%
%TD*%
%TA.AperFunction,ComponentPad*%
%ADD11O,1.700000X1.700000*%
%TD*%
%TA.AperFunction,ComponentPad*%
%ADD12RoundRect,0.250002X-1.699998X-1.699998X1.699998X-1.699998X1.699998X1.699998X-1.699998X1.699998X0*%
%TD*%
%TA.AperFunction,ComponentPad*%
%ADD13R,1.600000X1.600000*%
%TD*%
%TA.AperFunction,ComponentPad*%
%ADD14O,1.600000X1.600000*%
%TD*%
%TA.AperFunction,ViaPad*%
%ADD15C,0.800000*%
%TD*%
%TA.AperFunction,Conductor*%
%ADD16C,0.508000*%
%TD*%
%TA.AperFunction,Conductor*%
%ADD17C,0.381000*%
%TD*%
%TA.AperFunction,Conductor*%
%ADD18C,0.762000*%
%TD*%
G04 APERTURE END LIST*
D10*
%TO.P,J1,1,Pin_1*%
%TO.N,+3.3V*%
X177525000Y-111475000D03*
D11*
%TO.P,J1,2,Pin_2*%
%TO.N,+5V*%
X177525000Y-114015000D03*
%TO.P,J1,3,Pin_3*%
%TO.N,/ADC-SDA*%
X174985000Y-111475000D03*
%TO.P,J1,4,Pin_4*%
%TO.N,+5V*%
X174985000Y-114015000D03*
%TO.P,J1,5,Pin_5*%
%TO.N,/ADC-SCL*%
X172445000Y-111475000D03*
%TO.P,J1,6,Pin_6*%
%TO.N,GND*%
X172445000Y-114015000D03*
%TO.P,J1,7,Pin_7*%
%TO.N,unconnected-(J1-Pin_7-Pad7)*%
X169905000Y-111475000D03*
%TO.P,J1,8,Pin_8*%
%TO.N,unconnected-(J1-Pin_8-Pad8)*%
X169905000Y-114015000D03*
%TO.P,J1,9,Pin_9*%
%TO.N,GND*%
X167365000Y-111475000D03*
%TO.P,J1,10,Pin_10*%
%TO.N,unconnected-(J1-Pin_10-Pad10)*%
X167365000Y-114015000D03*
%TO.P,J1,11,Pin_11*%
%TO.N,unconnected-(J1-Pin_11-Pad11)*%
X164825000Y-111475000D03*
%TO.P,J1,12,Pin_12*%
%TO.N,unconnected-(J1-Pin_12-Pad12)*%
X164825000Y-114015000D03*
%TO.P,J1,13,Pin_13*%
%TO.N,unconnected-(J1-Pin_13-Pad13)*%
X162285000Y-111475000D03*
%TO.P,J1,14,Pin_14*%
%TO.N,unconnected-(J1-Pin_14-Pad14)*%
X162285000Y-114015000D03*
%TO.P,J1,15,Pin_15*%
%TO.N,unconnected-(J1-Pin_15-Pad15)*%
X159745000Y-111475000D03*
%TO.P,J1,16,Pin_16*%
%TO.N,unconnected-(J1-Pin_16-Pad16)*%
X159745000Y-114015000D03*
%TO.P,J1,17,Pin_17*%
%TO.N,unconnected-(J1-Pin_17-Pad17)*%
X157205000Y-111475000D03*
%TO.P,J1,18,Pin_18*%
%TO.N,unconnected-(J1-Pin_18-Pad18)*%
X157205000Y-114015000D03*
%TO.P,J1,19,Pin_19*%
%TO.N,unconnected-(J1-Pin_19-Pad19)*%
X154665000Y-111475000D03*
%TO.P,J1,20,Pin_20*%
%TO.N,unconnected-(J1-Pin_20-Pad20)*%
X154665000Y-114015000D03*
%TO.P,J1,21,Pin_21*%
%TO.N,unconnected-(J1-Pin_21-Pad21)*%
X152125000Y-111475000D03*
%TO.P,J1,22,Pin_22*%
%TO.N,unconnected-(J1-Pin_22-Pad22)*%
X152125000Y-114015000D03*
%TO.P,J1,23,Pin_23*%
%TO.N,unconnected-(J1-Pin_23-Pad23)*%
X149585000Y-111475000D03*
%TO.P,J1,24,Pin_24*%
%TO.N,unconnected-(J1-Pin_24-Pad24)*%
X149585000Y-114015000D03*
%TO.P,J1,25,Pin_25*%
%TO.N,unconnected-(J1-Pin_25-Pad25)*%
X147045000Y-111475000D03*
%TO.P,J1,26,Pin_26*%
%TO.N,unconnected-(J1-Pin_26-Pad26)*%
X147045000Y-114015000D03*
%TO.P,J1,27,Pin_27*%
%TO.N,unconnected-(J1-Pin_27-Pad27)*%
X144505000Y-111475000D03*
%TO.P,J1,28,Pin_28*%
%TO.N,unconnected-(J1-Pin_28-Pad28)*%
X144505000Y-114015000D03*
%TO.P,J1,29,Pin_29*%
%TO.N,unconnected-(J1-Pin_29-Pad29)*%
X141965000Y-111475000D03*
%TO.P,J1,30,Pin_30*%
%TO.N,unconnected-(J1-Pin_30-Pad30)*%
X141965000Y-114015000D03*
%TO.P,J1,31,Pin_31*%
%TO.N,unconnected-(J1-Pin_31-Pad31)*%
X139425000Y-111475000D03*
%TO.P,J1,32,Pin_32*%
%TO.N,unconnected-(J1-Pin_32-Pad32)*%
X139425000Y-114015000D03*
%TO.P,J1,33,Pin_33*%
%TO.N,unconnected-(J1-Pin_33-Pad33)*%
X136885000Y-111475000D03*
%TO.P,J1,34,Pin_34*%
%TO.N,unconnected-(J1-Pin_34-Pad34)*%
X136885000Y-114015000D03*
%TO.P,J1,35,Pin_35*%
%TO.N,unconnected-(J1-Pin_35-Pad35)*%
X134345000Y-111475000D03*
%TO.P,J1,36,Pin_36*%
%TO.N,unconnected-(J1-Pin_36-Pad36)*%
X134345000Y-114015000D03*
%TO.P,J1,37,Pin_37*%
%TO.N,unconnected-(J1-Pin_37-Pad37)*%
X131805000Y-111475000D03*
%TO.P,J1,38,Pin_38*%
%TO.N,unconnected-(J1-Pin_38-Pad38)*%
X131805000Y-114015000D03*
%TO.P,J1,39,Pin_39*%
%TO.N,GND*%
X129265000Y-111475000D03*
%TO.P,J1,40,Pin_40*%
%TO.N,unconnected-(J1-Pin_40-Pad40)*%
X129265000Y-114015000D03*
%TD*%
D10*
%TO.P,J5V_OUT1,1,Pin_1*%
%TO.N,Net-(J5V_OUT1-Pin_1)*%
X188200000Y-84225000D03*
D11*
%TO.P,J5V_OUT1,2,Pin_2*%
%TO.N,unconnected-(J5V_OUT1-Pin_2-Pad2)*%
X188200000Y-86765000D03*
%TO.P,J5V_OUT1,3,Pin_3*%
%TO.N,+5V*%
X188200000Y-89305000D03*
%TD*%
D10*
%TO.P,J3.5AudioBreakout2,1,Pin_1*%
%TO.N,/AudioR*%
X118600000Y-113100000D03*
D11*
%TO.P,J3.5AudioBreakout2,2,Pin_2*%
%TO.N,/AudioG*%
X116060000Y-113100000D03*
%TO.P,J3.5AudioBreakout2,3,Pin_3*%
%TO.N,/AudioL*%
X113520000Y-113100000D03*
%TD*%
D10*
%TO.P,J3.5AudioInput1,1,Pin_1*%
%TO.N,/AudioR*%
X124125000Y-101125000D03*
D11*
%TO.P,J3.5AudioInput1,2,Pin_2*%
%TO.N,/AudioG*%
X124125000Y-98585000D03*
%TO.P,J3.5AudioInput1,3,Pin_3*%
%TO.N,/AudioL*%
X124125000Y-96045000D03*
%TD*%
D10*
%TO.P,JSPK_VIN1,1,Pin_1*%
%TO.N,+3.3V*%
X124124997Y-106311999D03*
D11*
%TO.P,JSPK_VIN1,2,Pin_2*%
%TO.N,GND*%
X124124997Y-103771999D03*
%TD*%
D10*
%TO.P,JSPK_BREAKOUT2,1,Pin_1*%
%TO.N,/SPK+_V1*%
X116850000Y-90137998D03*
D11*
%TO.P,JSPK_BREAKOUT2,2,Pin_2*%
%TO.N,/SPK-_V2*%
X116850000Y-87597998D03*
%TD*%
D10*
%TO.P,JOFF_BATT-1,1,Pin_1*%
%TO.N,/VBAT-*%
X176600000Y-103115000D03*
%TD*%
D12*
%TO.P,J2,1,Pin_1*%
%TO.N,/VBAT-*%
X192800000Y-101600000D03*
%TD*%
D10*
%TO.P,JSPK_OUT_R1,1,Pin_1*%
%TO.N,/SPK+_V1*%
X140925000Y-101685000D03*
D11*
%TO.P,JSPK_OUT_R1,2,Pin_2*%
%TO.N,/SPK-_V2*%
X140925000Y-104225000D03*
%TD*%
D10*
%TO.P,JOFF_BATT+1,1,Pin_1*%
%TO.N,/VBAT+*%
X182650000Y-103115000D03*
%TD*%
D13*
%TO.P,U1,1,AIN0*%
%TO.N,/VBAT+*%
X166400000Y-106340000D03*
D14*
%TO.P,U1,2,AIN1*%
%TO.N,unconnected-(U1-AIN1-Pad2)*%
X166400000Y-103800000D03*
%TO.P,U1,3,AIN2*%
%TO.N,unconnected-(U1-AIN2-Pad3)*%
X166400000Y-101260000D03*
%TO.P,U1,4,AIN3*%
%TO.N,unconnected-(U1-AIN3-Pad4)*%
X166400000Y-98720000D03*
%TO.P,U1,5,A0*%
%TO.N,GND*%
X166400000Y-96180000D03*
%TO.P,U1,6,A1*%
X166400000Y-93640000D03*
%TO.P,U1,7,A2*%
X166400000Y-91100000D03*
%TO.P,U1,8,VSS*%
X166400000Y-88560000D03*
%TO.P,U1,9,SDA*%
%TO.N,/ADC-SDA*%
X158780000Y-88560000D03*
%TO.P,U1,10,SCL*%
%TO.N,/ADC-SCL*%
X158780000Y-91100000D03*
%TO.P,U1,11,OSC*%
%TO.N,unconnected-(U1-OSC-Pad11)*%
X158780000Y-93640000D03*
%TO.P,U1,12,EXT*%
%TO.N,GND*%
X158780000Y-96180000D03*
%TO.P,U1,13,AGND*%
X158780000Y-98720000D03*
%TO.P,U1,14,VREF*%
%TO.N,+5V*%
X158780000Y-101260000D03*
%TO.P,U1,15,AOUT*%
%TO.N,unconnected-(U1-AOUT-Pad15)*%
X158780000Y-103800000D03*
%TO.P,U1,16,VDD*%
%TO.N,+5V*%
X158780000Y-106340000D03*
%TD*%
D10*
%TO.P,JSWT-DROPIN1,1,Pin_1*%
%TO.N,unconnected-(JSWT-DROPIN1-Pin_1-Pad1)*%
X154110000Y-83400000D03*
D11*
%TO.P,JSWT-DROPIN1,2,Pin_2*%
%TO.N,GND*%
X156650000Y-83400000D03*
%TO.P,JSWT-DROPIN1,3,Pin_3*%
%TO.N,Net-(J5V_OUT1-Pin_1)*%
X159190000Y-83400000D03*
%TO.P,JSWT-DROPIN1,4,Pin_4*%
%TO.N,unconnected-(JSWT-DROPIN1-Pin_4-Pad4)*%
X161730000Y-83400000D03*
%TO.P,JSWT-DROPIN1,5,Pin_5*%
%TO.N,unconnected-(JSWT-DROPIN1-Pin_5-Pad5)*%
X164270000Y-83400000D03*
%TD*%
D12*
%TO.P,J3,1,Pin_1*%
%TO.N,/VBAT+*%
X116050000Y-101350000D03*
%TD*%
D15*
%TO.N,+3.3V*%
X166100000Y-109500000D03*
%TO.N,/ADC-SDA*%
X163000000Y-106250000D03*
X161500000Y-108250000D03*
%TO.N,GND*%
X175200000Y-109400000D03*
%TO.N,/VBAT+*%
X147500000Y-99000000D03*
%TO.N,/SPK-_V2*%
X136725000Y-100025000D03*
%TD*%
D16*
%TO.N,+3.3V*%
X166100000Y-109500000D02*
X167400000Y-108200000D01*
X167400000Y-108200000D02*
X175900000Y-108200000D01*
X177525000Y-109825000D02*
X177525000Y-111475000D01*
X175900000Y-108200000D02*
X177525000Y-109825000D01*
D17*
%TO.N,/ADC-SDA*%
X161500000Y-107750000D02*
X163000000Y-106250000D01*
X161500000Y-108250000D02*
X161500000Y-107750000D01*
D16*
%TO.N,GND*%
X169440000Y-109400000D02*
X175200000Y-109400000D01*
D17*
X167365000Y-111475000D02*
X168605500Y-112715500D01*
X168605500Y-112715500D02*
X171145500Y-112715500D01*
D16*
X167365000Y-111475000D02*
X169440000Y-109400000D01*
D17*
X171145500Y-112715500D02*
X172445000Y-114015000D01*
D18*
%TO.N,/VBAT+*%
X123950000Y-109250000D02*
X116050000Y-101350000D01*
X166400000Y-106340000D02*
X163490000Y-109250000D01*
D17*
X147500000Y-99000000D02*
X157750000Y-109250000D01*
D18*
X163490000Y-109250000D02*
X123950000Y-109250000D01*
D16*
%TO.N,/SPK-_V2*%
X136725000Y-100025000D02*
X140925000Y-104225000D01*
%TD*%
%TA.AperFunction,Conductor*%
%TO.N,+5V*%
G36*
X177065507Y-113805156D02*
G01*
X177025000Y-113943111D01*
X177025000Y-114086889D01*
X177065507Y-114224844D01*
X177091314Y-114265000D01*
X175418686Y-114265000D01*
X175444493Y-114224844D01*
X175485000Y-114086889D01*
X175485000Y-113943111D01*
X175444493Y-113805156D01*
X175418686Y-113765000D01*
X177091314Y-113765000D01*
X177065507Y-113805156D01*
G37*
%TD.AperFunction*%
%TA.AperFunction,Conductor*%
G36*
X192803736Y-79408726D02*
G01*
X193086805Y-79425848D01*
X193101668Y-79427653D01*
X193376917Y-79478095D01*
X193391454Y-79481678D01*
X193658605Y-79564926D01*
X193672597Y-79570231D01*
X193927789Y-79685084D01*
X193941035Y-79692036D01*
X194180512Y-79836805D01*
X194192828Y-79845306D01*
X194192835Y-79845311D01*
X194413112Y-80017887D01*
X194424320Y-80027817D01*
X194622182Y-80225679D01*
X194632112Y-80236887D01*
X194804689Y-80457165D01*
X194813195Y-80469488D01*
X194957960Y-80708958D01*
X194964919Y-80722217D01*
X195079766Y-80977398D01*
X195085075Y-80991399D01*
X195168320Y-81258544D01*
X195171904Y-81273082D01*
X195222346Y-81548331D01*
X195224151Y-81563196D01*
X195241274Y-81846263D01*
X195241500Y-81853750D01*
X195241500Y-99280772D01*
X195221815Y-99347811D01*
X195169011Y-99393566D01*
X195099853Y-99403510D01*
X195036297Y-99374485D01*
X195029819Y-99368453D01*
X194968656Y-99307290D01*
X194968655Y-99307289D01*
X194819333Y-99215186D01*
X194652796Y-99160001D01*
X194652794Y-99160000D01*
X194550008Y-99149500D01*
X191050000Y-99149500D01*
X191049983Y-99149501D01*
X190947204Y-99160000D01*
X190947201Y-99160001D01*
X190780669Y-99215185D01*
X190780664Y-99215187D01*
X190631343Y-99307290D01*
X190507290Y-99431343D01*
X190415187Y-99580664D01*
X190415185Y-99580669D01*
X190406599Y-99606580D01*
X190360001Y-99747204D01*
X190360001Y-99747205D01*
X190360000Y-99747205D01*
X190349500Y-99849985D01*
X190349500Y-103349999D01*
X190349501Y-103350016D01*
X190360000Y-103452795D01*
X190360001Y-103452798D01*
X190415185Y-103619330D01*
X190415187Y-103619335D01*
X190429606Y-103642711D01*
X190507289Y-103768655D01*
X190631345Y-103892711D01*
X190780667Y-103984814D01*
X190947204Y-104039999D01*
X191049993Y-104050500D01*
X194550006Y-104050499D01*
X194652796Y-104039999D01*
X194819333Y-103984814D01*
X194968655Y-103892711D01*
X195029819Y-103831547D01*
X195091142Y-103798062D01*
X195160834Y-103803046D01*
X195216767Y-103844918D01*
X195241184Y-103910382D01*
X195241500Y-103919228D01*
X195241500Y-113646249D01*
X195241274Y-113653736D01*
X195224151Y-113936803D01*
X195222346Y-113951668D01*
X195171904Y-114226917D01*
X195168320Y-114241455D01*
X195085075Y-114508600D01*
X195079766Y-114522601D01*
X194964919Y-114777782D01*
X194957960Y-114791041D01*
X194813195Y-115030511D01*
X194804689Y-115042834D01*
X194632112Y-115263112D01*
X194622182Y-115274320D01*
X194424320Y-115472182D01*
X194413112Y-115482112D01*
X194192834Y-115654689D01*
X194180511Y-115663195D01*
X193941041Y-115807960D01*
X193927782Y-115814919D01*
X193672601Y-115929766D01*
X193658600Y-115935075D01*
X193391455Y-116018320D01*
X193376917Y-116021904D01*
X193101668Y-116072346D01*
X193086803Y-116074151D01*
X192803736Y-116091274D01*
X192796249Y-116091500D01*
X113603750Y-116091500D01*
X113596263Y-116091274D01*
X113313195Y-116074151D01*
X113298330Y-116072346D01*
X113023082Y-116021904D01*
X113008544Y-116018320D01*
X112741399Y-115935075D01*
X112727398Y-115929766D01*
X112472217Y-115814919D01*
X112458958Y-115807960D01*
X112219488Y-115663195D01*
X112207165Y-115654689D01*
X111986887Y-115482112D01*
X111975679Y-115472182D01*
X111777817Y-115274320D01*
X111767887Y-115263112D01*
X111595306Y-115042828D01*
X111586808Y-115030517D01*
X111442036Y-114791034D01*
X111435081Y-114777782D01*
X111320231Y-114522596D01*
X111314924Y-114508600D01*
X111312144Y-114499680D01*
X111231678Y-114241454D01*
X111228095Y-114226917D01*
X111183410Y-113983084D01*
X111177652Y-113951666D01*
X111175848Y-113936803D01*
X111158726Y-113653736D01*
X111158500Y-113646249D01*
X111158500Y-113100000D01*
X112164341Y-113100000D01*
X112184936Y-113335403D01*
X112184938Y-113335413D01*
X112246094Y-113563655D01*
X112246096Y-113563659D01*
X112246097Y-113563663D01*
X112326004Y-113735023D01*
X112345965Y-113777830D01*
X112345967Y-113777834D01*
X112423807Y-113889000D01*
X112481505Y-113971401D01*
X112648599Y-114138495D01*
X112745384Y-114206265D01*
X112842165Y-114274032D01*
X112842167Y-114274033D01*
X112842170Y-114274035D01*
X113056337Y-114373903D01*
X113284592Y-114435063D01*
X113461034Y-114450500D01*
X113519999Y-114455659D01*
X113520000Y-114455659D01*
X113520001Y-114455659D01*
X113578966Y-114450500D01*
X113755408Y-114435063D01*
X113983663Y-114373903D01*
X114197830Y-114274035D01*
X114391401Y-114138495D01*
X114558495Y-113971401D01*
X114688425Y-113785842D01*
X114743002Y-113742217D01*
X114812500Y-113735023D01*
X114874855Y-113766546D01*
X114891575Y-113785842D01*
X115021500Y-113971395D01*
X115021505Y-113971401D01*
X115188599Y-114138495D01*
X115285384Y-114206265D01*
X115382165Y-114274032D01*
X115382167Y-114274033D01*
X115382170Y-114274035D01*
X115596337Y-114373903D01*
X115824592Y-114435063D01*
X116001034Y-114450500D01*
X116059999Y-114455659D01*
X116060000Y-114455659D01*
X116060001Y-114455659D01*
X116118966Y-114450500D01*
X116295408Y-114435063D01*
X116523663Y-114373903D01*
X116737830Y-114274035D01*
X116931401Y-114138495D01*
X117053329Y-114016566D01*
X117114648Y-113983084D01*
X117184340Y-113988068D01*
X117240274Y-114029939D01*
X117257189Y-114060917D01*
X117306202Y-114192328D01*
X117306206Y-114192335D01*
X117392452Y-114307544D01*
X117392455Y-114307547D01*
X117507664Y-114393793D01*
X117507671Y-114393797D01*
X117642517Y-114444091D01*
X117642516Y-114444091D01*
X117649444Y-114444835D01*
X117702127Y-114450500D01*
X119497872Y-114450499D01*
X119557483Y-114444091D01*
X119692331Y-114393796D01*
X119807546Y-114307546D01*
X119893796Y-114192331D01*
X119944091Y-114057483D01*
X119950500Y-113997873D01*
X119950499Y-112202128D01*
X119944091Y-112142517D01*
X119942810Y-112139083D01*
X119893797Y-112007671D01*
X119893793Y-112007664D01*
X119807547Y-111892455D01*
X119807544Y-111892452D01*
X119692335Y-111806206D01*
X119692328Y-111806202D01*
X119557482Y-111755908D01*
X119557483Y-111755908D01*
X119497883Y-111749501D01*
X119497881Y-111749500D01*
X119497873Y-111749500D01*
X119497864Y-111749500D01*
X117702129Y-111749500D01*
X117702123Y-111749501D01*
X117642516Y-111755908D01*
X117507671Y-111806202D01*
X117507664Y-111806206D01*
X117392455Y-111892452D01*
X117392452Y-111892455D01*
X117306206Y-112007664D01*
X117306203Y-112007669D01*
X117257189Y-112139083D01*
X117215317Y-112195016D01*
X117149853Y-112219433D01*
X117081580Y-112204581D01*
X117053326Y-112183430D01*
X116931402Y-112061506D01*
X116931395Y-112061501D01*
X116737834Y-111925967D01*
X116737830Y-111925965D01*
X116737828Y-111925964D01*
X116523663Y-111826097D01*
X116523659Y-111826096D01*
X116523655Y-111826094D01*
X116295413Y-111764938D01*
X116295403Y-111764936D01*
X116060001Y-111744341D01*
X116059999Y-111744341D01*
X115824596Y-111764936D01*
X115824586Y-111764938D01*
X115596344Y-111826094D01*
X115596335Y-111826098D01*
X115382171Y-111925964D01*
X115382169Y-111925965D01*
X115188597Y-112061505D01*
X115021505Y-112228597D01*
X114891575Y-112414158D01*
X114836998Y-112457783D01*
X114767500Y-112464977D01*
X114705145Y-112433454D01*
X114688425Y-112414158D01*
X114558494Y-112228597D01*
X114391402Y-112061506D01*
X114391395Y-112061501D01*
X114197834Y-111925967D01*
X114197830Y-111925965D01*
X114197828Y-111925964D01*
X113983663Y-111826097D01*
X113983659Y-111826096D01*
X113983655Y-111826094D01*
X113755413Y-111764938D01*
X113755403Y-111764936D01*
X113520001Y-111744341D01*
X113519999Y-111744341D01*
X113284596Y-111764936D01*
X113284586Y-111764938D01*
X113056344Y-111826094D01*
X113056335Y-111826098D01*
X112842171Y-111925964D01*
X112842169Y-111925965D01*
X112648597Y-112061505D01*
X112481505Y-112228597D01*
X112345965Y-112422169D01*
X112345964Y-112422171D01*
X112246098Y-112636335D01*
X112246094Y-112636344D01*
X112184938Y-112864586D01*
X112184936Y-112864596D01*
X112164341Y-113099999D01*
X112164341Y-113100000D01*
X111158500Y-113100000D01*
X111158500Y-103099999D01*
X113599500Y-103099999D01*
X113599501Y-103100016D01*
X113610000Y-103202795D01*
X113610001Y-103202798D01*
X113644976Y-103308343D01*
X113665186Y-103369333D01*
X113757289Y-103518655D01*
X113881345Y-103642711D01*
X114030667Y-103734814D01*
X114197204Y-103789999D01*
X114299993Y-103800500D01*
X117202508Y-103800499D01*
X117269547Y-103820184D01*
X117290189Y-103836818D01*
X123297778Y-109844407D01*
X123304606Y-109851813D01*
X123340218Y-109893739D01*
X123405751Y-109943556D01*
X123408320Y-109945564D01*
X123472453Y-109997115D01*
X123472682Y-109997228D01*
X123492635Y-110009603D01*
X123492859Y-110009774D01*
X123492860Y-110009774D01*
X123492861Y-110009775D01*
X123567537Y-110044323D01*
X123570543Y-110045763D01*
X123644226Y-110082307D01*
X123644481Y-110082370D01*
X123666633Y-110090169D01*
X123666876Y-110090282D01*
X123666879Y-110090282D01*
X123666880Y-110090283D01*
X123747188Y-110107960D01*
X123750433Y-110108719D01*
X123830296Y-110128581D01*
X123830565Y-110128588D01*
X123853871Y-110131443D01*
X123854130Y-110131500D01*
X123854131Y-110131500D01*
X123936357Y-110131500D01*
X123939715Y-110131545D01*
X124021964Y-110133773D01*
X124022238Y-110133720D01*
X124045597Y-110131500D01*
X128435914Y-110131500D01*
X128502953Y-110151185D01*
X128548708Y-110203989D01*
X128558652Y-110273147D01*
X128529627Y-110336703D01*
X128507037Y-110357075D01*
X128393596Y-110436506D01*
X128226505Y-110603597D01*
X128090965Y-110797169D01*
X128090964Y-110797171D01*
X127991098Y-111011335D01*
X127991094Y-111011344D01*
X127929938Y-111239586D01*
X127929936Y-111239596D01*
X127909341Y-111474999D01*
X127909341Y-111475000D01*
X127929936Y-111710403D01*
X127929938Y-111710413D01*
X127991094Y-111938655D01*
X127991096Y-111938659D01*
X127991097Y-111938663D01*
X128086156Y-112142517D01*
X128090965Y-112152830D01*
X128090967Y-112152834D01*
X128144019Y-112228599D01*
X128226501Y-112346396D01*
X128226506Y-112346402D01*
X128393597Y-112513493D01*
X128393603Y-112513498D01*
X128579158Y-112643425D01*
X128622783Y-112698002D01*
X128629977Y-112767500D01*
X128598454Y-112829855D01*
X128579158Y-112846575D01*
X128393597Y-112976505D01*
X128226505Y-113143597D01*
X128090965Y-113337169D01*
X128090964Y-113337171D01*
X127991098Y-113551335D01*
X127991094Y-113551344D01*
X127929938Y-113779586D01*
X127929936Y-113779596D01*
X127909341Y-114014999D01*
X127909341Y-114015000D01*
X127929936Y-114250403D01*
X127929938Y-114250413D01*
X127991094Y-114478655D01*
X127991096Y-114478659D01*
X127991097Y-114478663D01*
X128071004Y-114650023D01*
X128090965Y-114692830D01*
X128090967Y-114692834D01*
X128159732Y-114791040D01*
X128226505Y-114886401D01*
X128393599Y-115053495D01*
X128490384Y-115121265D01*
X128587165Y-115189032D01*
X128587167Y-115189033D01*
X128587170Y-115189035D01*
X128801337Y-115288903D01*
X129029592Y-115350063D01*
X129217918Y-115366539D01*
X129264999Y-115370659D01*
X129265000Y-115370659D01*
X129265001Y-115370659D01*
X129304234Y-115367226D01*
X129500408Y-115350063D01*
X129728663Y-115288903D01*
X129942830Y-115189035D01*
X130136401Y-115053495D01*
X130303495Y-114886401D01*
X130433425Y-114700842D01*
X130488002Y-114657217D01*
X130557500Y-114650023D01*
X130619855Y-114681546D01*
X130636575Y-114700842D01*
X130766500Y-114886395D01*
X130766505Y-114886401D01*
X130933599Y-115053495D01*
X131030384Y-115121265D01*
X131127165Y-115189032D01*
X131127167Y-115189033D01*
X131127170Y-115189035D01*
X131341337Y-115288903D01*
X131569592Y-115350063D01*
X131757918Y-115366539D01*
X131804999Y-115370659D01*
X131805000Y-115370659D01*
X131805001Y-115370659D01*
X131844234Y-115367226D01*
X132040408Y-115350063D01*
X132268663Y-115288903D01*
X132482830Y-115189035D01*
X132676401Y-115053495D01*
X132843495Y-114886401D01*
X132973425Y-114700842D01*
X133028002Y-114657217D01*
X133097500Y-114650023D01*
X133159855Y-114681546D01*
X133176575Y-114700842D01*
X133306500Y-114886395D01*
X133306505Y-114886401D01*
X133473599Y-115053495D01*
X133570384Y-115121265D01*
X133667165Y-115189032D01*
X133667167Y-115189033D01*
X133667170Y-115189035D01*
X133881337Y-115288903D01*
X134109592Y-115350063D01*
X134297918Y-115366539D01*
X134344999Y-115370659D01*
X134345000Y-115370659D01*
X134345001Y-115370659D01*
X134384234Y-115367226D01*
X134580408Y-115350063D01*
X134808663Y-115288903D01*
X135022830Y-115189035D01*
X135216401Y-115053495D01*
X135383495Y-114886401D01*
X135513425Y-114700842D01*
X135568002Y-114657217D01*
X135637500Y-114650023D01*
X135699855Y-114681546D01*
X135716575Y-114700842D01*
X135846500Y-114886395D01*
X135846505Y-114886401D01*
X136013599Y-115053495D01*
X136110384Y-115121265D01*
X136207165Y-115189032D01*
X136207167Y-115189033D01*
X136207170Y-115189035D01*
X136421337Y-115288903D01*
X136649592Y-115350063D01*
X136837918Y-115366539D01*
X136884999Y-115370659D01*
X136885000Y-115370659D01*
X136885001Y-115370659D01*
X136924234Y-115367226D01*
X137120408Y-115350063D01*
X137348663Y-115288903D01*
X137562830Y-115189035D01*
X137756401Y-115053495D01*
X137923495Y-114886401D01*
X138053425Y-114700842D01*
X138108002Y-114657217D01*
X138177500Y-114650023D01*
X138239855Y-114681546D01*
X138256575Y-114700842D01*
X138386500Y-114886395D01*
X138386505Y-114886401D01*
X138553599Y-115053495D01*
X138650384Y-115121265D01*
X138747165Y-115189032D01*
X138747167Y-115189033D01*
X138747170Y-115189035D01*
X138961337Y-115288903D01*
X139189592Y-115350063D01*
X139377918Y-115366539D01*
X139424999Y-115370659D01*
X139425000Y-115370659D01*
X139425001Y-115370659D01*
X139464234Y-115367226D01*
X139660408Y-115350063D01*
X139888663Y-115288903D01*
X140102830Y-115189035D01*
X140296401Y-115053495D01*
X140463495Y-114886401D01*
X140593425Y-114700842D01*
X140648002Y-114657217D01*
X140717500Y-114650023D01*
X140779855Y-114681546D01*
X140796575Y-114700842D01*
X140926500Y-114886395D01*
X140926505Y-114886401D01*
X141093599Y-115053495D01*
X141190384Y-115121265D01*
X141287165Y-115189032D01*
X141287167Y-115189033D01*
X141287170Y-115189035D01*
X141501337Y-115288903D01*
X141729592Y-115350063D01*
X141917918Y-115366539D01*
X141964999Y-115370659D01*
X141965000Y-115370659D01*
X141965001Y-115370659D01*
X142004234Y-115367226D01*
X142200408Y-115350063D01*
X142428663Y-115288903D01*
X142642830Y-115189035D01*
X142836401Y-115053495D01*
X143003495Y-114886401D01*
X143133425Y-114700842D01*
X143188002Y-114657217D01*
X143257500Y-114650023D01*
X143319855Y-114681546D01*
X143336575Y-114700842D01*
X143466500Y-114886395D01*
X143466505Y-114886401D01*
X143633599Y-115053495D01*
X143730384Y-115121265D01*
X143827165Y-115189032D01*
X143827167Y-115189033D01*
X143827170Y-115189035D01*
X144041337Y-115288903D01*
X144269592Y-115350063D01*
X144457918Y-115366539D01*
X144504999Y-115370659D01*
X144505000Y-115370659D01*
X144505001Y-115370659D01*
X144544234Y-115367226D01*
X144740408Y-115350063D01*
X144968663Y-115288903D01*
X145182830Y-115189035D01*
X145376401Y-115053495D01*
X145543495Y-114886401D01*
X145673425Y-114700842D01*
X145728002Y-114657217D01*
X145797500Y-114650023D01*
X145859855Y-114681546D01*
X145876575Y-114700842D01*
X146006500Y-114886395D01*
X146006505Y-114886401D01*
X146173599Y-115053495D01*
X146270384Y-115121265D01*
X146367165Y-115189032D01*
X146367167Y-115189033D01*
X146367170Y-115189035D01*
X146581337Y-115288903D01*
X146809592Y-115350063D01*
X146997918Y-115366539D01*
X147044999Y-115370659D01*
X147045000Y-115370659D01*
X147045001Y-115370659D01*
X147084234Y-115367226D01*
X147280408Y-115350063D01*
X147508663Y-115288903D01*
X147722830Y-115189035D01*
X147916401Y-115053495D01*
X148083495Y-114886401D01*
X148213425Y-114700842D01*
X148268002Y-114657217D01*
X148337500Y-114650023D01*
X148399855Y-114681546D01*
X148416575Y-114700842D01*
X148546500Y-114886395D01*
X148546505Y-114886401D01*
X148713599Y-115053495D01*
X148810384Y-115121265D01*
X148907165Y-115189032D01*
X148907167Y-115189033D01*
X148907170Y-115189035D01*
X149121337Y-115288903D01*
X149349592Y-115350063D01*
X149537918Y-115366539D01*
X149584999Y-115370659D01*
X149585000Y-115370659D01*
X149585001Y-115370659D01*
X149624234Y-115367226D01*
X149820408Y-115350063D01*
X150048663Y-115288903D01*
X150262830Y-115189035D01*
X150456401Y-115053495D01*
X150623495Y-114886401D01*
X150753425Y-114700842D01*
X150808002Y-114657217D01*
X150877500Y-114650023D01*
X150939855Y-114681546D01*
X150956575Y-114700842D01*
X151086500Y-114886395D01*
X151086505Y-114886401D01*
X151253599Y-115053495D01*
X151350384Y-115121265D01*
X151447165Y-115189032D01*
X151447167Y-115189033D01*
X151447170Y-115189035D01*
X151661337Y-115288903D01*
X151889592Y-115350063D01*
X152077918Y-115366539D01*
X152124999Y-115370659D01*
X152125000Y-115370659D01*
X152125001Y-115370659D01*
X152164234Y-115367226D01*
X152360408Y-115350063D01*
X152588663Y-115288903D01*
X152802830Y-115189035D01*
X152996401Y-115053495D01*
X153163495Y-114886401D01*
X153293425Y-114700842D01*
X153348002Y-114657217D01*
X153417500Y-114650023D01*
X153479855Y-114681546D01*
X153496575Y-114700842D01*
X153626500Y-114886395D01*
X153626505Y-114886401D01*
X153793599Y-115053495D01*
X153890384Y-115121265D01*
X153987165Y-115189032D01*
X153987167Y-115189033D01*
X153987170Y-115189035D01*
X154201337Y-115288903D01*
X154429592Y-115350063D01*
X154617918Y-115366539D01*
X154664999Y-115370659D01*
X154665000Y-115370659D01*
X154665001Y-115370659D01*
X154704234Y-115367226D01*
X154900408Y-115350063D01*
X155128663Y-115288903D01*
X155342830Y-115189035D01*
X155536401Y-115053495D01*
X155703495Y-114886401D01*
X155833425Y-114700842D01*
X155888002Y-114657217D01*
X155957500Y-114650023D01*
X156019855Y-114681546D01*
X156036575Y-114700842D01*
X156166500Y-114886395D01*
X156166505Y-114886401D01*
X156333599Y-115053495D01*
X156430384Y-115121265D01*
X156527165Y-115189032D01*
X156527167Y-115189033D01*
X156527170Y-115189035D01*
X156741337Y-115288903D01*
X156969592Y-115350063D01*
X157157918Y-115366539D01*
X157204999Y-115370659D01*
X157205000Y-115370659D01*
X157205001Y-115370659D01*
X157244234Y-115367226D01*
X157440408Y-115350063D01*
X157668663Y-115288903D01*
X157882830Y-115189035D01*
X158076401Y-115053495D01*
X158243495Y-114886401D01*
X158373425Y-114700842D01*
X158428002Y-114657217D01*
X158497500Y-114650023D01*
X158559855Y-114681546D01*
X158576575Y-114700842D01*
X158706500Y-114886395D01*
X158706505Y-114886401D01*
X158873599Y-115053495D01*
X158970384Y-115121265D01*
X159067165Y-115189032D01*
X159067167Y-115189033D01*
X159067170Y-115189035D01*
X159281337Y-115288903D01*
X159509592Y-115350063D01*
X159697918Y-115366539D01*
X159744999Y-115370659D01*
X159745000Y-115370659D01*
X159745001Y-115370659D01*
X159784234Y-115367226D01*
X159980408Y-115350063D01*
X160208663Y-115288903D01*
X160422830Y-115189035D01*
X160616401Y-115053495D01*
X160783495Y-114886401D01*
X160913425Y-114700842D01*
X160968002Y-114657217D01*
X161037500Y-114650023D01*
X161099855Y-114681546D01*
X161116575Y-114700842D01*
X161246500Y-114886395D01*
X161246505Y-114886401D01*
X161413599Y-115053495D01*
X161510384Y-115121265D01*
X161607165Y-115189032D01*
X161607167Y-115189033D01*
X161607170Y-115189035D01*
X161821337Y-115288903D01*
X162049592Y-115350063D01*
X162237918Y-115366539D01*
X162284999Y-115370659D01*
X162285000Y-115370659D01*
X162285001Y-115370659D01*
X162324234Y-115367226D01*
X162520408Y-115350063D01*
X162748663Y-115288903D01*
X162962830Y-115189035D01*
X163156401Y-115053495D01*
X163323495Y-114886401D01*
X163453425Y-114700842D01*
X163508002Y-114657217D01*
X163577500Y-114650023D01*
X163639855Y-114681546D01*
X163656575Y-114700842D01*
X163786500Y-114886395D01*
X163786505Y-114886401D01*
X163953599Y-115053495D01*
X164050384Y-115121265D01*
X164147165Y-115189032D01*
X164147167Y-115189033D01*
X164147170Y-115189035D01*
X164361337Y-115288903D01*
X164589592Y-115350063D01*
X164777918Y-115366539D01*
X164824999Y-115370659D01*
X164825000Y-115370659D01*
X164825001Y-115370659D01*
X164864234Y-115367226D01*
X165060408Y-115350063D01*
X165288663Y-115288903D01*
X165502830Y-115189035D01*
X165696401Y-115053495D01*
X165863495Y-114886401D01*
X165993425Y-114700842D01*
X166048002Y-114657217D01*
X166117500Y-114650023D01*
X166179855Y-114681546D01*
X166196575Y-114700842D01*
X166326500Y-114886395D01*
X166326505Y-114886401D01*
X166493599Y-115053495D01*
X166590384Y-115121265D01*
X166687165Y-115189032D01*
X166687167Y-115189033D01*
X166687170Y-115189035D01*
X166901337Y-115288903D01*
X167129592Y-115350063D01*
X167317918Y-115366539D01*
X167364999Y-115370659D01*
X167365000Y-115370659D01*
X167365001Y-115370659D01*
X167404234Y-115367226D01*
X167600408Y-115350063D01*
X167828663Y-115288903D01*
X168042830Y-115189035D01*
X168236401Y-115053495D01*
X168403495Y-114886401D01*
X168533425Y-114700842D01*
X168588002Y-114657217D01*
X168657500Y-114650023D01*
X168719855Y-114681546D01*
X168736575Y-114700842D01*
X168866500Y-114886395D01*
X168866505Y-114886401D01*
X169033599Y-115053495D01*
X169130384Y-115121265D01*
X169227165Y-115189032D01*
X169227167Y-115189033D01*
X169227170Y-115189035D01*
X169441337Y-115288903D01*
X169669592Y-115350063D01*
X169857918Y-115366539D01*
X169904999Y-115370659D01*
X169905000Y-115370659D01*
X169905001Y-115370659D01*
X169944234Y-115367226D01*
X170140408Y-115350063D01*
X170368663Y-115288903D01*
X170582830Y-115189035D01*
X170776401Y-115053495D01*
X170943495Y-114886401D01*
X171073425Y-114700842D01*
X171128002Y-114657217D01*
X171197500Y-114650023D01*
X171259855Y-114681546D01*
X171276575Y-114700842D01*
X171406500Y-114886395D01*
X171406505Y-114886401D01*
X171573599Y-115053495D01*
X171670384Y-115121265D01*
X171767165Y-115189032D01*
X171767167Y-115189033D01*
X171767170Y-115189035D01*
X171981337Y-115288903D01*
X172209592Y-115350063D01*
X172397918Y-115366539D01*
X172444999Y-115370659D01*
X172445000Y-115370659D01*
X172445001Y-115370659D01*
X172484234Y-115367226D01*
X172680408Y-115350063D01*
X172908663Y-115288903D01*
X173122830Y-115189035D01*
X173316401Y-115053495D01*
X173483495Y-114886401D01*
X173613730Y-114700405D01*
X173668307Y-114656781D01*
X173737805Y-114649587D01*
X173800160Y-114681110D01*
X173816879Y-114700405D01*
X173946890Y-114886078D01*
X174113917Y-115053105D01*
X174307421Y-115188600D01*
X174521507Y-115288429D01*
X174521516Y-115288433D01*
X174735000Y-115345634D01*
X174735000Y-114450501D01*
X174842685Y-114499680D01*
X174949237Y-114515000D01*
X175020763Y-114515000D01*
X175127315Y-114499680D01*
X175235000Y-114450501D01*
X175235000Y-115345633D01*
X175448483Y-115288433D01*
X175448492Y-115288429D01*
X175662578Y-115188600D01*
X175856082Y-115053105D01*
X176023105Y-114886082D01*
X176153425Y-114699968D01*
X176208002Y-114656344D01*
X176277501Y-114649151D01*
X176339855Y-114680673D01*
X176356575Y-114699968D01*
X176486894Y-114886082D01*
X176653917Y-115053105D01*
X176847421Y-115188600D01*
X177061507Y-115288429D01*
X177061516Y-115288433D01*
X177275000Y-115345634D01*
X177275000Y-114450501D01*
X177382685Y-114499680D01*
X177489237Y-114515000D01*
X177560763Y-114515000D01*
X177667315Y-114499680D01*
X177775000Y-114450501D01*
X177775000Y-115345633D01*
X177988483Y-115288433D01*
X177988492Y-115288429D01*
X178202578Y-115188600D01*
X178396082Y-115053105D01*
X178563105Y-114886082D01*
X178698600Y-114692578D01*
X178798429Y-114478492D01*
X178798432Y-114478486D01*
X178855636Y-114265000D01*
X177958686Y-114265000D01*
X177984493Y-114224844D01*
X178025000Y-114086889D01*
X178025000Y-113943111D01*
X177984493Y-113805156D01*
X177958686Y-113765000D01*
X178855636Y-113765000D01*
X178855635Y-113764999D01*
X178798432Y-113551513D01*
X178798429Y-113551507D01*
X178698600Y-113337422D01*
X178698599Y-113337420D01*
X178563113Y-113143926D01*
X178563108Y-113143920D01*
X178441053Y-113021865D01*
X178407568Y-112960542D01*
X178412552Y-112890850D01*
X178454424Y-112834917D01*
X178485400Y-112818002D01*
X178617331Y-112768796D01*
X178732546Y-112682546D01*
X178818796Y-112567331D01*
X178869091Y-112432483D01*
X178875500Y-112372873D01*
X178875499Y-110577128D01*
X178869091Y-110517517D01*
X178867810Y-110514083D01*
X178818797Y-110382671D01*
X178818793Y-110382664D01*
X178732547Y-110267455D01*
X178732544Y-110267452D01*
X178617335Y-110181206D01*
X178617328Y-110181202D01*
X178482482Y-110130908D01*
X178482483Y-110130908D01*
X178422883Y-110124501D01*
X178422881Y-110124500D01*
X178422873Y-110124500D01*
X178422865Y-110124500D01*
X178403500Y-110124500D01*
X178336461Y-110104815D01*
X178290706Y-110052011D01*
X178279500Y-110000500D01*
X178279500Y-109888999D01*
X178280809Y-109871029D01*
X178281212Y-109868275D01*
X178284315Y-109847094D01*
X178279972Y-109797452D01*
X178279500Y-109786644D01*
X178279500Y-109781066D01*
X178279500Y-109781059D01*
X178275879Y-109750082D01*
X178275515Y-109746510D01*
X178268943Y-109671388D01*
X178268941Y-109671383D01*
X178267483Y-109664319D01*
X178267537Y-109664307D01*
X178265881Y-109656837D01*
X178265827Y-109656850D01*
X178264160Y-109649822D01*
X178264160Y-109649816D01*
X178238369Y-109578957D01*
X178237186Y-109575552D01*
X178213464Y-109503964D01*
X178213461Y-109503960D01*
X178210412Y-109497419D01*
X178210461Y-109497395D01*
X178207128Y-109490509D01*
X178207079Y-109490534D01*
X178203835Y-109484075D01*
X178162376Y-109421038D01*
X178160469Y-109418046D01*
X178120870Y-109353846D01*
X178120867Y-109353843D01*
X178116392Y-109348183D01*
X178116434Y-109348149D01*
X178111597Y-109342211D01*
X178111556Y-109342246D01*
X178106912Y-109336712D01*
X178052061Y-109284963D01*
X178049473Y-109282449D01*
X176478766Y-107711742D01*
X176466984Y-107698109D01*
X176461868Y-107691237D01*
X176452539Y-107678706D01*
X176452537Y-107678704D01*
X176452538Y-107678704D01*
X176414367Y-107646676D01*
X176406384Y-107639360D01*
X176402444Y-107635419D01*
X176377987Y-107616081D01*
X176375191Y-107613803D01*
X176317427Y-107565333D01*
X176311394Y-107561365D01*
X176311422Y-107561321D01*
X176304961Y-107557204D01*
X176304934Y-107557250D01*
X176298790Y-107553460D01*
X176230442Y-107521589D01*
X176227196Y-107520017D01*
X176159815Y-107486177D01*
X176153031Y-107483708D01*
X176153049Y-107483658D01*
X176145807Y-107481141D01*
X176145791Y-107481191D01*
X176138938Y-107478920D01*
X176065088Y-107463671D01*
X176061567Y-107462891D01*
X175988181Y-107445498D01*
X175981014Y-107444661D01*
X175981020Y-107444607D01*
X175973405Y-107443829D01*
X175973401Y-107443883D01*
X175966210Y-107443253D01*
X175890804Y-107445448D01*
X175887198Y-107445500D01*
X167798829Y-107445500D01*
X167731790Y-107425815D01*
X167686035Y-107373011D01*
X167676091Y-107303853D01*
X167682647Y-107278167D01*
X167694091Y-107247482D01*
X167694468Y-107243972D01*
X167700500Y-107187873D01*
X167700499Y-105492128D01*
X167694091Y-105432517D01*
X167687232Y-105414128D01*
X167643797Y-105297671D01*
X167643793Y-105297664D01*
X167557547Y-105182455D01*
X167557544Y-105182452D01*
X167442335Y-105096206D01*
X167442328Y-105096202D01*
X167307482Y-105045908D01*
X167307483Y-105045908D01*
X167272404Y-105042137D01*
X167207853Y-105015399D01*
X167168005Y-104958006D01*
X167165512Y-104888181D01*
X167201165Y-104828092D01*
X167214539Y-104817272D01*
X167239140Y-104800046D01*
X167400045Y-104639141D01*
X167400047Y-104639139D01*
X167530568Y-104452734D01*
X167626739Y-104246496D01*
X167685635Y-104026692D01*
X167686844Y-104012870D01*
X175249500Y-104012870D01*
X175249501Y-104012876D01*
X175255908Y-104072483D01*
X175306202Y-104207328D01*
X175306206Y-104207335D01*
X175392452Y-104322544D01*
X175392455Y-104322547D01*
X175507664Y-104408793D01*
X175507671Y-104408797D01*
X175642517Y-104459091D01*
X175642516Y-104459091D01*
X175649444Y-104459835D01*
X175702127Y-104465500D01*
X177497872Y-104465499D01*
X177557483Y-104459091D01*
X177692331Y-104408796D01*
X177807546Y-104322546D01*
X177893796Y-104207331D01*
X177944091Y-104072483D01*
X177950500Y-104012873D01*
X177950500Y-104012870D01*
X181299500Y-104012870D01*
X181299501Y-104012876D01*
X181305908Y-104072483D01*
X181356202Y-104207328D01*
X181356206Y-104207335D01*
X181442452Y-104322544D01*
X181442455Y-104322547D01*
X181557664Y-104408793D01*
X181557671Y-104408797D01*
X181692517Y-104459091D01*
X181692516Y-104459091D01*
X181699444Y-104459835D01*
X181752127Y-104465500D01*
X183547872Y-104465499D01*
X183607483Y-104459091D01*
X183742331Y-104408796D01*
X183857546Y-104322546D01*
X183943796Y-104207331D01*
X183994091Y-104072483D01*
X184000500Y-104012873D01*
X184000499Y-102217128D01*
X183994091Y-102157517D01*
X183972318Y-102099141D01*
X183943797Y-102022671D01*
X183943793Y-102022664D01*
X183857547Y-101907455D01*
X183857544Y-101907452D01*
X183742335Y-101821206D01*
X183742328Y-101821202D01*
X183607482Y-101770908D01*
X183607483Y-101770908D01*
X183547883Y-101764501D01*
X183547881Y-101764500D01*
X183547873Y-101764500D01*
X183547864Y-101764500D01*
X181752129Y-101764500D01*
X181752123Y-101764501D01*
X181692516Y-101770908D01*
X181557671Y-101821202D01*
X181557664Y-101821206D01*
X181442455Y-101907452D01*
X181442452Y-101907455D01*
X181356206Y-102022664D01*
X181356202Y-102022671D01*
X181305908Y-102157517D01*
X181299501Y-102217116D01*
X181299501Y-102217123D01*
X181299500Y-102217135D01*
X181299500Y-104012870D01*
X177950500Y-104012870D01*
X177950499Y-102217128D01*
X177944091Y-102157517D01*
X177922318Y-102099141D01*
X177893797Y-102022671D01*
X177893793Y-102022664D01*
X177807547Y-101907455D01*
X177807544Y-101907452D01*
X177692335Y-101821206D01*
X177692328Y-101821202D01*
X177557482Y-101770908D01*
X177557483Y-101770908D01*
X177497883Y-101764501D01*
X177497881Y-101764500D01*
X177497873Y-101764500D01*
X177497864Y-101764500D01*
X175702129Y-101764500D01*
X175702123Y-101764501D01*
X175642516Y-101770908D01*
X175507671Y-101821202D01*
X175507664Y-101821206D01*
X175392455Y-101907452D01*
X175392452Y-101907455D01*
X175306206Y-102022664D01*
X175306202Y-102022671D01*
X175255908Y-102157517D01*
X175249501Y-102217116D01*
X175249501Y-102217123D01*
X175249500Y-102217135D01*
X175249500Y-104012870D01*
X167686844Y-104012870D01*
X167705468Y-103800000D01*
X167705298Y-103798062D01*
X167689662Y-103619335D01*
X167685635Y-103573308D01*
X167626765Y-103353600D01*
X167626741Y-103353511D01*
X167626738Y-103353502D01*
X167530568Y-103147266D01*
X167400047Y-102960861D01*
X167400045Y-102960858D01*
X167239141Y-102799954D01*
X167052734Y-102669432D01*
X167052728Y-102669429D01*
X166994942Y-102642483D01*
X166994724Y-102642381D01*
X166942285Y-102596210D01*
X166923133Y-102529017D01*
X166943348Y-102462135D01*
X166994725Y-102417618D01*
X166995319Y-102417341D01*
X167052734Y-102390568D01*
X167239139Y-102260047D01*
X167400047Y-102099139D01*
X167530568Y-101912734D01*
X167626739Y-101706496D01*
X167685635Y-101486692D01*
X167705468Y-101260000D01*
X167685635Y-101033308D01*
X167626739Y-100813504D01*
X167530568Y-100607266D01*
X167400047Y-100420861D01*
X167400045Y-100420858D01*
X167239141Y-100259954D01*
X167052734Y-100129432D01*
X167052728Y-100129429D01*
X166994725Y-100102382D01*
X166942285Y-100056210D01*
X166923133Y-99989017D01*
X166943348Y-99922135D01*
X166994725Y-99877618D01*
X167052734Y-99850568D01*
X167239139Y-99720047D01*
X167400047Y-99559139D01*
X167530568Y-99372734D01*
X167626739Y-99166496D01*
X167685635Y-98946692D01*
X167705468Y-98720000D01*
X167685635Y-98493308D01*
X167626739Y-98273504D01*
X167530568Y-98067266D01*
X167400047Y-97880861D01*
X167400045Y-97880858D01*
X167239141Y-97719954D01*
X167052734Y-97589432D01*
X167052728Y-97589429D01*
X166994725Y-97562382D01*
X166942285Y-97516210D01*
X166923133Y-97449017D01*
X166943348Y-97382135D01*
X166994725Y-97337618D01*
X167052734Y-97310568D01*
X167239139Y-97180047D01*
X167400047Y-97019139D01*
X167530568Y-96832734D01*
X167626739Y-96626496D01*
X167685635Y-96406692D01*
X167705468Y-96180000D01*
X167685635Y-95953308D01*
X167626739Y-95733504D01*
X167530568Y-95527266D01*
X167400047Y-95340861D01*
X167400045Y-95340858D01*
X167239141Y-95179954D01*
X167052734Y-95049432D01*
X167052728Y-95049429D01*
X166994725Y-95022382D01*
X166942285Y-94976210D01*
X166923133Y-94909017D01*
X166943348Y-94842135D01*
X166994725Y-94797618D01*
X167052734Y-94770568D01*
X167239139Y-94640047D01*
X167400047Y-94479139D01*
X167530568Y-94292734D01*
X167626739Y-94086496D01*
X167685635Y-93866692D01*
X167705468Y-93640000D01*
X167685635Y-93413308D01*
X167626739Y-93193504D01*
X167530568Y-92987266D01*
X167400047Y-92800861D01*
X167400045Y-92800858D01*
X167239141Y-92639954D01*
X167052734Y-92509432D01*
X167052728Y-92509429D01*
X166994725Y-92482382D01*
X166942285Y-92436210D01*
X166923133Y-92369017D01*
X166943348Y-92302135D01*
X166994725Y-92257618D01*
X167052734Y-92230568D01*
X167239139Y-92100047D01*
X167400047Y-91939139D01*
X167530568Y-91752734D01*
X167626739Y-91546496D01*
X167685635Y-91326692D01*
X167705468Y-91100000D01*
X167685635Y-90873308D01*
X167626739Y-90653504D01*
X167530568Y-90447266D01*
X167400047Y-90260861D01*
X167400045Y-90260858D01*
X167239141Y-90099954D01*
X167052734Y-89969432D01*
X167052728Y-89969429D01*
X166994725Y-89942382D01*
X166942285Y-89896210D01*
X166923133Y-89829017D01*
X166943348Y-89762135D01*
X166994725Y-89717618D01*
X167052734Y-89690568D01*
X167239139Y-89560047D01*
X167400047Y-89399139D01*
X167530568Y-89212734D01*
X167626739Y-89006496D01*
X167685635Y-88786692D01*
X167705468Y-88560000D01*
X167685635Y-88333308D01*
X167628656Y-88120659D01*
X167626741Y-88113511D01*
X167626738Y-88113502D01*
X167612189Y-88082302D01*
X167530568Y-87907266D01*
X167400047Y-87720861D01*
X167400045Y-87720858D01*
X167239141Y-87559954D01*
X167052734Y-87429432D01*
X167052732Y-87429431D01*
X166846497Y-87333261D01*
X166846488Y-87333258D01*
X166626697Y-87274366D01*
X166626693Y-87274365D01*
X166626692Y-87274365D01*
X166626691Y-87274364D01*
X166626686Y-87274364D01*
X166400002Y-87254532D01*
X166399998Y-87254532D01*
X166173313Y-87274364D01*
X166173302Y-87274366D01*
X165953511Y-87333258D01*
X165953502Y-87333261D01*
X165747267Y-87429431D01*
X165747265Y-87429432D01*
X165560858Y-87559954D01*
X165399954Y-87720858D01*
X165269432Y-87907265D01*
X165269431Y-87907267D01*
X165173261Y-88113502D01*
X165173258Y-88113511D01*
X165114366Y-88333302D01*
X165114364Y-88333313D01*
X165094532Y-88559998D01*
X165094532Y-88560001D01*
X165114364Y-88786686D01*
X165114366Y-88786697D01*
X165173258Y-89006486D01*
X165173261Y-89006497D01*
X165269431Y-89212732D01*
X165269432Y-89212734D01*
X165399954Y-89399141D01*
X165560858Y-89560045D01*
X165560861Y-89560047D01*
X165747266Y-89690568D01*
X165805275Y-89717618D01*
X165857714Y-89763791D01*
X165876866Y-89830984D01*
X165856650Y-89897865D01*
X165805275Y-89942382D01*
X165747267Y-89969431D01*
X165747265Y-89969432D01*
X165560858Y-90099954D01*
X165399954Y-90260858D01*
X165269432Y-90447265D01*
X165269431Y-90447267D01*
X165173261Y-90653502D01*
X165173258Y-90653511D01*
X165114366Y-90873302D01*
X165114364Y-90873313D01*
X165094532Y-91099998D01*
X165094532Y-91100001D01*
X165114364Y-91326686D01*
X165114366Y-91326697D01*
X165173258Y-91546488D01*
X165173261Y-91546497D01*
X165269431Y-91752732D01*
X165269432Y-91752734D01*
X165399954Y-91939141D01*
X165560858Y-92100045D01*
X165560861Y-92100047D01*
X165747266Y-92230568D01*
X165805275Y-92257618D01*
X165857714Y-92303791D01*
X165876866Y-92370984D01*
X165856650Y-92437865D01*
X165805275Y-92482382D01*
X165747267Y-92509431D01*
X165747265Y-92509432D01*
X165560858Y-92639954D01*
X165399954Y-92800858D01*
X165269432Y-92987265D01*
X165269431Y-92987267D01*
X165173261Y-93193502D01*
X165173258Y-93193511D01*
X165114366Y-93413302D01*
X165114364Y-93413313D01*
X165094532Y-93639998D01*
X165094532Y-93640001D01*
X165114364Y-93866686D01*
X165114366Y-93866697D01*
X165173258Y-94086488D01*
X165173261Y-94086497D01*
X165269431Y-94292732D01*
X165269432Y-94292734D01*
X165399954Y-94479141D01*
X165560858Y-94640045D01*
X165560861Y-94640047D01*
X165747266Y-94770568D01*
X165805275Y-94797618D01*
X165857714Y-94843791D01*
X165876866Y-94910984D01*
X165856650Y-94977865D01*
X165805275Y-95022382D01*
X165747267Y-95049431D01*
X165747265Y-95049432D01*
X165560858Y-95179954D01*
X165399954Y-95340858D01*
X165269432Y-95527265D01*
X165269431Y-95527267D01*
X165173261Y-95733502D01*
X165173258Y-95733511D01*
X165114366Y-95953302D01*
X165114364Y-95953313D01*
X165094532Y-96179998D01*
X165094532Y-96180001D01*
X165114364Y-96406686D01*
X165114366Y-96406697D01*
X165173258Y-96626488D01*
X165173261Y-96626497D01*
X165269431Y-96832732D01*
X165269432Y-96832734D01*
X165399954Y-97019141D01*
X165560858Y-97180045D01*
X165560861Y-97180047D01*
X165747266Y-97310568D01*
X165805275Y-97337618D01*
X165857714Y-97383791D01*
X165876866Y-97450984D01*
X165856650Y-97517865D01*
X165805275Y-97562382D01*
X165747267Y-97589431D01*
X165747265Y-97589432D01*
X165560858Y-97719954D01*
X165399954Y-97880858D01*
X165269432Y-98067265D01*
X165269431Y-98067267D01*
X165173261Y-98273502D01*
X165173258Y-98273511D01*
X165114366Y-98493302D01*
X165114364Y-98493313D01*
X165094532Y-98719998D01*
X165094532Y-98720001D01*
X165114364Y-98946686D01*
X165114366Y-98946697D01*
X165173258Y-99166488D01*
X165173261Y-99166497D01*
X165269431Y-99372732D01*
X165269432Y-99372734D01*
X165399954Y-99559141D01*
X165560858Y-99720045D01*
X165560861Y-99720047D01*
X165747266Y-99850568D01*
X165805275Y-99877618D01*
X165857714Y-99923791D01*
X165876866Y-99990984D01*
X165856650Y-100057865D01*
X165805275Y-100102382D01*
X165747267Y-100129431D01*
X165747265Y-100129432D01*
X165560858Y-100259954D01*
X165399954Y-100420858D01*
X165269432Y-100607265D01*
X165269431Y-100607267D01*
X165173261Y-100813502D01*
X165173258Y-100813511D01*
X165114366Y-101033302D01*
X165114364Y-101033313D01*
X165094532Y-101259998D01*
X165094532Y-101260001D01*
X165114364Y-101486686D01*
X165114366Y-101486697D01*
X165173258Y-101706488D01*
X165173261Y-101706497D01*
X165269431Y-101912732D01*
X165269432Y-101912734D01*
X165399954Y-102099141D01*
X165560858Y-102260045D01*
X165560861Y-102260047D01*
X165747266Y-102390568D01*
X165804681Y-102417341D01*
X165805275Y-102417618D01*
X165857714Y-102463791D01*
X165876866Y-102530984D01*
X165856650Y-102597865D01*
X165805275Y-102642381D01*
X165805058Y-102642483D01*
X165747267Y-102669431D01*
X165747265Y-102669432D01*
X165560858Y-102799954D01*
X165399954Y-102960858D01*
X165269432Y-103147265D01*
X165269431Y-103147267D01*
X165173261Y-103353502D01*
X165173258Y-103353511D01*
X165114366Y-103573302D01*
X165114364Y-103573313D01*
X165094532Y-103799998D01*
X165094532Y-103800001D01*
X165114364Y-104026686D01*
X165114366Y-104026697D01*
X165173258Y-104246488D01*
X165173261Y-104246497D01*
X165269431Y-104452732D01*
X165269432Y-104452734D01*
X165399954Y-104639141D01*
X165560858Y-104800045D01*
X165585462Y-104817273D01*
X165629087Y-104871849D01*
X165636281Y-104941348D01*
X165604758Y-105003703D01*
X165544529Y-105039117D01*
X165527593Y-105042138D01*
X165492516Y-105045908D01*
X165357671Y-105096202D01*
X165357664Y-105096206D01*
X165242455Y-105182452D01*
X165242452Y-105182455D01*
X165156206Y-105297664D01*
X165156202Y-105297671D01*
X165105908Y-105432517D01*
X165102325Y-105465848D01*
X165099501Y-105492123D01*
X165099500Y-105492135D01*
X165099500Y-106342508D01*
X165079815Y-106409547D01*
X165063181Y-106430189D01*
X163161190Y-108332181D01*
X163099867Y-108365666D01*
X163073509Y-108368500D01*
X162529460Y-108368500D01*
X162462421Y-108348815D01*
X162416666Y-108296011D01*
X162408019Y-108256265D01*
X162406139Y-108256463D01*
X162405460Y-108250000D01*
X162385674Y-108061744D01*
X162355153Y-107967814D01*
X162353159Y-107897975D01*
X162385402Y-107841818D01*
X163045913Y-107181308D01*
X163107234Y-107147825D01*
X163107557Y-107147755D01*
X163279803Y-107111144D01*
X163452730Y-107034151D01*
X163605871Y-106922888D01*
X163732533Y-106782216D01*
X163827179Y-106618284D01*
X163885674Y-106438256D01*
X163905460Y-106250000D01*
X163885674Y-106061744D01*
X163827179Y-105881716D01*
X163732533Y-105717784D01*
X163605871Y-105577112D01*
X163582405Y-105560063D01*
X163452734Y-105465851D01*
X163452729Y-105465848D01*
X163279807Y-105388857D01*
X163279802Y-105388855D01*
X163134001Y-105357865D01*
X163094646Y-105349500D01*
X162905354Y-105349500D01*
X162872897Y-105356398D01*
X162720197Y-105388855D01*
X162720192Y-105388857D01*
X162547270Y-105465848D01*
X162547265Y-105465851D01*
X162394129Y-105577111D01*
X162267466Y-105717785D01*
X162172821Y-105881715D01*
X162172818Y-105881722D01*
X162130372Y-106012359D01*
X162114326Y-106061744D01*
X162110100Y-106101955D01*
X162107558Y-106126140D01*
X162080973Y-106190754D01*
X162071918Y-106200858D01*
X161028804Y-107243972D01*
X161023352Y-107249104D01*
X160978986Y-107288410D01*
X160978976Y-107288421D01*
X160945298Y-107337212D01*
X160940861Y-107343243D01*
X160904312Y-107389894D01*
X160904311Y-107389896D01*
X160900271Y-107398873D01*
X160889253Y-107418408D01*
X160883655Y-107426519D01*
X160862632Y-107481949D01*
X160859768Y-107488865D01*
X160835442Y-107542916D01*
X160833666Y-107552606D01*
X160827645Y-107574203D01*
X160824152Y-107583414D01*
X160818852Y-107627060D01*
X160791228Y-107691237D01*
X160787909Y-107695079D01*
X160767468Y-107717782D01*
X160767464Y-107717787D01*
X160672821Y-107881715D01*
X160672818Y-107881722D01*
X160644845Y-107967816D01*
X160614326Y-108061744D01*
X160594540Y-108250000D01*
X160593861Y-108256463D01*
X160591112Y-108256174D01*
X160574855Y-108311539D01*
X160522051Y-108357294D01*
X160470540Y-108368500D01*
X157897084Y-108368500D01*
X157830045Y-108348815D01*
X157809403Y-108332181D01*
X153277223Y-103800001D01*
X157474532Y-103800001D01*
X157494364Y-104026686D01*
X157494366Y-104026697D01*
X157553258Y-104246488D01*
X157553261Y-104246497D01*
X157649431Y-104452732D01*
X157649432Y-104452734D01*
X157779954Y-104639141D01*
X157940858Y-104800045D01*
X157980914Y-104828092D01*
X158127266Y-104930568D01*
X158185865Y-104957893D01*
X158238305Y-105004065D01*
X158257457Y-105071258D01*
X158237242Y-105138139D01*
X158185867Y-105182657D01*
X158127515Y-105209867D01*
X157941179Y-105340342D01*
X157780342Y-105501179D01*
X157649865Y-105687517D01*
X157553734Y-105893673D01*
X157553730Y-105893682D01*
X157501127Y-106089999D01*
X157501128Y-106090000D01*
X158464314Y-106090000D01*
X158452359Y-106101955D01*
X158394835Y-106214852D01*
X158375014Y-106340000D01*
X158394835Y-106465148D01*
X158452359Y-106578045D01*
X158464314Y-106590000D01*
X157501128Y-106590000D01*
X157553730Y-106786317D01*
X157553734Y-106786326D01*
X157649865Y-106992482D01*
X157780342Y-107178820D01*
X157941179Y-107339657D01*
X158127517Y-107470134D01*
X158333673Y-107566265D01*
X158333682Y-107566269D01*
X158529999Y-107618872D01*
X158530000Y-107618871D01*
X158530000Y-106655686D01*
X158541955Y-106667641D01*
X158654852Y-106725165D01*
X158748519Y-106740000D01*
X158811481Y-106740000D01*
X158905148Y-106725165D01*
X159018045Y-106667641D01*
X159030000Y-106655686D01*
X159030000Y-107618872D01*
X159226317Y-107566269D01*
X159226326Y-107566265D01*
X159432482Y-107470134D01*
X159618820Y-107339657D01*
X159779657Y-107178820D01*
X159910134Y-106992482D01*
X160006265Y-106786326D01*
X160006269Y-106786317D01*
X160058872Y-106590000D01*
X159095686Y-106590000D01*
X159107641Y-106578045D01*
X159165165Y-106465148D01*
X159184986Y-106340000D01*
X159165165Y-106214852D01*
X159107641Y-106101955D01*
X159095686Y-106090000D01*
X160058872Y-106090000D01*
X160058872Y-106089999D01*
X160006269Y-105893682D01*
X160006265Y-105893673D01*
X159910134Y-105687517D01*
X159779657Y-105501179D01*
X159618820Y-105340342D01*
X159432482Y-105209865D01*
X159374133Y-105182657D01*
X159321694Y-105136484D01*
X159302542Y-105069291D01*
X159322758Y-105002410D01*
X159374129Y-104957895D01*
X159432734Y-104930568D01*
X159619139Y-104800047D01*
X159780047Y-104639139D01*
X159910568Y-104452734D01*
X160006739Y-104246496D01*
X160065635Y-104026692D01*
X160085468Y-103800000D01*
X160085298Y-103798062D01*
X160069662Y-103619335D01*
X160065635Y-103573308D01*
X160006765Y-103353600D01*
X160006741Y-103353511D01*
X160006738Y-103353502D01*
X159910568Y-103147266D01*
X159780047Y-102960861D01*
X159780045Y-102960858D01*
X159619141Y-102799954D01*
X159432734Y-102669432D01*
X159432732Y-102669431D01*
X159383550Y-102646497D01*
X159374132Y-102642105D01*
X159321694Y-102595934D01*
X159302542Y-102528740D01*
X159322758Y-102461859D01*
X159374134Y-102417341D01*
X159432484Y-102390132D01*
X159618820Y-102259657D01*
X159779657Y-102098820D01*
X159910134Y-101912482D01*
X160006265Y-101706326D01*
X160006269Y-101706317D01*
X160058872Y-101510000D01*
X159095686Y-101510000D01*
X159107641Y-101498045D01*
X159165165Y-101385148D01*
X159184986Y-101260000D01*
X159165165Y-101134852D01*
X159107641Y-101021955D01*
X159095686Y-101010000D01*
X160058872Y-101010000D01*
X160058872Y-101009999D01*
X160006269Y-100813682D01*
X160006265Y-100813673D01*
X159910134Y-100607517D01*
X159779657Y-100421179D01*
X159618820Y-100260342D01*
X159432482Y-100129865D01*
X159374133Y-100102657D01*
X159321694Y-100056484D01*
X159302542Y-99989291D01*
X159322758Y-99922410D01*
X159374129Y-99877895D01*
X159432734Y-99850568D01*
X159619139Y-99720047D01*
X159780047Y-99559139D01*
X159910568Y-99372734D01*
X160006739Y-99166496D01*
X160065635Y-98946692D01*
X160085468Y-98720000D01*
X160065635Y-98493308D01*
X160006739Y-98273504D01*
X159910568Y-98067266D01*
X159780047Y-97880861D01*
X159780045Y-97880858D01*
X159619141Y-97719954D01*
X159432734Y-97589432D01*
X159432728Y-97589429D01*
X159374725Y-97562382D01*
X159322285Y-97516210D01*
X159303133Y-97449017D01*
X159323348Y-97382135D01*
X159374725Y-97337618D01*
X159432734Y-97310568D01*
X159619139Y-97180047D01*
X159780047Y-97019139D01*
X159910568Y-96832734D01*
X160006739Y-96626496D01*
X160065635Y-96406692D01*
X160085468Y-96180000D01*
X160065635Y-95953308D01*
X160006739Y-95733504D01*
X159910568Y-95527266D01*
X159780047Y-95340861D01*
X159780045Y-95340858D01*
X159619141Y-95179954D01*
X159432734Y-95049432D01*
X159432728Y-95049429D01*
X159374725Y-95022382D01*
X159322285Y-94976210D01*
X159303133Y-94909017D01*
X159323348Y-94842135D01*
X159374725Y-94797618D01*
X159432734Y-94770568D01*
X159619139Y-94640047D01*
X159780047Y-94479139D01*
X159910568Y-94292734D01*
X160006739Y-94086496D01*
X160065635Y-93866692D01*
X160085468Y-93640000D01*
X160065635Y-93413308D01*
X160006739Y-93193504D01*
X159910568Y-92987266D01*
X159780047Y-92800861D01*
X159780045Y-92800858D01*
X159619141Y-92639954D01*
X159432734Y-92509432D01*
X159432728Y-92509429D01*
X159374725Y-92482382D01*
X159322285Y-92436210D01*
X159303133Y-92369017D01*
X159323348Y-92302135D01*
X159374725Y-92257618D01*
X159432734Y-92230568D01*
X159619139Y-92100047D01*
X159780047Y-91939139D01*
X159910568Y-91752734D01*
X160006739Y-91546496D01*
X160065635Y-91326692D01*
X160085468Y-91100000D01*
X160065635Y-90873308D01*
X160006739Y-90653504D01*
X159910568Y-90447266D01*
X159780047Y-90260861D01*
X159780045Y-90260858D01*
X159619141Y-90099954D01*
X159432734Y-89969432D01*
X159432728Y-89969429D01*
X159374725Y-89942382D01*
X159322285Y-89896210D01*
X159303133Y-89829017D01*
X159323348Y-89762135D01*
X159374725Y-89717618D01*
X159432734Y-89690568D01*
X159619139Y-89560047D01*
X159780047Y-89399139D01*
X159910568Y-89212734D01*
X160006739Y-89006496D01*
X160065635Y-88786692D01*
X160085468Y-88560000D01*
X160065635Y-88333308D01*
X160008656Y-88120659D01*
X160006741Y-88113511D01*
X160006738Y-88113502D01*
X159992189Y-88082302D01*
X159910568Y-87907266D01*
X159780047Y-87720861D01*
X159780045Y-87720858D01*
X159619141Y-87559954D01*
X159432734Y-87429432D01*
X159432732Y-87429431D01*
X159226497Y-87333261D01*
X159226488Y-87333258D01*
X159006697Y-87274366D01*
X159006693Y-87274365D01*
X159006692Y-87274365D01*
X159006691Y-87274364D01*
X159006686Y-87274364D01*
X158780002Y-87254532D01*
X158779998Y-87254532D01*
X158553313Y-87274364D01*
X158553302Y-87274366D01*
X158333511Y-87333258D01*
X158333502Y-87333261D01*
X158127267Y-87429431D01*
X158127265Y-87429432D01*
X157940858Y-87559954D01*
X157779954Y-87720858D01*
X157649432Y-87907265D01*
X157649431Y-87907267D01*
X157553261Y-88113502D01*
X157553258Y-88113511D01*
X157494366Y-88333302D01*
X157494364Y-88333313D01*
X157474532Y-88559998D01*
X157474532Y-88560001D01*
X157494364Y-88786686D01*
X157494366Y-88786697D01*
X157553258Y-89006486D01*
X157553261Y-89006497D01*
X157649431Y-89212732D01*
X157649432Y-89212734D01*
X157779954Y-89399141D01*
X157940858Y-89560045D01*
X157940861Y-89560047D01*
X158127266Y-89690568D01*
X158185275Y-89717618D01*
X158237714Y-89763791D01*
X158256866Y-89830984D01*
X158236650Y-89897865D01*
X158185275Y-89942382D01*
X158127267Y-89969431D01*
X158127265Y-89969432D01*
X157940858Y-90099954D01*
X157779954Y-90260858D01*
X157649432Y-90447265D01*
X157649431Y-90447267D01*
X157553261Y-90653502D01*
X157553258Y-90653511D01*
X157494366Y-90873302D01*
X157494364Y-90873313D01*
X157474532Y-91099998D01*
X157474532Y-91100001D01*
X157494364Y-91326686D01*
X157494366Y-91326697D01*
X157553258Y-91546488D01*
X157553261Y-91546497D01*
X157649431Y-91752732D01*
X157649432Y-91752734D01*
X157779954Y-91939141D01*
X157940858Y-92100045D01*
X157940861Y-92100047D01*
X158127266Y-92230568D01*
X158185275Y-92257618D01*
X158237714Y-92303791D01*
X158256866Y-92370984D01*
X158236650Y-92437865D01*
X158185275Y-92482382D01*
X158127267Y-92509431D01*
X158127265Y-92509432D01*
X157940858Y-92639954D01*
X157779954Y-92800858D01*
X157649432Y-92987265D01*
X157649431Y-92987267D01*
X157553261Y-93193502D01*
X157553258Y-93193511D01*
X157494366Y-93413302D01*
X157494364Y-93413313D01*
X157474532Y-93639998D01*
X157474532Y-93640001D01*
X157494364Y-93866686D01*
X157494366Y-93866697D01*
X157553258Y-94086488D01*
X157553261Y-94086497D01*
X157649431Y-94292732D01*
X157649432Y-94292734D01*
X157779954Y-94479141D01*
X157940858Y-94640045D01*
X157940861Y-94640047D01*
X158127266Y-94770568D01*
X158185275Y-94797618D01*
X158237714Y-94843791D01*
X158256866Y-94910984D01*
X158236650Y-94977865D01*
X158185275Y-95022382D01*
X158127267Y-95049431D01*
X158127265Y-95049432D01*
X157940858Y-95179954D01*
X157779954Y-95340858D01*
X157649432Y-95527265D01*
X157649431Y-95527267D01*
X157553261Y-95733502D01*
X157553258Y-95733511D01*
X157494366Y-95953302D01*
X157494364Y-95953313D01*
X157474532Y-96179998D01*
X157474532Y-96180001D01*
X157494364Y-96406686D01*
X157494366Y-96406697D01*
X157553258Y-96626488D01*
X157553261Y-96626497D01*
X157649431Y-96832732D01*
X157649432Y-96832734D01*
X157779954Y-97019141D01*
X157940858Y-97180045D01*
X157940861Y-97180047D01*
X158127266Y-97310568D01*
X158185275Y-97337618D01*
X158237714Y-97383791D01*
X158256866Y-97450984D01*
X158236650Y-97517865D01*
X158185275Y-97562382D01*
X158127267Y-97589431D01*
X158127265Y-97589432D01*
X157940858Y-97719954D01*
X157779954Y-97880858D01*
X157649432Y-98067265D01*
X157649431Y-98067267D01*
X157553261Y-98273502D01*
X157553258Y-98273511D01*
X157494366Y-98493302D01*
X157494364Y-98493313D01*
X157474532Y-98719998D01*
X157474532Y-98720001D01*
X157494364Y-98946686D01*
X157494366Y-98946697D01*
X157553258Y-99166488D01*
X157553261Y-99166497D01*
X157649431Y-99372732D01*
X157649432Y-99372734D01*
X157779954Y-99559141D01*
X157940858Y-99720045D01*
X157940861Y-99720047D01*
X158127266Y-99850568D01*
X158185865Y-99877893D01*
X158238305Y-99924065D01*
X158257457Y-99991258D01*
X158237242Y-100058139D01*
X158185867Y-100102657D01*
X158127515Y-100129867D01*
X157941179Y-100260342D01*
X157780342Y-100421179D01*
X157649865Y-100607517D01*
X157553734Y-100813673D01*
X157553730Y-100813682D01*
X157501127Y-101009999D01*
X157501128Y-101010000D01*
X158464314Y-101010000D01*
X158452359Y-101021955D01*
X158394835Y-101134852D01*
X158375014Y-101260000D01*
X158394835Y-101385148D01*
X158452359Y-101498045D01*
X158464314Y-101510000D01*
X157501128Y-101510000D01*
X157553730Y-101706317D01*
X157553734Y-101706326D01*
X157649865Y-101912482D01*
X157780342Y-102098820D01*
X157941179Y-102259657D01*
X158127518Y-102390134D01*
X158127520Y-102390135D01*
X158185865Y-102417342D01*
X158238305Y-102463514D01*
X158257457Y-102530707D01*
X158237242Y-102597589D01*
X158185867Y-102642105D01*
X158127268Y-102669431D01*
X158127264Y-102669433D01*
X157940858Y-102799954D01*
X157779954Y-102960858D01*
X157649432Y-103147265D01*
X157649431Y-103147267D01*
X157553261Y-103353502D01*
X157553258Y-103353511D01*
X157494366Y-103573302D01*
X157494364Y-103573313D01*
X157474532Y-103799998D01*
X157474532Y-103800001D01*
X153277223Y-103800001D01*
X148428081Y-98950859D01*
X148394596Y-98889536D01*
X148392441Y-98876137D01*
X148386585Y-98820413D01*
X148385674Y-98811744D01*
X148327179Y-98631716D01*
X148232533Y-98467784D01*
X148105871Y-98327112D01*
X148105870Y-98327111D01*
X147952734Y-98215851D01*
X147952729Y-98215848D01*
X147779807Y-98138857D01*
X147779802Y-98138855D01*
X147634001Y-98107865D01*
X147594646Y-98099500D01*
X147405354Y-98099500D01*
X147372897Y-98106398D01*
X147220197Y-98138855D01*
X147220192Y-98138857D01*
X147047270Y-98215848D01*
X147047265Y-98215851D01*
X146894129Y-98327111D01*
X146767466Y-98467785D01*
X146672821Y-98631715D01*
X146672818Y-98631722D01*
X146644135Y-98720001D01*
X146614326Y-98811744D01*
X146594540Y-99000000D01*
X146614326Y-99188256D01*
X146614327Y-99188259D01*
X146672818Y-99368277D01*
X146672821Y-99368284D01*
X146767467Y-99532216D01*
X146879567Y-99656715D01*
X146894129Y-99672888D01*
X147047265Y-99784148D01*
X147047270Y-99784151D01*
X147220192Y-99861142D01*
X147220193Y-99861142D01*
X147220197Y-99861144D01*
X147392187Y-99897701D01*
X147453669Y-99930893D01*
X147454088Y-99931310D01*
X155679597Y-108156819D01*
X155713082Y-108218142D01*
X155708098Y-108287834D01*
X155666226Y-108343767D01*
X155600762Y-108368184D01*
X155591916Y-108368500D01*
X124366491Y-108368500D01*
X124299452Y-108348815D01*
X124278810Y-108332181D01*
X123820808Y-107874179D01*
X123787323Y-107812856D01*
X123792307Y-107743164D01*
X123834179Y-107687231D01*
X123899643Y-107662814D01*
X123908489Y-107662498D01*
X125022868Y-107662498D01*
X125022869Y-107662498D01*
X125082480Y-107656090D01*
X125217328Y-107605795D01*
X125332543Y-107519545D01*
X125418793Y-107404330D01*
X125469088Y-107269482D01*
X125475497Y-107209872D01*
X125475496Y-105414127D01*
X125469088Y-105354516D01*
X125467217Y-105349500D01*
X125418794Y-105219670D01*
X125418790Y-105219663D01*
X125332544Y-105104454D01*
X125332541Y-105104451D01*
X125217332Y-105018205D01*
X125217325Y-105018201D01*
X125085914Y-104969188D01*
X125029980Y-104927317D01*
X125005563Y-104861852D01*
X125020415Y-104793579D01*
X125041560Y-104765331D01*
X125163492Y-104643400D01*
X125299032Y-104449829D01*
X125398900Y-104235662D01*
X125460060Y-104007407D01*
X125480656Y-103771999D01*
X125480363Y-103768655D01*
X125476536Y-103724917D01*
X125460060Y-103536591D01*
X125398900Y-103308336D01*
X125299032Y-103094170D01*
X125264411Y-103044725D01*
X125163491Y-102900596D01*
X124996399Y-102733505D01*
X124996398Y-102733504D01*
X124950082Y-102701073D01*
X124906459Y-102646497D01*
X124899266Y-102576998D01*
X124930788Y-102514644D01*
X124991018Y-102479230D01*
X125019565Y-102475701D01*
X125019564Y-102475676D01*
X125019935Y-102475656D01*
X125021207Y-102475499D01*
X125022871Y-102475499D01*
X125022872Y-102475499D01*
X125082483Y-102469091D01*
X125217331Y-102418796D01*
X125332546Y-102332546D01*
X125418796Y-102217331D01*
X125469091Y-102082483D01*
X125475500Y-102022873D01*
X125475499Y-100227128D01*
X125469091Y-100167517D01*
X125455048Y-100129867D01*
X125418797Y-100032671D01*
X125418793Y-100032664D01*
X125413056Y-100025000D01*
X135819540Y-100025000D01*
X135839326Y-100213256D01*
X135839327Y-100213259D01*
X135897818Y-100393277D01*
X135897821Y-100393284D01*
X135992467Y-100557216D01*
X136119129Y-100697888D01*
X136272265Y-100809148D01*
X136272270Y-100809151D01*
X136445191Y-100886142D01*
X136445193Y-100886142D01*
X136445197Y-100886144D01*
X136503148Y-100898461D01*
X136564627Y-100931653D01*
X136565046Y-100932070D01*
X139551675Y-103918699D01*
X139585160Y-103980022D01*
X139587522Y-104017187D01*
X139569341Y-104224997D01*
X139569341Y-104225000D01*
X139589936Y-104460403D01*
X139589938Y-104460413D01*
X139651094Y-104688655D01*
X139651096Y-104688659D01*
X139651097Y-104688663D01*
X139707908Y-104810494D01*
X139750965Y-104902830D01*
X139750967Y-104902834D01*
X139837727Y-105026739D01*
X139886505Y-105096401D01*
X140053599Y-105263495D01*
X140150384Y-105331265D01*
X140247165Y-105399032D01*
X140247167Y-105399033D01*
X140247170Y-105399035D01*
X140461337Y-105498903D01*
X140689592Y-105560063D01*
X140877918Y-105576539D01*
X140924999Y-105580659D01*
X140925000Y-105580659D01*
X140925001Y-105580659D01*
X140965553Y-105577111D01*
X141160408Y-105560063D01*
X141388663Y-105498903D01*
X141602830Y-105399035D01*
X141796401Y-105263495D01*
X141963495Y-105096401D01*
X142099035Y-104902830D01*
X142198903Y-104688663D01*
X142260063Y-104460408D01*
X142280659Y-104225000D01*
X142279113Y-104207335D01*
X142265392Y-104050499D01*
X142260063Y-103989592D01*
X142198903Y-103761337D01*
X142099035Y-103547171D01*
X142032953Y-103452796D01*
X141963496Y-103353600D01*
X141918230Y-103308334D01*
X141841567Y-103231671D01*
X141808084Y-103170351D01*
X141813068Y-103100659D01*
X141854939Y-103044725D01*
X141885915Y-103027810D01*
X142017331Y-102978796D01*
X142132546Y-102892546D01*
X142218796Y-102777331D01*
X142269091Y-102642483D01*
X142275500Y-102582873D01*
X142275499Y-100787128D01*
X142269091Y-100727517D01*
X142224240Y-100607266D01*
X142218797Y-100592671D01*
X142218793Y-100592664D01*
X142132547Y-100477455D01*
X142132544Y-100477452D01*
X142017335Y-100391206D01*
X142017328Y-100391202D01*
X141882482Y-100340908D01*
X141882483Y-100340908D01*
X141822883Y-100334501D01*
X141822881Y-100334500D01*
X141822873Y-100334500D01*
X141822864Y-100334500D01*
X140027129Y-100334500D01*
X140027123Y-100334501D01*
X139967516Y-100340908D01*
X139832671Y-100391202D01*
X139832664Y-100391206D01*
X139717455Y-100477452D01*
X139717452Y-100477455D01*
X139631206Y-100592664D01*
X139631202Y-100592671D01*
X139580908Y-100727517D01*
X139574501Y-100787116D01*
X139574501Y-100787123D01*
X139574500Y-100787135D01*
X139574500Y-101508114D01*
X139554815Y-101575153D01*
X139502011Y-101620908D01*
X139432853Y-101630852D01*
X139369297Y-101601827D01*
X139362819Y-101595795D01*
X137635048Y-99868024D01*
X137604798Y-99818661D01*
X137590449Y-99774500D01*
X137552179Y-99656716D01*
X137457533Y-99492784D01*
X137330871Y-99352112D01*
X137330870Y-99352111D01*
X137177734Y-99240851D01*
X137177729Y-99240848D01*
X137004807Y-99163857D01*
X137004802Y-99163855D01*
X136859001Y-99132865D01*
X136819646Y-99124500D01*
X136630354Y-99124500D01*
X136597897Y-99131398D01*
X136445197Y-99163855D01*
X136445192Y-99163857D01*
X136272270Y-99240848D01*
X136272265Y-99240851D01*
X136119129Y-99352111D01*
X135992466Y-99492785D01*
X135897821Y-99656715D01*
X135897818Y-99656722D01*
X135841126Y-99831203D01*
X135839326Y-99836744D01*
X135819540Y-100025000D01*
X125413056Y-100025000D01*
X125332547Y-99917455D01*
X125332544Y-99917452D01*
X125217335Y-99831206D01*
X125217328Y-99831202D01*
X125085917Y-99782189D01*
X125029983Y-99740318D01*
X125005566Y-99674853D01*
X125020418Y-99606580D01*
X125041563Y-99578332D01*
X125163495Y-99456401D01*
X125299035Y-99262830D01*
X125398903Y-99048663D01*
X125460063Y-98820408D01*
X125480659Y-98585000D01*
X125460063Y-98349592D01*
X125398903Y-98121337D01*
X125299035Y-97907171D01*
X125167945Y-97719953D01*
X125163494Y-97713597D01*
X124996402Y-97546506D01*
X124996396Y-97546501D01*
X124810842Y-97416575D01*
X124767217Y-97361998D01*
X124760023Y-97292500D01*
X124791546Y-97230145D01*
X124810842Y-97213425D01*
X124833026Y-97197891D01*
X124996401Y-97083495D01*
X125163495Y-96916401D01*
X125299035Y-96722830D01*
X125398903Y-96508663D01*
X125460063Y-96280408D01*
X125480659Y-96045000D01*
X125460063Y-95809592D01*
X125398903Y-95581337D01*
X125299035Y-95367171D01*
X125167945Y-95179953D01*
X125163494Y-95173597D01*
X124996402Y-95006506D01*
X124996395Y-95006501D01*
X124802834Y-94870967D01*
X124802830Y-94870965D01*
X124741004Y-94842135D01*
X124588663Y-94771097D01*
X124588659Y-94771096D01*
X124588655Y-94771094D01*
X124360413Y-94709938D01*
X124360403Y-94709936D01*
X124125001Y-94689341D01*
X124124999Y-94689341D01*
X123889596Y-94709936D01*
X123889586Y-94709938D01*
X123661344Y-94771094D01*
X123661335Y-94771098D01*
X123447171Y-94870964D01*
X123447169Y-94870965D01*
X123253597Y-95006505D01*
X123086505Y-95173597D01*
X122950965Y-95367169D01*
X122950964Y-95367171D01*
X122851098Y-95581335D01*
X122851094Y-95581344D01*
X122789938Y-95809586D01*
X122789936Y-95809596D01*
X122769341Y-96044999D01*
X122769341Y-96045000D01*
X122789936Y-96280403D01*
X122789938Y-96280413D01*
X122851094Y-96508655D01*
X122851096Y-96508659D01*
X122851097Y-96508663D01*
X122906040Y-96626488D01*
X122950965Y-96722830D01*
X122950967Y-96722834D01*
X123086501Y-96916395D01*
X123086506Y-96916402D01*
X123253597Y-97083493D01*
X123253603Y-97083498D01*
X123439158Y-97213425D01*
X123482783Y-97268002D01*
X123489977Y-97337500D01*
X123458454Y-97399855D01*
X123439158Y-97416575D01*
X123253597Y-97546505D01*
X123086505Y-97713597D01*
X122950965Y-97907169D01*
X122950964Y-97907171D01*
X122851098Y-98121335D01*
X122851094Y-98121344D01*
X122789938Y-98349586D01*
X122789936Y-98349596D01*
X122769341Y-98584999D01*
X122769341Y-98585000D01*
X122789936Y-98820403D01*
X122789938Y-98820413D01*
X122851094Y-99048655D01*
X122851096Y-99048659D01*
X122851097Y-99048663D01*
X122916192Y-99188259D01*
X122950965Y-99262830D01*
X122950967Y-99262834D01*
X123029147Y-99374485D01*
X123086501Y-99456396D01*
X123086506Y-99456402D01*
X123208430Y-99578326D01*
X123241915Y-99639649D01*
X123236931Y-99709341D01*
X123195059Y-99765274D01*
X123164083Y-99782189D01*
X123032669Y-99831203D01*
X123032664Y-99831206D01*
X122917455Y-99917452D01*
X122917452Y-99917455D01*
X122831206Y-100032664D01*
X122831202Y-100032671D01*
X122780908Y-100167517D01*
X122775991Y-100213256D01*
X122774501Y-100227123D01*
X122774500Y-100227135D01*
X122774500Y-102022870D01*
X122774501Y-102022876D01*
X122780908Y-102082483D01*
X122831202Y-102217328D01*
X122831206Y-102217335D01*
X122917452Y-102332544D01*
X122917455Y-102332547D01*
X123032664Y-102418793D01*
X123032671Y-102418797D01*
X123077618Y-102435561D01*
X123167517Y-102469091D01*
X123227127Y-102475500D01*
X123228764Y-102475499D01*
X123229128Y-102475606D01*
X123230453Y-102475678D01*
X123230436Y-102475990D01*
X123295805Y-102495170D01*
X123341570Y-102547965D01*
X123351527Y-102617121D01*
X123322515Y-102680683D01*
X123299911Y-102701073D01*
X123253592Y-102733506D01*
X123086502Y-102900596D01*
X122950962Y-103094168D01*
X122950961Y-103094170D01*
X122851095Y-103308334D01*
X122851091Y-103308343D01*
X122789935Y-103536585D01*
X122789933Y-103536595D01*
X122769338Y-103771998D01*
X122769338Y-103771999D01*
X122789933Y-104007402D01*
X122789935Y-104007412D01*
X122851091Y-104235654D01*
X122851093Y-104235658D01*
X122851094Y-104235662D01*
X122950962Y-104449829D01*
X122950964Y-104449833D01*
X123059278Y-104604520D01*
X123086498Y-104643395D01*
X123086503Y-104643401D01*
X123208427Y-104765325D01*
X123241912Y-104826648D01*
X123236928Y-104896340D01*
X123195056Y-104952273D01*
X123164080Y-104969188D01*
X123032666Y-105018202D01*
X123032661Y-105018205D01*
X122917452Y-105104451D01*
X122917449Y-105104454D01*
X122831203Y-105219663D01*
X122831199Y-105219670D01*
X122780905Y-105354516D01*
X122774498Y-105414115D01*
X122774498Y-105414122D01*
X122774497Y-105414134D01*
X122774497Y-106528506D01*
X122754812Y-106595545D01*
X122702008Y-106641300D01*
X122632850Y-106651244D01*
X122569294Y-106622219D01*
X122562816Y-106616187D01*
X118536818Y-102590189D01*
X118503333Y-102528866D01*
X118500499Y-102502508D01*
X118500499Y-99600000D01*
X118500498Y-99599983D01*
X118489999Y-99497204D01*
X118489998Y-99497201D01*
X118488534Y-99492784D01*
X118434814Y-99330667D01*
X118342711Y-99181345D01*
X118218655Y-99057289D01*
X118069333Y-98965186D01*
X117902796Y-98910001D01*
X117902794Y-98910000D01*
X117800008Y-98899500D01*
X114300000Y-98899500D01*
X114299983Y-98899501D01*
X114197204Y-98910000D01*
X114197201Y-98910001D01*
X114030669Y-98965185D01*
X114030664Y-98965187D01*
X113881343Y-99057290D01*
X113757290Y-99181343D01*
X113665187Y-99330664D01*
X113665186Y-99330667D01*
X113610001Y-99497204D01*
X113610001Y-99497205D01*
X113610000Y-99497205D01*
X113599500Y-99599985D01*
X113599500Y-103099999D01*
X111158500Y-103099999D01*
X111158500Y-97719953D01*
X111158500Y-87597998D01*
X115494341Y-87597998D01*
X115514936Y-87833401D01*
X115514938Y-87833411D01*
X115576094Y-88061653D01*
X115576096Y-88061657D01*
X115576097Y-88061661D01*
X115671797Y-88266890D01*
X115675965Y-88275828D01*
X115675967Y-88275832D01*
X115716216Y-88333313D01*
X115811501Y-88469394D01*
X115811506Y-88469400D01*
X115933430Y-88591324D01*
X115966915Y-88652647D01*
X115961931Y-88722339D01*
X115920059Y-88778272D01*
X115889083Y-88795187D01*
X115757669Y-88844201D01*
X115757664Y-88844204D01*
X115642455Y-88930450D01*
X115642452Y-88930453D01*
X115556206Y-89045662D01*
X115556202Y-89045669D01*
X115505908Y-89180515D01*
X115500254Y-89233111D01*
X115499501Y-89240121D01*
X115499500Y-89240133D01*
X115499500Y-91035868D01*
X115499501Y-91035874D01*
X115505908Y-91095481D01*
X115556202Y-91230326D01*
X115556206Y-91230333D01*
X115642452Y-91345542D01*
X115642455Y-91345545D01*
X115757664Y-91431791D01*
X115757671Y-91431795D01*
X115892517Y-91482089D01*
X115892516Y-91482089D01*
X115899444Y-91482833D01*
X115952127Y-91488498D01*
X117747872Y-91488497D01*
X117807483Y-91482089D01*
X117942331Y-91431794D01*
X118057546Y-91345544D01*
X118143796Y-91230329D01*
X118194091Y-91095481D01*
X118200500Y-91035871D01*
X118200499Y-89240126D01*
X118194091Y-89180515D01*
X118143796Y-89045667D01*
X118143795Y-89045666D01*
X118143793Y-89045662D01*
X118057547Y-88930453D01*
X118057544Y-88930450D01*
X117942335Y-88844204D01*
X117942328Y-88844200D01*
X117810917Y-88795187D01*
X117754983Y-88753316D01*
X117730566Y-88687851D01*
X117745418Y-88619578D01*
X117766563Y-88591330D01*
X117888495Y-88469399D01*
X118024035Y-88275828D01*
X118123903Y-88061661D01*
X118185063Y-87833406D01*
X118205659Y-87597998D01*
X118185063Y-87362590D01*
X118123903Y-87134335D01*
X118024035Y-86920169D01*
X117915386Y-86765000D01*
X186844341Y-86765000D01*
X186864936Y-87000403D01*
X186864938Y-87000413D01*
X186926094Y-87228655D01*
X186926096Y-87228659D01*
X186926097Y-87228663D01*
X186988550Y-87362594D01*
X187025965Y-87442830D01*
X187025967Y-87442834D01*
X187161501Y-87636395D01*
X187161506Y-87636402D01*
X187328597Y-87803493D01*
X187328603Y-87803498D01*
X187514594Y-87933730D01*
X187558219Y-87988307D01*
X187565413Y-88057805D01*
X187533890Y-88120160D01*
X187514595Y-88136880D01*
X187328922Y-88266890D01*
X187328920Y-88266891D01*
X187161891Y-88433920D01*
X187161886Y-88433926D01*
X187026400Y-88627420D01*
X187026399Y-88627422D01*
X186926570Y-88841507D01*
X186926567Y-88841513D01*
X186869364Y-89054999D01*
X186869364Y-89055000D01*
X187766314Y-89055000D01*
X187740507Y-89095156D01*
X187700000Y-89233111D01*
X187700000Y-89376889D01*
X187740507Y-89514844D01*
X187766314Y-89555000D01*
X186869364Y-89555000D01*
X186926567Y-89768486D01*
X186926570Y-89768492D01*
X187026399Y-89982578D01*
X187161894Y-90176082D01*
X187328917Y-90343105D01*
X187522421Y-90478600D01*
X187736507Y-90578429D01*
X187736516Y-90578433D01*
X187950000Y-90635634D01*
X187950000Y-89740501D01*
X188057685Y-89789680D01*
X188164237Y-89805000D01*
X188235763Y-89805000D01*
X188342315Y-89789680D01*
X188450000Y-89740501D01*
X188450000Y-90635633D01*
X188663483Y-90578433D01*
X188663492Y-90578429D01*
X188877578Y-90478600D01*
X189071082Y-90343105D01*
X189238105Y-90176082D01*
X189373600Y-89982578D01*
X189473429Y-89768492D01*
X189473432Y-89768486D01*
X189530636Y-89555000D01*
X188633686Y-89555000D01*
X188659493Y-89514844D01*
X188700000Y-89376889D01*
X188700000Y-89233111D01*
X188659493Y-89095156D01*
X188633686Y-89055000D01*
X189530636Y-89055000D01*
X189530635Y-89054999D01*
X189473432Y-88841513D01*
X189473429Y-88841507D01*
X189373600Y-88627422D01*
X189373599Y-88627420D01*
X189238113Y-88433926D01*
X189238108Y-88433920D01*
X189071078Y-88266890D01*
X188885405Y-88136879D01*
X188841780Y-88082302D01*
X188834588Y-88012804D01*
X188866110Y-87950449D01*
X188885406Y-87933730D01*
X188923199Y-87907267D01*
X189071401Y-87803495D01*
X189238495Y-87636401D01*
X189374035Y-87442830D01*
X189473903Y-87228663D01*
X189535063Y-87000408D01*
X189555659Y-86765000D01*
X189535063Y-86529592D01*
X189473903Y-86301337D01*
X189374035Y-86087171D01*
X189238495Y-85893599D01*
X189116567Y-85771671D01*
X189083084Y-85710351D01*
X189088068Y-85640659D01*
X189129939Y-85584725D01*
X189160915Y-85567810D01*
X189292331Y-85518796D01*
X189407546Y-85432546D01*
X189493796Y-85317331D01*
X189544091Y-85182483D01*
X189550500Y-85122873D01*
X189550499Y-83327128D01*
X189544091Y-83267517D01*
X189505702Y-83164592D01*
X189493797Y-83132671D01*
X189493793Y-83132664D01*
X189407547Y-83017455D01*
X189407544Y-83017452D01*
X189292335Y-82931206D01*
X189292328Y-82931202D01*
X189157482Y-82880908D01*
X189157483Y-82880908D01*
X189097883Y-82874501D01*
X189097881Y-82874500D01*
X189097873Y-82874500D01*
X189097864Y-82874500D01*
X187302129Y-82874500D01*
X187302123Y-82874501D01*
X187242516Y-82880908D01*
X187107671Y-82931202D01*
X187107664Y-82931206D01*
X186992455Y-83017452D01*
X186992452Y-83017455D01*
X186906206Y-83132664D01*
X186906202Y-83132671D01*
X186855908Y-83267517D01*
X186849501Y-83327116D01*
X186849501Y-83327123D01*
X186849500Y-83327135D01*
X186849500Y-85122870D01*
X186849501Y-85122876D01*
X186855908Y-85182483D01*
X186906202Y-85317328D01*
X186906206Y-85317335D01*
X186992452Y-85432544D01*
X186992455Y-85432547D01*
X187107664Y-85518793D01*
X187107671Y-85518797D01*
X187239081Y-85567810D01*
X187295015Y-85609681D01*
X187319432Y-85675145D01*
X187304580Y-85743418D01*
X187283430Y-85771673D01*
X187161503Y-85893600D01*
X187025965Y-86087169D01*
X187025964Y-86087171D01*
X186926098Y-86301335D01*
X186926094Y-86301344D01*
X186864938Y-86529586D01*
X186864936Y-86529596D01*
X186844341Y-86764999D01*
X186844341Y-86765000D01*
X117915386Y-86765000D01*
X117915385Y-86764999D01*
X117888494Y-86726595D01*
X117721402Y-86559504D01*
X117721395Y-86559499D01*
X117527834Y-86423965D01*
X117527830Y-86423963D01*
X117527828Y-86423962D01*
X117313663Y-86324095D01*
X117313659Y-86324094D01*
X117313655Y-86324092D01*
X117085413Y-86262936D01*
X117085403Y-86262934D01*
X116850001Y-86242339D01*
X116849999Y-86242339D01*
X116614596Y-86262934D01*
X116614586Y-86262936D01*
X116386344Y-86324092D01*
X116386335Y-86324096D01*
X116172171Y-86423962D01*
X116172169Y-86423963D01*
X115978597Y-86559503D01*
X115811505Y-86726595D01*
X115675965Y-86920167D01*
X115675964Y-86920169D01*
X115576098Y-87134333D01*
X115576094Y-87134342D01*
X115514938Y-87362584D01*
X115514936Y-87362594D01*
X115494341Y-87597997D01*
X115494341Y-87597998D01*
X111158500Y-87597998D01*
X111158500Y-84297870D01*
X152759500Y-84297870D01*
X152759501Y-84297876D01*
X152765908Y-84357483D01*
X152816202Y-84492328D01*
X152816206Y-84492335D01*
X152902452Y-84607544D01*
X152902455Y-84607547D01*
X153017664Y-84693793D01*
X153017671Y-84693797D01*
X153152517Y-84744091D01*
X153152516Y-84744091D01*
X153159444Y-84744835D01*
X153212127Y-84750500D01*
X155007872Y-84750499D01*
X155067483Y-84744091D01*
X155202331Y-84693796D01*
X155317546Y-84607546D01*
X155403796Y-84492331D01*
X155452810Y-84360916D01*
X155494681Y-84304984D01*
X155560145Y-84280566D01*
X155628418Y-84295417D01*
X155656673Y-84316569D01*
X155778599Y-84438495D01*
X155875384Y-84506265D01*
X155972165Y-84574032D01*
X155972167Y-84574033D01*
X155972170Y-84574035D01*
X156186337Y-84673903D01*
X156414592Y-84735063D01*
X156591034Y-84750500D01*
X156649999Y-84755659D01*
X156650000Y-84755659D01*
X156650001Y-84755659D01*
X156708966Y-84750500D01*
X156885408Y-84735063D01*
X157113663Y-84673903D01*
X157327830Y-84574035D01*
X157521401Y-84438495D01*
X157688495Y-84271401D01*
X157818425Y-84085842D01*
X157873002Y-84042217D01*
X157942500Y-84035023D01*
X158004855Y-84066546D01*
X158021575Y-84085842D01*
X158151500Y-84271395D01*
X158151505Y-84271401D01*
X158318599Y-84438495D01*
X158415384Y-84506265D01*
X158512165Y-84574032D01*
X158512167Y-84574033D01*
X158512170Y-84574035D01*
X158726337Y-84673903D01*
X158954592Y-84735063D01*
X159131034Y-84750500D01*
X159189999Y-84755659D01*
X159190000Y-84755659D01*
X159190001Y-84755659D01*
X159248966Y-84750500D01*
X159425408Y-84735063D01*
X159653663Y-84673903D01*
X159867830Y-84574035D01*
X160061401Y-84438495D01*
X160228495Y-84271401D01*
X160358425Y-84085842D01*
X160413002Y-84042217D01*
X160482500Y-84035023D01*
X160544855Y-84066546D01*
X160561575Y-84085842D01*
X160691500Y-84271395D01*
X160691505Y-84271401D01*
X160858599Y-84438495D01*
X160955384Y-84506265D01*
X161052165Y-84574032D01*
X161052167Y-84574033D01*
X161052170Y-84574035D01*
X161266337Y-84673903D01*
X161494592Y-84735063D01*
X161671034Y-84750500D01*
X161729999Y-84755659D01*
X161730000Y-84755659D01*
X161730001Y-84755659D01*
X161788966Y-84750500D01*
X161965408Y-84735063D01*
X162193663Y-84673903D01*
X162407830Y-84574035D01*
X162601401Y-84438495D01*
X162768495Y-84271401D01*
X162898425Y-84085842D01*
X162953002Y-84042217D01*
X163022500Y-84035023D01*
X163084855Y-84066546D01*
X163101575Y-84085842D01*
X163231500Y-84271395D01*
X163231505Y-84271401D01*
X163398599Y-84438495D01*
X163495384Y-84506265D01*
X163592165Y-84574032D01*
X163592167Y-84574033D01*
X163592170Y-84574035D01*
X163806337Y-84673903D01*
X164034592Y-84735063D01*
X164211034Y-84750500D01*
X164269999Y-84755659D01*
X164270000Y-84755659D01*
X164270001Y-84755659D01*
X164328966Y-84750500D01*
X164505408Y-84735063D01*
X164733663Y-84673903D01*
X164947830Y-84574035D01*
X165141401Y-84438495D01*
X165308495Y-84271401D01*
X165444035Y-84077830D01*
X165543903Y-83863663D01*
X165605063Y-83635408D01*
X165625659Y-83400000D01*
X165605063Y-83164592D01*
X165543903Y-82936337D01*
X165444035Y-82722171D01*
X165438425Y-82714158D01*
X165308494Y-82528597D01*
X165141402Y-82361506D01*
X165141395Y-82361501D01*
X164947834Y-82225967D01*
X164947830Y-82225965D01*
X164947828Y-82225964D01*
X164733663Y-82126097D01*
X164733659Y-82126096D01*
X164733655Y-82126094D01*
X164505413Y-82064938D01*
X164505403Y-82064936D01*
X164270001Y-82044341D01*
X164269999Y-82044341D01*
X164034596Y-82064936D01*
X164034586Y-82064938D01*
X163806344Y-82126094D01*
X163806335Y-82126098D01*
X163592171Y-82225964D01*
X163592169Y-82225965D01*
X163398597Y-82361505D01*
X163231505Y-82528597D01*
X163101575Y-82714158D01*
X163046998Y-82757783D01*
X162977500Y-82764977D01*
X162915145Y-82733454D01*
X162898425Y-82714158D01*
X162768494Y-82528597D01*
X162601402Y-82361506D01*
X162601395Y-82361501D01*
X162407834Y-82225967D01*
X162407830Y-82225965D01*
X162407828Y-82225964D01*
X162193663Y-82126097D01*
X162193659Y-82126096D01*
X162193655Y-82126094D01*
X161965413Y-82064938D01*
X161965403Y-82064936D01*
X161730001Y-82044341D01*
X161729999Y-82044341D01*
X161494596Y-82064936D01*
X161494586Y-82064938D01*
X161266344Y-82126094D01*
X161266335Y-82126098D01*
X161052171Y-82225964D01*
X161052169Y-82225965D01*
X160858597Y-82361505D01*
X160691505Y-82528597D01*
X160561575Y-82714158D01*
X160506998Y-82757783D01*
X160437500Y-82764977D01*
X160375145Y-82733454D01*
X160358425Y-82714158D01*
X160228494Y-82528597D01*
X160061402Y-82361506D01*
X160061395Y-82361501D01*
X159867834Y-82225967D01*
X159867830Y-82225965D01*
X159867828Y-82225964D01*
X159653663Y-82126097D01*
X159653659Y-82126096D01*
X159653655Y-82126094D01*
X159425413Y-82064938D01*
X159425403Y-82064936D01*
X159190001Y-82044341D01*
X159189999Y-82044341D01*
X158954596Y-82064936D01*
X158954586Y-82064938D01*
X158726344Y-82126094D01*
X158726335Y-82126098D01*
X158512171Y-82225964D01*
X158512169Y-82225965D01*
X158318597Y-82361505D01*
X158151505Y-82528597D01*
X158021575Y-82714158D01*
X157966998Y-82757783D01*
X157897500Y-82764977D01*
X157835145Y-82733454D01*
X157818425Y-82714158D01*
X157688494Y-82528597D01*
X157521402Y-82361506D01*
X157521395Y-82361501D01*
X157327834Y-82225967D01*
X157327830Y-82225965D01*
X157327828Y-82225964D01*
X157113663Y-82126097D01*
X157113659Y-82126096D01*
X157113655Y-82126094D01*
X156885413Y-82064938D01*
X156885403Y-82064936D01*
X156650001Y-82044341D01*
X156649999Y-82044341D01*
X156414596Y-82064936D01*
X156414586Y-82064938D01*
X156186344Y-82126094D01*
X156186335Y-82126098D01*
X155972171Y-82225964D01*
X155972169Y-82225965D01*
X155778600Y-82361503D01*
X155656673Y-82483430D01*
X155595350Y-82516914D01*
X155525658Y-82511930D01*
X155469725Y-82470058D01*
X155452810Y-82439081D01*
X155403797Y-82307671D01*
X155403793Y-82307664D01*
X155317547Y-82192455D01*
X155317544Y-82192452D01*
X155202335Y-82106206D01*
X155202328Y-82106202D01*
X155067482Y-82055908D01*
X155067483Y-82055908D01*
X155007883Y-82049501D01*
X155007881Y-82049500D01*
X155007873Y-82049500D01*
X155007864Y-82049500D01*
X153212129Y-82049500D01*
X153212123Y-82049501D01*
X153152516Y-82055908D01*
X153017671Y-82106202D01*
X153017664Y-82106206D01*
X152902455Y-82192452D01*
X152902452Y-82192455D01*
X152816206Y-82307664D01*
X152816202Y-82307671D01*
X152765908Y-82442517D01*
X152759501Y-82502116D01*
X152759500Y-82502135D01*
X152759500Y-84297870D01*
X111158500Y-84297870D01*
X111158500Y-81853716D01*
X111158724Y-81846297D01*
X111175849Y-81563192D01*
X111177654Y-81548331D01*
X111228096Y-81273083D01*
X111231680Y-81258545D01*
X111309553Y-81008640D01*
X111314928Y-80991390D01*
X111320230Y-80977409D01*
X111435085Y-80722210D01*
X111442036Y-80708965D01*
X111586814Y-80469474D01*
X111595301Y-80457178D01*
X111767895Y-80236879D01*
X111777810Y-80225688D01*
X111975688Y-80027810D01*
X111986879Y-80017895D01*
X112207178Y-79845301D01*
X112219474Y-79836814D01*
X112458965Y-79692036D01*
X112472210Y-79685085D01*
X112727409Y-79570230D01*
X112741390Y-79564928D01*
X113008545Y-79481679D01*
X113023083Y-79478096D01*
X113298335Y-79427653D01*
X113313192Y-79425849D01*
X113596287Y-79408725D01*
X113603760Y-79408500D01*
X113666945Y-79408500D01*
X192733055Y-79408500D01*
X192796249Y-79408500D01*
X192803736Y-79408726D01*
G37*
%TD.AperFunction*%
%TD*%
M02*
