M48
; DRILL file {KiCad 7.0.10} date Thu Apr 11 21:52:30 2024
; FORMAT={-:-/ absolute / inch / decimal}
; #@! TF.CreationDate,2024-04-11T21:52:30-07:00
; #@! TF.GenerationSoftware,Kicad,Pcbnew,7.0.10
; #@! TF.FileFunction,Plated,1,2,PTH
FMAT,2
INCH
; #@! TA.AperFunction,Plated,PTH,ViaDrill
T1C0.0157
; #@! TA.AperFunction,Plated,PTH,ComponentDrill
T2C0.0315
; #@! TA.AperFunction,Plated,PTH,ComponentDrill
T3C0.0394
; #@! TA.AperFunction,Plated,PTH,ComponentDrill
T4C0.0827
%
G90
G05
T1
X5.3829Y-3.938
X5.8071Y-3.8976
X6.3583Y-4.2618
X6.4173Y-4.1831
X6.5394Y-4.311
X6.8976Y-4.3071
T2
X6.2512Y-3.4866
X6.2512Y-3.5866
X6.2512Y-3.6866
X6.2512Y-3.7866
X6.2512Y-3.8866
X6.2512Y-3.9866
X6.2512Y-4.0866
X6.2512Y-4.1866
X6.5512Y-3.4866
X6.5512Y-3.5866
X6.5512Y-3.6866
X6.5512Y-3.7866
X6.5512Y-3.8866
X6.5512Y-3.9866
X6.5512Y-4.0866
X6.5512Y-4.1866
T3
X4.4693Y-4.4528
X4.5693Y-4.4528
X4.6004Y-3.4487
X4.6004Y-3.5487
X4.6693Y-4.4528
X4.8868Y-4.0855
X4.8868Y-4.1855
X4.8868Y-3.7813
X4.8868Y-3.8813
X4.8868Y-3.9813
X5.0892Y-4.3888
X5.0892Y-4.4888
X5.1892Y-4.3888
X5.1892Y-4.4888
X5.2892Y-4.3888
X5.2892Y-4.4888
X5.3892Y-4.3888
X5.3892Y-4.4888
X5.4892Y-4.3888
X5.4892Y-4.4888
X5.5482Y-4.0033
X5.5482Y-4.1033
X5.5892Y-4.3888
X5.5892Y-4.4888
X5.6892Y-4.3888
X5.6892Y-4.4888
X5.7892Y-4.3888
X5.7892Y-4.4888
X5.8892Y-4.3888
X5.8892Y-4.4888
X5.9892Y-4.3888
X5.9892Y-4.4888
X6.0673Y-3.2835
X6.0892Y-4.3888
X6.0892Y-4.4888
X6.1673Y-3.2835
X6.1892Y-4.3888
X6.1892Y-4.4888
X6.2673Y-3.2835
X6.2892Y-4.3888
X6.2892Y-4.4888
X6.3673Y-3.2835
X6.3892Y-4.3888
X6.3892Y-4.4888
X6.4673Y-3.2835
X6.4892Y-4.3888
X6.4892Y-4.4888
X6.5892Y-4.3888
X6.5892Y-4.4888
X6.6892Y-4.3888
X6.6892Y-4.4888
X6.7892Y-4.3888
X6.7892Y-4.4888
X6.8892Y-4.3888
X6.8892Y-4.4888
X6.9528Y-4.0596
X6.9892Y-4.3888
X6.9892Y-4.4888
X7.1909Y-4.0596
X7.4094Y-3.3159
X7.4094Y-3.4159
X7.4094Y-3.5159
T4
X4.5689Y-3.9902
X7.5906Y-4.0
M30
