%TF.GenerationSoftware,KiCad,Pcbnew,7.0.10*%
%TF.CreationDate,2024-04-11T21:52:28-07:00*%
%TF.ProjectId,magical toys integration pcbrev4,6d616769-6361-46c2-9074-6f797320696e,rev?*%
%TF.SameCoordinates,Original*%
%TF.FileFunction,Legend,Bot*%
%TF.FilePolarity,Positive*%
%FSLAX46Y46*%
G04 Gerber Fmt 4.6, Leading zero omitted, Abs format (unit mm)*
G04 Created by KiCad (PCBNEW 7.0.10) date 2024-04-11 21:52:28*
%MOMM*%
%LPD*%
G01*
G04 APERTURE LIST*
%ADD10C,0.000000*%
G04 APERTURE END LIST*
D10*
G36*
X148928561Y-89400000D02*
G01*
X148936586Y-89400000D01*
X149197491Y-88344334D01*
X150686668Y-88344334D01*
X150686668Y-90985508D01*
X149843739Y-90985508D01*
X149855780Y-89540486D01*
X149847755Y-89540486D01*
X149458397Y-90985508D01*
X148816174Y-90985508D01*
X148422807Y-89540486D01*
X148414774Y-89540486D01*
X148426816Y-90985508D01*
X147371152Y-90985508D01*
X147371152Y-88344334D01*
X148663639Y-88344334D01*
X148928561Y-89400000D01*
G37*
G36*
X147192828Y-90985508D02*
G01*
X146149206Y-90985508D01*
X146048859Y-90576084D01*
X145398596Y-90576084D01*
X145302266Y-90985508D01*
X144025829Y-90985508D01*
X144321073Y-90106454D01*
X145506975Y-90106454D01*
X145936465Y-90106454D01*
X145727741Y-89239441D01*
X145707674Y-89239441D01*
X145506975Y-90106454D01*
X144321073Y-90106454D01*
X144912909Y-88344334D01*
X146305749Y-88344334D01*
X146897584Y-90106454D01*
X147192828Y-90985508D01*
G37*
G36*
X142753852Y-88305701D02*
G01*
X142835680Y-88310348D01*
X142915323Y-88318047D01*
X142992749Y-88328760D01*
X143067923Y-88342447D01*
X143140811Y-88359072D01*
X143211380Y-88378595D01*
X143279596Y-88400979D01*
X143345425Y-88426186D01*
X143408833Y-88454176D01*
X143469786Y-88484912D01*
X143528251Y-88518356D01*
X143584193Y-88554469D01*
X143637580Y-88593214D01*
X143688376Y-88634551D01*
X143736549Y-88678443D01*
X143782064Y-88724852D01*
X143824888Y-88773739D01*
X143864987Y-88825066D01*
X143902326Y-88878796D01*
X143936873Y-88934888D01*
X143968593Y-88993307D01*
X143997453Y-89054012D01*
X144023418Y-89116967D01*
X144046456Y-89182132D01*
X144066531Y-89249470D01*
X144083611Y-89318942D01*
X144097661Y-89390511D01*
X144108647Y-89464137D01*
X144116537Y-89539783D01*
X144121296Y-89617411D01*
X144122889Y-89696982D01*
X144121484Y-89773190D01*
X144117294Y-89847505D01*
X144110354Y-89919894D01*
X144100702Y-89990321D01*
X144088376Y-90058751D01*
X144073410Y-90125151D01*
X144055843Y-90189486D01*
X144035710Y-90251721D01*
X144013050Y-90311822D01*
X143987898Y-90369753D01*
X143960290Y-90425482D01*
X143930265Y-90478972D01*
X143897859Y-90530190D01*
X143863108Y-90579100D01*
X143826049Y-90625669D01*
X143786719Y-90669862D01*
X143745155Y-90711645D01*
X143701393Y-90750981D01*
X143655471Y-90787839D01*
X143607424Y-90822181D01*
X143557290Y-90853975D01*
X143505106Y-90883186D01*
X143450907Y-90909778D01*
X143394732Y-90933718D01*
X143336617Y-90954971D01*
X143276597Y-90973502D01*
X143214712Y-90989277D01*
X143150996Y-91002261D01*
X143085486Y-91012420D01*
X143018221Y-91019720D01*
X142949235Y-91024124D01*
X142878567Y-91025600D01*
X142840304Y-91025143D01*
X142803029Y-91023780D01*
X142766742Y-91021519D01*
X142731441Y-91018372D01*
X142697129Y-91014349D01*
X142663804Y-91009460D01*
X142631466Y-91003716D01*
X142600116Y-90997126D01*
X142569754Y-90989702D01*
X142540379Y-90981453D01*
X142511992Y-90972389D01*
X142484592Y-90962522D01*
X142458180Y-90951860D01*
X142432756Y-90940415D01*
X142408319Y-90928197D01*
X142384870Y-90915216D01*
X142362409Y-90901483D01*
X142340935Y-90887007D01*
X142320449Y-90871799D01*
X142300951Y-90855869D01*
X142282440Y-90839228D01*
X142264917Y-90821885D01*
X142248382Y-90803852D01*
X142232834Y-90785138D01*
X142218275Y-90765754D01*
X142204703Y-90745710D01*
X142192118Y-90725016D01*
X142180522Y-90703682D01*
X142169913Y-90681720D01*
X142160293Y-90659138D01*
X142151660Y-90635948D01*
X142144015Y-90612160D01*
X142135998Y-90612160D01*
X142136687Y-90674463D01*
X142138503Y-90736532D01*
X142141071Y-90796248D01*
X142144015Y-90851495D01*
X142152032Y-90985460D01*
X141333199Y-90985460D01*
X141333199Y-89648817D01*
X142705990Y-89648817D01*
X142705990Y-90022110D01*
X142216246Y-90022110D01*
X142216246Y-90042184D01*
X142216645Y-90057811D01*
X142217835Y-90073076D01*
X142219810Y-90087971D01*
X142222559Y-90102487D01*
X142226077Y-90116614D01*
X142230353Y-90130345D01*
X142235381Y-90143670D01*
X142241153Y-90156581D01*
X142247659Y-90169068D01*
X142254892Y-90181123D01*
X142262844Y-90192737D01*
X142271507Y-90203902D01*
X142280873Y-90214607D01*
X142290933Y-90224845D01*
X142301679Y-90234607D01*
X142313104Y-90243884D01*
X142325199Y-90252667D01*
X142337955Y-90260948D01*
X142351366Y-90268716D01*
X142365423Y-90275965D01*
X142380118Y-90282684D01*
X142395442Y-90288865D01*
X142427947Y-90299578D01*
X142462873Y-90308034D01*
X142500155Y-90314161D01*
X142539729Y-90317888D01*
X142581530Y-90319147D01*
X142632446Y-90317101D01*
X142681228Y-90310868D01*
X142727717Y-90300308D01*
X142750052Y-90293361D01*
X142771755Y-90285279D01*
X142792804Y-90276045D01*
X142813181Y-90265640D01*
X142832866Y-90254048D01*
X142851839Y-90241250D01*
X142870079Y-90227230D01*
X142887568Y-90211969D01*
X142904285Y-90195449D01*
X142920210Y-90177654D01*
X142935324Y-90158565D01*
X142949607Y-90138165D01*
X142963038Y-90116436D01*
X142975599Y-90093360D01*
X142987269Y-90068921D01*
X142998028Y-90043099D01*
X143007856Y-90015878D01*
X143016735Y-89987240D01*
X143024643Y-89957168D01*
X143031561Y-89925643D01*
X143037469Y-89892648D01*
X143042348Y-89858165D01*
X143048936Y-89784667D01*
X143051168Y-89705007D01*
X143050561Y-89665834D01*
X143048762Y-89628084D01*
X143045800Y-89591745D01*
X143041705Y-89556806D01*
X143036508Y-89523254D01*
X143030238Y-89491078D01*
X143022926Y-89460266D01*
X143014602Y-89430807D01*
X143005296Y-89402688D01*
X142995038Y-89375898D01*
X142983859Y-89350425D01*
X142971788Y-89326257D01*
X142958855Y-89303383D01*
X142945091Y-89281791D01*
X142930526Y-89261468D01*
X142915190Y-89242404D01*
X142899114Y-89224587D01*
X142882326Y-89208004D01*
X142864858Y-89192644D01*
X142846739Y-89178495D01*
X142828000Y-89165546D01*
X142808671Y-89153785D01*
X142788782Y-89143199D01*
X142768362Y-89133778D01*
X142747443Y-89125509D01*
X142726054Y-89118381D01*
X142704226Y-89112381D01*
X142681988Y-89107499D01*
X142659371Y-89103723D01*
X142636405Y-89101039D01*
X142613120Y-89099438D01*
X142589546Y-89098907D01*
X142568291Y-89099213D01*
X142547430Y-89100128D01*
X142526982Y-89101652D01*
X142506964Y-89103783D01*
X142487397Y-89106520D01*
X142468296Y-89109861D01*
X142449682Y-89113805D01*
X142431573Y-89118349D01*
X142413987Y-89123494D01*
X142396941Y-89129237D01*
X142380456Y-89135576D01*
X142364549Y-89142511D01*
X142349239Y-89150040D01*
X142334543Y-89158161D01*
X142320481Y-89166873D01*
X142307071Y-89176175D01*
X142294331Y-89186064D01*
X142282279Y-89196540D01*
X142270935Y-89207601D01*
X142260316Y-89219245D01*
X142250440Y-89231472D01*
X142241327Y-89244279D01*
X142232995Y-89257666D01*
X142225461Y-89271630D01*
X142218745Y-89286170D01*
X142212864Y-89301285D01*
X142207838Y-89316973D01*
X142203685Y-89333233D01*
X142200422Y-89350063D01*
X142198069Y-89367462D01*
X142196643Y-89385429D01*
X142196164Y-89403961D01*
X142196164Y-89500299D01*
X141369315Y-89500299D01*
X141366388Y-89453071D01*
X141363818Y-89399448D01*
X141361992Y-89345073D01*
X141361479Y-89319367D01*
X141361298Y-89295590D01*
X141365718Y-89187880D01*
X141379165Y-89084732D01*
X141401913Y-88986476D01*
X141416862Y-88939285D01*
X141434240Y-88893441D01*
X141454081Y-88848985D01*
X141476421Y-88805958D01*
X141501294Y-88764400D01*
X141528734Y-88724353D01*
X141558775Y-88685859D01*
X141591454Y-88648959D01*
X141626803Y-88613692D01*
X141664858Y-88580102D01*
X141705652Y-88548228D01*
X141749222Y-88518113D01*
X141795600Y-88489797D01*
X141844823Y-88463321D01*
X141896923Y-88438727D01*
X141951937Y-88416055D01*
X142009897Y-88395347D01*
X142070840Y-88376645D01*
X142134799Y-88359988D01*
X142201809Y-88345419D01*
X142271904Y-88332978D01*
X142345120Y-88322707D01*
X142501050Y-88308839D01*
X142669874Y-88304143D01*
X142753852Y-88305701D01*
G37*
G36*
X141067531Y-90985437D02*
G01*
X140015970Y-90985437D01*
X140015970Y-88344334D01*
X141067531Y-88344334D01*
X141067531Y-90985437D01*
G37*
G36*
X138447254Y-88305586D02*
G01*
X138529401Y-88309900D01*
X138609092Y-88317064D01*
X138686313Y-88327058D01*
X138761046Y-88339859D01*
X138833276Y-88355446D01*
X138902986Y-88373798D01*
X138970160Y-88394893D01*
X139034783Y-88418711D01*
X139096837Y-88445230D01*
X139156307Y-88474428D01*
X139213177Y-88506285D01*
X139267430Y-88540778D01*
X139319050Y-88577888D01*
X139368022Y-88617592D01*
X139414328Y-88659868D01*
X139457953Y-88704697D01*
X139498881Y-88752056D01*
X139537095Y-88801924D01*
X139572579Y-88854280D01*
X139605318Y-88909103D01*
X139635294Y-88966370D01*
X139662493Y-89026062D01*
X139686896Y-89088156D01*
X139708490Y-89152631D01*
X139727257Y-89219467D01*
X139743180Y-89288641D01*
X139756245Y-89360132D01*
X139766435Y-89433919D01*
X139773733Y-89509981D01*
X139778124Y-89588296D01*
X139779591Y-89668843D01*
X139774792Y-89816371D01*
X139760198Y-89957620D01*
X139735514Y-90092142D01*
X139719297Y-90156742D01*
X139700447Y-90219492D01*
X139678928Y-90280337D01*
X139654703Y-90339221D01*
X139627735Y-90396088D01*
X139597987Y-90450883D01*
X139565423Y-90503550D01*
X139530005Y-90554032D01*
X139491698Y-90602274D01*
X139450463Y-90648220D01*
X139406266Y-90691814D01*
X139359068Y-90733000D01*
X139308832Y-90771723D01*
X139255523Y-90807927D01*
X139199104Y-90841555D01*
X139139536Y-90872552D01*
X139076785Y-90900862D01*
X139010813Y-90926429D01*
X138941583Y-90949198D01*
X138869059Y-90969111D01*
X138793203Y-90986115D01*
X138713979Y-91000152D01*
X138631351Y-91011167D01*
X138545281Y-91019104D01*
X138455732Y-91023907D01*
X138362669Y-91025521D01*
X138275535Y-91024393D01*
X138191720Y-91021028D01*
X138111189Y-91015450D01*
X138033904Y-91007684D01*
X137959830Y-90997756D01*
X137888930Y-90985692D01*
X137821168Y-90971516D01*
X137756507Y-90955255D01*
X137694912Y-90936932D01*
X137636346Y-90916574D01*
X137580773Y-90894207D01*
X137528157Y-90869854D01*
X137478460Y-90843542D01*
X137431648Y-90815297D01*
X137387684Y-90785142D01*
X137346531Y-90753105D01*
X137308153Y-90719209D01*
X137272514Y-90683481D01*
X137239577Y-90645946D01*
X137209307Y-90606628D01*
X137181667Y-90565554D01*
X137156621Y-90522749D01*
X137134132Y-90478238D01*
X137114165Y-90432046D01*
X137096682Y-90384199D01*
X137081649Y-90334722D01*
X137069027Y-90283641D01*
X137058782Y-90230980D01*
X137050877Y-90176765D01*
X137045275Y-90121022D01*
X137041941Y-90063776D01*
X137040837Y-90005052D01*
X137893087Y-89869535D01*
X137893599Y-89893526D01*
X137895118Y-89916587D01*
X137897614Y-89938729D01*
X137901060Y-89959963D01*
X137905425Y-89980301D01*
X137910682Y-89999754D01*
X137916801Y-90018331D01*
X137923755Y-90036046D01*
X137931515Y-90052907D01*
X137940051Y-90068927D01*
X137949335Y-90084117D01*
X137959339Y-90098487D01*
X137970034Y-90112049D01*
X137981392Y-90124813D01*
X137993382Y-90136791D01*
X138005978Y-90147993D01*
X138019150Y-90158432D01*
X138032869Y-90168116D01*
X138047108Y-90177059D01*
X138061836Y-90185270D01*
X138077026Y-90192761D01*
X138092650Y-90199543D01*
X138108677Y-90205627D01*
X138125080Y-90211023D01*
X138158898Y-90219798D01*
X138193875Y-90225957D01*
X138229781Y-90229588D01*
X138266387Y-90230779D01*
X138311474Y-90228966D01*
X138354803Y-90223425D01*
X138396214Y-90214005D01*
X138416151Y-90207791D01*
X138435549Y-90200550D01*
X138454389Y-90192263D01*
X138472650Y-90182910D01*
X138490312Y-90172472D01*
X138507357Y-90160930D01*
X138523763Y-90148266D01*
X138539511Y-90134459D01*
X138554582Y-90119491D01*
X138568955Y-90103342D01*
X138582611Y-90085994D01*
X138595529Y-90067428D01*
X138607691Y-90047623D01*
X138619075Y-90026562D01*
X138629663Y-90004226D01*
X138639434Y-89980594D01*
X138648369Y-89955648D01*
X138656447Y-89929368D01*
X138663650Y-89901737D01*
X138669956Y-89872733D01*
X138675347Y-89842340D01*
X138679802Y-89810536D01*
X138685825Y-89742624D01*
X138687869Y-89668843D01*
X138687377Y-89631894D01*
X138685912Y-89596296D01*
X138683489Y-89562040D01*
X138680123Y-89529112D01*
X138675827Y-89497501D01*
X138670616Y-89467196D01*
X138664506Y-89438184D01*
X138657511Y-89410453D01*
X138649646Y-89383993D01*
X138640925Y-89358791D01*
X138631364Y-89334836D01*
X138620976Y-89312115D01*
X138609776Y-89290617D01*
X138597780Y-89270331D01*
X138585001Y-89251244D01*
X138571455Y-89233345D01*
X138557157Y-89216621D01*
X138542120Y-89201062D01*
X138526360Y-89186655D01*
X138509891Y-89173389D01*
X138492729Y-89161251D01*
X138474887Y-89150231D01*
X138456380Y-89140316D01*
X138437224Y-89131495D01*
X138417432Y-89123756D01*
X138397020Y-89117086D01*
X138376002Y-89111475D01*
X138354393Y-89106911D01*
X138332207Y-89103381D01*
X138309460Y-89100874D01*
X138286166Y-89099379D01*
X138262339Y-89098883D01*
X138225779Y-89100165D01*
X138190001Y-89104057D01*
X138155224Y-89110631D01*
X138138278Y-89114945D01*
X138121664Y-89119955D01*
X138105409Y-89125672D01*
X138089540Y-89132103D01*
X138074084Y-89139257D01*
X138059069Y-89147142D01*
X138044521Y-89155769D01*
X138030467Y-89165146D01*
X138016936Y-89175281D01*
X138003954Y-89186183D01*
X137991547Y-89197861D01*
X137979745Y-89210324D01*
X137968573Y-89223581D01*
X137958058Y-89237641D01*
X137948229Y-89252512D01*
X137939112Y-89268203D01*
X137930734Y-89284724D01*
X137923123Y-89302082D01*
X137916305Y-89320286D01*
X137910308Y-89339347D01*
X137905159Y-89359271D01*
X137900886Y-89380069D01*
X137897514Y-89401749D01*
X137895073Y-89424319D01*
X137893588Y-89447789D01*
X137893087Y-89472168D01*
X137893087Y-89501426D01*
X137039568Y-89340620D01*
X137043844Y-89232406D01*
X137056910Y-89127832D01*
X137079123Y-89027357D01*
X137093771Y-88978801D01*
X137110839Y-88931443D01*
X137130373Y-88885340D01*
X137152416Y-88840551D01*
X137177014Y-88797133D01*
X137204212Y-88755143D01*
X137234052Y-88714640D01*
X137266581Y-88675680D01*
X137301843Y-88638322D01*
X137339883Y-88602624D01*
X137380744Y-88568642D01*
X137424473Y-88536434D01*
X137471113Y-88506059D01*
X137520708Y-88477573D01*
X137573305Y-88451036D01*
X137628946Y-88426503D01*
X137687678Y-88404033D01*
X137749544Y-88383683D01*
X137814589Y-88365512D01*
X137882858Y-88349576D01*
X137954395Y-88335934D01*
X138029246Y-88324643D01*
X138107453Y-88315761D01*
X138189063Y-88309345D01*
X138274120Y-88305453D01*
X138362669Y-88304143D01*
X138447254Y-88305586D01*
G37*
G36*
X137118943Y-90985508D02*
G01*
X136075320Y-90985508D01*
X135974991Y-90576084D01*
X135324671Y-90576084D01*
X135228388Y-90985508D01*
X133951960Y-90985508D01*
X134247182Y-90106454D01*
X135433097Y-90106454D01*
X135862596Y-90106454D01*
X135653838Y-89239441D01*
X135633756Y-89239441D01*
X135433097Y-90106454D01*
X134247182Y-90106454D01*
X134838974Y-88344334D01*
X136231847Y-88344334D01*
X136823694Y-90106454D01*
X137118943Y-90985508D01*
G37*
G36*
X133780192Y-90985437D02*
G01*
X131817486Y-90985437D01*
X131817486Y-90150554D01*
X132700534Y-90150554D01*
X132700534Y-88344334D01*
X133780192Y-88344334D01*
X133780192Y-90985437D01*
G37*
G36*
X130850460Y-89179211D02*
G01*
X130236336Y-89179211D01*
X130236336Y-90985437D01*
X129180728Y-90985437D01*
X129180728Y-89179211D01*
X128566604Y-89179211D01*
X128566604Y-88344334D01*
X130850460Y-88344334D01*
X130850460Y-89179211D01*
G37*
G36*
X128469387Y-89729401D02*
G01*
X128464916Y-89807819D01*
X128457474Y-89884045D01*
X128447070Y-89958054D01*
X128433712Y-90029820D01*
X128417407Y-90099317D01*
X128398163Y-90166519D01*
X128375989Y-90231402D01*
X128350893Y-90293938D01*
X128322883Y-90354102D01*
X128291967Y-90411869D01*
X128258152Y-90467213D01*
X128221448Y-90520108D01*
X128181861Y-90570528D01*
X128139401Y-90618448D01*
X128094075Y-90663842D01*
X128045891Y-90706684D01*
X127994858Y-90746948D01*
X127940983Y-90784609D01*
X127884274Y-90819641D01*
X127824740Y-90852019D01*
X127762389Y-90881716D01*
X127697228Y-90908707D01*
X127629266Y-90932965D01*
X127558511Y-90954467D01*
X127484970Y-90973184D01*
X127408653Y-90989093D01*
X127329566Y-91002167D01*
X127247719Y-91012381D01*
X127163119Y-91019708D01*
X127075774Y-91024123D01*
X126985692Y-91025600D01*
X126893122Y-91024032D01*
X126803558Y-91019355D01*
X126716994Y-91011613D01*
X126633428Y-91000850D01*
X126552855Y-90987109D01*
X126475269Y-90970433D01*
X126400667Y-90950866D01*
X126329045Y-90928450D01*
X126260397Y-90903230D01*
X126194720Y-90875249D01*
X126132009Y-90844550D01*
X126072260Y-90811176D01*
X126015468Y-90775171D01*
X125961630Y-90736578D01*
X125910740Y-90695440D01*
X125862794Y-90651802D01*
X125817787Y-90605705D01*
X125775717Y-90557195D01*
X125736577Y-90506313D01*
X125700364Y-90453103D01*
X125667074Y-90397610D01*
X125636701Y-90339875D01*
X125609241Y-90279943D01*
X125584691Y-90217856D01*
X125563046Y-90153659D01*
X125544300Y-90087394D01*
X125528451Y-90019106D01*
X125515493Y-89948836D01*
X125505423Y-89876629D01*
X125498235Y-89802528D01*
X125493925Y-89726576D01*
X125492638Y-89656842D01*
X126588339Y-89656842D01*
X126588853Y-89696276D01*
X126590377Y-89734066D01*
X126592887Y-89770237D01*
X126596359Y-89804816D01*
X126600769Y-89837828D01*
X126606093Y-89869299D01*
X126612306Y-89899254D01*
X126619384Y-89927719D01*
X126627302Y-89954721D01*
X126636038Y-89980284D01*
X126645565Y-90004434D01*
X126655860Y-90027197D01*
X126666900Y-90048600D01*
X126678658Y-90068667D01*
X126691112Y-90087424D01*
X126704237Y-90104897D01*
X126718009Y-90121112D01*
X126732403Y-90136094D01*
X126747395Y-90149869D01*
X126762961Y-90162464D01*
X126779077Y-90173903D01*
X126795718Y-90184212D01*
X126812860Y-90193418D01*
X126830480Y-90201545D01*
X126848552Y-90208620D01*
X126867052Y-90214668D01*
X126885956Y-90219715D01*
X126905241Y-90223786D01*
X126924881Y-90226908D01*
X126944852Y-90229106D01*
X126965131Y-90230406D01*
X126985692Y-90230834D01*
X127025833Y-90229106D01*
X127064833Y-90223786D01*
X127102492Y-90214668D01*
X127138609Y-90201545D01*
X127156028Y-90193418D01*
X127172986Y-90184212D01*
X127189459Y-90173903D01*
X127205422Y-90162464D01*
X127220850Y-90149869D01*
X127235718Y-90136094D01*
X127250000Y-90121112D01*
X127263673Y-90104897D01*
X127276710Y-90087424D01*
X127289088Y-90068667D01*
X127300780Y-90048600D01*
X127311762Y-90027197D01*
X127322009Y-90004434D01*
X127331497Y-89980284D01*
X127340199Y-89954721D01*
X127348091Y-89927719D01*
X127355149Y-89899254D01*
X127361346Y-89869299D01*
X127371061Y-89804816D01*
X127377037Y-89734066D01*
X127379073Y-89656842D01*
X127378560Y-89619573D01*
X127377037Y-89583767D01*
X127374529Y-89549406D01*
X127371061Y-89516472D01*
X127366659Y-89484946D01*
X127361346Y-89454809D01*
X127355149Y-89426045D01*
X127348091Y-89398633D01*
X127340199Y-89372556D01*
X127331497Y-89347796D01*
X127322009Y-89324333D01*
X127311762Y-89302150D01*
X127300780Y-89281228D01*
X127289088Y-89261549D01*
X127276710Y-89243095D01*
X127263673Y-89225847D01*
X127250000Y-89209786D01*
X127235718Y-89194895D01*
X127220850Y-89181154D01*
X127205422Y-89168546D01*
X127189459Y-89157053D01*
X127172986Y-89146655D01*
X127156028Y-89137335D01*
X127138609Y-89129074D01*
X127120756Y-89121853D01*
X127102492Y-89115655D01*
X127083842Y-89110461D01*
X127064833Y-89106253D01*
X127045488Y-89103011D01*
X127025833Y-89100719D01*
X127005893Y-89099357D01*
X126985692Y-89098907D01*
X126944852Y-89100719D01*
X126905241Y-89106253D01*
X126867052Y-89115655D01*
X126830480Y-89129074D01*
X126812860Y-89137335D01*
X126795718Y-89146655D01*
X126779077Y-89157053D01*
X126762961Y-89168546D01*
X126747395Y-89181154D01*
X126732403Y-89194895D01*
X126718009Y-89209786D01*
X126704237Y-89225847D01*
X126691112Y-89243095D01*
X126678658Y-89261549D01*
X126666900Y-89281228D01*
X126655860Y-89302150D01*
X126645565Y-89324333D01*
X126636038Y-89347796D01*
X126627302Y-89372556D01*
X126619384Y-89398633D01*
X126612306Y-89426045D01*
X126606093Y-89454809D01*
X126600769Y-89484946D01*
X126596359Y-89516472D01*
X126590377Y-89583767D01*
X126588339Y-89656842D01*
X125492638Y-89656842D01*
X125492490Y-89648817D01*
X125493993Y-89573622D01*
X125498499Y-89500097D01*
X125505997Y-89428289D01*
X125516480Y-89358244D01*
X125529937Y-89290011D01*
X125546361Y-89223636D01*
X125565743Y-89159165D01*
X125588074Y-89096647D01*
X125613344Y-89036128D01*
X125641545Y-88977655D01*
X125672669Y-88921276D01*
X125706706Y-88867037D01*
X125743648Y-88814985D01*
X125783486Y-88765167D01*
X125826211Y-88717631D01*
X125871814Y-88672423D01*
X125920286Y-88629590D01*
X125971619Y-88589180D01*
X126025803Y-88551240D01*
X126082830Y-88515816D01*
X126142692Y-88482956D01*
X126205378Y-88452706D01*
X126270881Y-88425114D01*
X126339192Y-88400227D01*
X126410302Y-88378091D01*
X126484201Y-88358754D01*
X126560881Y-88342264D01*
X126640334Y-88328666D01*
X126722550Y-88318007D01*
X126807521Y-88310336D01*
X126895238Y-88305699D01*
X126985692Y-88304143D01*
X127075418Y-88305699D01*
X127162452Y-88310336D01*
X127246784Y-88318007D01*
X127328404Y-88328666D01*
X127407302Y-88342264D01*
X127483468Y-88358754D01*
X127556890Y-88378091D01*
X127627559Y-88400227D01*
X127695464Y-88425114D01*
X127760596Y-88452706D01*
X127822943Y-88482956D01*
X127882496Y-88515816D01*
X127939244Y-88551240D01*
X127993177Y-88589180D01*
X128044285Y-88629590D01*
X128092558Y-88672423D01*
X128137984Y-88717631D01*
X128180554Y-88765167D01*
X128220258Y-88814985D01*
X128257085Y-88867037D01*
X128291025Y-88921276D01*
X128322068Y-88977655D01*
X128350203Y-89036128D01*
X128375420Y-89096647D01*
X128397709Y-89159165D01*
X128417060Y-89223636D01*
X128433462Y-89290011D01*
X128446904Y-89358244D01*
X128457378Y-89428289D01*
X128464871Y-89500097D01*
X128469375Y-89573622D01*
X128470879Y-89648817D01*
X128470730Y-89656842D01*
X128469387Y-89729401D01*
G37*
G36*
X124022464Y-89195292D02*
G01*
X124030482Y-89195292D01*
X124411799Y-88344334D01*
X125692278Y-88344334D01*
X124724934Y-89986034D01*
X124724934Y-90985508D01*
X123617096Y-90985508D01*
X123617096Y-89986034D01*
X122645705Y-88344334D01*
X123645196Y-88344334D01*
X124022464Y-89195292D01*
G37*
G36*
X121547617Y-88305196D02*
G01*
X121622486Y-88308331D01*
X121695072Y-88313516D01*
X121765365Y-88320716D01*
X121833354Y-88329897D01*
X121899025Y-88341026D01*
X121962368Y-88354069D01*
X122023371Y-88368991D01*
X122082022Y-88385760D01*
X122138310Y-88404342D01*
X122192221Y-88424702D01*
X122243746Y-88446806D01*
X122292872Y-88470622D01*
X122339587Y-88496115D01*
X122383879Y-88523251D01*
X122425738Y-88551997D01*
X122465150Y-88582318D01*
X122502105Y-88614181D01*
X122536591Y-88647553D01*
X122568595Y-88682399D01*
X122598107Y-88718685D01*
X122625113Y-88756378D01*
X122649604Y-88795444D01*
X122671567Y-88835849D01*
X122690989Y-88877559D01*
X122707860Y-88920540D01*
X122722168Y-88964760D01*
X122733900Y-89010183D01*
X122743046Y-89056776D01*
X122749594Y-89104505D01*
X122753531Y-89153337D01*
X122754845Y-89203238D01*
X122754529Y-89228579D01*
X122753587Y-89253427D01*
X122752025Y-89277781D01*
X122749853Y-89301641D01*
X122747078Y-89325007D01*
X122743709Y-89347880D01*
X122739754Y-89370258D01*
X122735220Y-89392142D01*
X122730116Y-89413533D01*
X122724450Y-89434429D01*
X122718230Y-89454832D01*
X122711464Y-89474740D01*
X122704160Y-89494155D01*
X122696327Y-89513076D01*
X122687971Y-89531503D01*
X122679102Y-89549436D01*
X122669728Y-89566875D01*
X122659856Y-89583820D01*
X122649495Y-89600271D01*
X122638652Y-89616228D01*
X122627336Y-89631691D01*
X122615555Y-89646661D01*
X122603317Y-89661136D01*
X122590630Y-89675118D01*
X122577502Y-89688606D01*
X122563941Y-89701599D01*
X122549955Y-89714099D01*
X122535553Y-89726105D01*
X122520742Y-89737617D01*
X122505531Y-89748635D01*
X122489927Y-89759159D01*
X122473939Y-89769189D01*
X122441848Y-89787491D01*
X122407490Y-89804781D01*
X122371134Y-89821083D01*
X122333052Y-89836422D01*
X122293514Y-89850819D01*
X122252789Y-89864300D01*
X122211148Y-89876886D01*
X122168860Y-89888603D01*
X122083429Y-89909520D01*
X121998656Y-89927238D01*
X121916703Y-89941946D01*
X121839732Y-89953831D01*
X121706149Y-89969634D01*
X121640628Y-89978100D01*
X121577834Y-89986943D01*
X121519178Y-89996162D01*
X121466069Y-90005757D01*
X121419917Y-90015730D01*
X121399891Y-90020857D01*
X121382134Y-90026078D01*
X121372915Y-90028453D01*
X121364068Y-90031060D01*
X121355586Y-90033897D01*
X121347466Y-90036960D01*
X121339701Y-90040246D01*
X121332286Y-90043752D01*
X121325217Y-90047477D01*
X121318488Y-90051416D01*
X121312095Y-90055566D01*
X121306031Y-90059925D01*
X121300292Y-90064490D01*
X121294873Y-90069258D01*
X121289768Y-90074226D01*
X121284972Y-90079391D01*
X121280481Y-90084750D01*
X121276289Y-90090300D01*
X121272391Y-90096038D01*
X121268781Y-90101961D01*
X121265455Y-90108067D01*
X121262408Y-90114352D01*
X121259634Y-90120813D01*
X121257128Y-90127448D01*
X121252901Y-90141226D01*
X121249684Y-90155662D01*
X121247438Y-90170734D01*
X121246120Y-90186417D01*
X121245690Y-90202688D01*
X121246465Y-90222936D01*
X121248880Y-90242943D01*
X121253071Y-90262562D01*
X121259173Y-90281646D01*
X121267320Y-90300048D01*
X121272203Y-90308948D01*
X121277648Y-90317622D01*
X121283673Y-90326051D01*
X121290293Y-90334219D01*
X121297526Y-90342106D01*
X121305389Y-90349693D01*
X121313899Y-90356963D01*
X121323073Y-90363898D01*
X121332927Y-90370478D01*
X121343478Y-90376685D01*
X121354744Y-90382501D01*
X121366741Y-90387908D01*
X121379486Y-90392888D01*
X121392996Y-90397421D01*
X121407288Y-90401490D01*
X121422378Y-90405075D01*
X121438285Y-90408160D01*
X121455024Y-90410725D01*
X121472613Y-90412752D01*
X121491068Y-90414222D01*
X121510407Y-90415118D01*
X121530646Y-90415421D01*
X121550582Y-90415058D01*
X121569750Y-90413974D01*
X121588160Y-90412180D01*
X121605820Y-90409682D01*
X121622739Y-90406491D01*
X121638926Y-90402615D01*
X121654390Y-90398063D01*
X121669139Y-90392843D01*
X121683183Y-90386965D01*
X121696530Y-90380437D01*
X121709188Y-90373268D01*
X121721168Y-90365467D01*
X121732477Y-90357043D01*
X121743125Y-90348005D01*
X121753120Y-90338361D01*
X121762470Y-90328120D01*
X121771186Y-90317291D01*
X121779276Y-90305883D01*
X121786748Y-90293905D01*
X121793612Y-90281365D01*
X121799876Y-90268273D01*
X121805548Y-90254637D01*
X121810639Y-90240465D01*
X121815157Y-90225768D01*
X121819109Y-90210553D01*
X121822507Y-90194829D01*
X121827669Y-90161891D01*
X121830715Y-90127025D01*
X121831715Y-90090301D01*
X122746830Y-90090301D01*
X122744360Y-90176871D01*
X122736289Y-90263013D01*
X122721621Y-90348013D01*
X122699363Y-90431162D01*
X122668522Y-90511747D01*
X122649572Y-90550856D01*
X122628104Y-90589057D01*
X122603992Y-90626262D01*
X122577114Y-90662381D01*
X122547344Y-90697326D01*
X122514558Y-90731007D01*
X122478633Y-90763336D01*
X122439444Y-90794224D01*
X122396866Y-90823581D01*
X122350776Y-90851320D01*
X122301049Y-90877350D01*
X122247561Y-90901583D01*
X122190188Y-90923931D01*
X122128806Y-90944304D01*
X122063289Y-90962613D01*
X121993515Y-90978769D01*
X121919359Y-90992684D01*
X121840696Y-91004268D01*
X121757403Y-91013433D01*
X121669355Y-91020089D01*
X121576428Y-91024148D01*
X121478497Y-91025521D01*
X121381099Y-91024262D01*
X121288284Y-91020533D01*
X121199953Y-91014402D01*
X121116010Y-91005938D01*
X121036357Y-90995210D01*
X120960895Y-90982288D01*
X120889528Y-90967241D01*
X120822156Y-90950137D01*
X120758683Y-90931045D01*
X120699011Y-90910036D01*
X120643042Y-90887177D01*
X120590678Y-90862538D01*
X120541821Y-90836189D01*
X120496374Y-90808197D01*
X120454239Y-90778633D01*
X120415318Y-90747564D01*
X120379514Y-90715062D01*
X120346728Y-90681193D01*
X120316862Y-90646029D01*
X120289820Y-90609637D01*
X120265503Y-90572086D01*
X120243813Y-90533446D01*
X120224653Y-90493787D01*
X120207925Y-90453176D01*
X120193531Y-90411683D01*
X120181374Y-90369377D01*
X120171355Y-90326328D01*
X120163377Y-90282604D01*
X120157342Y-90238274D01*
X120153153Y-90193408D01*
X120149918Y-90102342D01*
X120150235Y-90077376D01*
X120151182Y-90052902D01*
X120152755Y-90028918D01*
X120154950Y-90005421D01*
X120157762Y-89982409D01*
X120161187Y-89959880D01*
X120165220Y-89937831D01*
X120169857Y-89916261D01*
X120175094Y-89895168D01*
X120180926Y-89874548D01*
X120187349Y-89854400D01*
X120194359Y-89834722D01*
X120201950Y-89815512D01*
X120210119Y-89796766D01*
X120218861Y-89778484D01*
X120228172Y-89760662D01*
X120238047Y-89743300D01*
X120248482Y-89726393D01*
X120259473Y-89709941D01*
X120271015Y-89693940D01*
X120283104Y-89678390D01*
X120295735Y-89663287D01*
X120308904Y-89648630D01*
X120322606Y-89634415D01*
X120336838Y-89620642D01*
X120351595Y-89607307D01*
X120366872Y-89594409D01*
X120382664Y-89581946D01*
X120398969Y-89569914D01*
X120415780Y-89558312D01*
X120433095Y-89547139D01*
X120450907Y-89536390D01*
X120480174Y-89521049D01*
X120510782Y-89506601D01*
X120542754Y-89492999D01*
X120576113Y-89480197D01*
X120610882Y-89468148D01*
X120647086Y-89456804D01*
X120723888Y-89436044D01*
X120806707Y-89417543D01*
X120895729Y-89400922D01*
X120991141Y-89385808D01*
X121093131Y-89371822D01*
X121256087Y-89348365D01*
X121329795Y-89336966D01*
X121397196Y-89325662D01*
X121457446Y-89314357D01*
X121509700Y-89302959D01*
X121532565Y-89297194D01*
X121553114Y-89291371D01*
X121571242Y-89285477D01*
X121586843Y-89279501D01*
X121597854Y-89273243D01*
X121608281Y-89266496D01*
X121618108Y-89259244D01*
X121627316Y-89251469D01*
X121635889Y-89243152D01*
X121643808Y-89234277D01*
X121651056Y-89224826D01*
X121657616Y-89214781D01*
X121663470Y-89204124D01*
X121668601Y-89192838D01*
X121672990Y-89180906D01*
X121676620Y-89168309D01*
X121679475Y-89155030D01*
X121681535Y-89141051D01*
X121682784Y-89126355D01*
X121683205Y-89110924D01*
X121682923Y-89100825D01*
X121682077Y-89090856D01*
X121680671Y-89081029D01*
X121678704Y-89071358D01*
X121676178Y-89061854D01*
X121673095Y-89052530D01*
X121669456Y-89043399D01*
X121665263Y-89034472D01*
X121660518Y-89025764D01*
X121655221Y-89017285D01*
X121649374Y-89009049D01*
X121642979Y-89001068D01*
X121636037Y-88993354D01*
X121628550Y-88985921D01*
X121620519Y-88978780D01*
X121611946Y-88971944D01*
X121602831Y-88965426D01*
X121593178Y-88959237D01*
X121582986Y-88953391D01*
X121572258Y-88947900D01*
X121549198Y-88938033D01*
X121524011Y-88929736D01*
X121496707Y-88923109D01*
X121467299Y-88918251D01*
X121435799Y-88915263D01*
X121402218Y-88914245D01*
X121366378Y-88915424D01*
X121349244Y-88916901D01*
X121332639Y-88918972D01*
X121316565Y-88921641D01*
X121301028Y-88924908D01*
X121286030Y-88928776D01*
X121271576Y-88933248D01*
X121257669Y-88938325D01*
X121244312Y-88944011D01*
X121231509Y-88950306D01*
X121219264Y-88957213D01*
X121207581Y-88964735D01*
X121196464Y-88972874D01*
X121185915Y-88981631D01*
X121175938Y-88991009D01*
X121166538Y-89001011D01*
X121157718Y-89011638D01*
X121149482Y-89022892D01*
X121141832Y-89034777D01*
X121134774Y-89047293D01*
X121128310Y-89060444D01*
X121122444Y-89074231D01*
X121117181Y-89088657D01*
X121112522Y-89103724D01*
X121108473Y-89119433D01*
X121105037Y-89135789D01*
X121102218Y-89152791D01*
X121100018Y-89170443D01*
X121098443Y-89188747D01*
X121097495Y-89207705D01*
X121097178Y-89227320D01*
X120238182Y-89227320D01*
X120241394Y-89124349D01*
X120251456Y-89026316D01*
X120269010Y-88933458D01*
X120294696Y-88846008D01*
X120310789Y-88804386D01*
X120329155Y-88764203D01*
X120349875Y-88725491D01*
X120373028Y-88688278D01*
X120398695Y-88652594D01*
X120426955Y-88618468D01*
X120457890Y-88585929D01*
X120491578Y-88555007D01*
X120528100Y-88525731D01*
X120567536Y-88498131D01*
X120609967Y-88472237D01*
X120655472Y-88448076D01*
X120704131Y-88425680D01*
X120756025Y-88405077D01*
X120811233Y-88386296D01*
X120869836Y-88369368D01*
X120931914Y-88354321D01*
X120997546Y-88341185D01*
X121066814Y-88329989D01*
X121139797Y-88320763D01*
X121297227Y-88308337D01*
X121470480Y-88304143D01*
X121547617Y-88305196D01*
G37*
G36*
X122191596Y-79971454D02*
G01*
X122282968Y-79978402D01*
X122373012Y-79989844D01*
X122461613Y-80005666D01*
X122548660Y-80025757D01*
X122634040Y-80050002D01*
X122717639Y-80078288D01*
X122799344Y-80110504D01*
X122879042Y-80146534D01*
X122956620Y-80186268D01*
X123031966Y-80229590D01*
X123104965Y-80276389D01*
X123175506Y-80326552D01*
X123243474Y-80379965D01*
X123308758Y-80436515D01*
X123371243Y-80496089D01*
X123430817Y-80558574D01*
X123487367Y-80623858D01*
X123540780Y-80691826D01*
X123590942Y-80762367D01*
X123637741Y-80835366D01*
X123681064Y-80910712D01*
X123720797Y-80988290D01*
X123756828Y-81067988D01*
X123789043Y-81149693D01*
X123817329Y-81233292D01*
X123841574Y-81318671D01*
X123861664Y-81405718D01*
X123877487Y-81494320D01*
X123888929Y-81584363D01*
X123895877Y-81675735D01*
X123898218Y-81768322D01*
X123895877Y-81860908D01*
X123888929Y-81952279D01*
X123877487Y-82042321D01*
X123861664Y-82130922D01*
X123841574Y-82217968D01*
X123817329Y-82303347D01*
X123789043Y-82386945D01*
X123756828Y-82468650D01*
X123720797Y-82548348D01*
X123681064Y-82625926D01*
X123637741Y-82701272D01*
X123590942Y-82774271D01*
X123540780Y-82844812D01*
X123487367Y-82912781D01*
X123430817Y-82978065D01*
X123371243Y-83040550D01*
X123308758Y-83100125D01*
X123243474Y-83156675D01*
X123175506Y-83210088D01*
X123104965Y-83260251D01*
X123031966Y-83307051D01*
X122956620Y-83350374D01*
X122879042Y-83390107D01*
X122799344Y-83426138D01*
X122717639Y-83458354D01*
X122634040Y-83486641D01*
X122548660Y-83510886D01*
X122461613Y-83530977D01*
X122373012Y-83546800D01*
X122282968Y-83558242D01*
X122191596Y-83565190D01*
X122099009Y-83567531D01*
X122006421Y-83565190D01*
X121915050Y-83558242D01*
X121825006Y-83546800D01*
X121736404Y-83530977D01*
X121649357Y-83510886D01*
X121563978Y-83486641D01*
X121480379Y-83458354D01*
X121398674Y-83426138D01*
X121318976Y-83390107D01*
X121241397Y-83350374D01*
X121166052Y-83307051D01*
X121093052Y-83260251D01*
X121022512Y-83210088D01*
X120954543Y-83156675D01*
X120889260Y-83100125D01*
X120826775Y-83040550D01*
X120767201Y-82978065D01*
X120710651Y-82912781D01*
X120657238Y-82844812D01*
X120607076Y-82774271D01*
X120560277Y-82701272D01*
X120516954Y-82625926D01*
X120477221Y-82548348D01*
X120441190Y-82468650D01*
X120408975Y-82386945D01*
X120380689Y-82303347D01*
X120356444Y-82217968D01*
X120336354Y-82130922D01*
X120320531Y-82042321D01*
X120309089Y-81952279D01*
X120302141Y-81860908D01*
X120299800Y-81768322D01*
X120302141Y-81675735D01*
X120309089Y-81584363D01*
X120320531Y-81494320D01*
X120336354Y-81405718D01*
X120356444Y-81318671D01*
X120380689Y-81233292D01*
X120408975Y-81149693D01*
X120441190Y-81067988D01*
X120477221Y-80988290D01*
X120516954Y-80910712D01*
X120560277Y-80835366D01*
X120607076Y-80762367D01*
X120657238Y-80691826D01*
X120710651Y-80623858D01*
X120767201Y-80558574D01*
X120826775Y-80496089D01*
X120889260Y-80436515D01*
X120954543Y-80379965D01*
X121022512Y-80326552D01*
X121093052Y-80276389D01*
X121166052Y-80229590D01*
X121241397Y-80186268D01*
X121318976Y-80146534D01*
X121398674Y-80110504D01*
X121480379Y-80078288D01*
X121563978Y-80050002D01*
X121649357Y-80025757D01*
X121736404Y-80005666D01*
X121825006Y-79989844D01*
X121915050Y-79978402D01*
X122006421Y-79971454D01*
X122099009Y-79969113D01*
X122191596Y-79971454D01*
G37*
G36*
X126213130Y-83993052D02*
G01*
X126304502Y-84000000D01*
X126394545Y-84011441D01*
X126483147Y-84027264D01*
X126570194Y-84047354D01*
X126655573Y-84071599D01*
X126739172Y-84099885D01*
X126820877Y-84132100D01*
X126900575Y-84168131D01*
X126978153Y-84207864D01*
X127053499Y-84251187D01*
X127126498Y-84297985D01*
X127197039Y-84348147D01*
X127265007Y-84401560D01*
X127330291Y-84458109D01*
X127392776Y-84517683D01*
X127452350Y-84580168D01*
X127508900Y-84645451D01*
X127562313Y-84713419D01*
X127612476Y-84783959D01*
X127659275Y-84856958D01*
X127702597Y-84932303D01*
X127742331Y-85009880D01*
X127778361Y-85089578D01*
X127810577Y-85171282D01*
X127838863Y-85254880D01*
X127863108Y-85340258D01*
X127883199Y-85427304D01*
X127899021Y-85515905D01*
X127910463Y-85605947D01*
X127917411Y-85697318D01*
X127919752Y-85789904D01*
X127917411Y-85882491D01*
X127910463Y-85973863D01*
X127899021Y-86063906D01*
X127883199Y-86152508D01*
X127863108Y-86239555D01*
X127838863Y-86324935D01*
X127810577Y-86408534D01*
X127778361Y-86490239D01*
X127742331Y-86569937D01*
X127702597Y-86647515D01*
X127659275Y-86722861D01*
X127612476Y-86795860D01*
X127562313Y-86866401D01*
X127508900Y-86934369D01*
X127452350Y-86999653D01*
X127392776Y-87062138D01*
X127330291Y-87121712D01*
X127265007Y-87178262D01*
X127197039Y-87231674D01*
X127126498Y-87281837D01*
X127053499Y-87328636D01*
X126978153Y-87371958D01*
X126900575Y-87411692D01*
X126820877Y-87447722D01*
X126739172Y-87479937D01*
X126655573Y-87508224D01*
X126570194Y-87532469D01*
X126483147Y-87552559D01*
X126394545Y-87568381D01*
X126304502Y-87579823D01*
X126213130Y-87586771D01*
X126120543Y-87589112D01*
X126027957Y-87586771D01*
X125936586Y-87579823D01*
X125846544Y-87568381D01*
X125757943Y-87552559D01*
X125670897Y-87532469D01*
X125585518Y-87508224D01*
X125501920Y-87479937D01*
X125420215Y-87447722D01*
X125340517Y-87411692D01*
X125262939Y-87371958D01*
X125187593Y-87328636D01*
X125114594Y-87281837D01*
X125044053Y-87231674D01*
X124976084Y-87178262D01*
X124910800Y-87121712D01*
X124848315Y-87062138D01*
X124788740Y-86999653D01*
X124732190Y-86934369D01*
X124678777Y-86866401D01*
X124628614Y-86795860D01*
X124581814Y-86722861D01*
X124538491Y-86647515D01*
X124498758Y-86569937D01*
X124462727Y-86490239D01*
X124430511Y-86408534D01*
X124402224Y-86324935D01*
X124377979Y-86239555D01*
X124357888Y-86152508D01*
X124342065Y-86063906D01*
X124330623Y-85973863D01*
X124323675Y-85882491D01*
X124321334Y-85789904D01*
X124323675Y-85697318D01*
X124330623Y-85605947D01*
X124342065Y-85515905D01*
X124357888Y-85427304D01*
X124377979Y-85340258D01*
X124402224Y-85254880D01*
X124430511Y-85171282D01*
X124462727Y-85089578D01*
X124498758Y-85009880D01*
X124538491Y-84932303D01*
X124581814Y-84856958D01*
X124628614Y-84783959D01*
X124678777Y-84713419D01*
X124732190Y-84645451D01*
X124788740Y-84580168D01*
X124848315Y-84517683D01*
X124910800Y-84458109D01*
X124976084Y-84401560D01*
X125044053Y-84348147D01*
X125114594Y-84297985D01*
X125187593Y-84251187D01*
X125262939Y-84207864D01*
X125340517Y-84168131D01*
X125420215Y-84132100D01*
X125501920Y-84099885D01*
X125585518Y-84071599D01*
X125670897Y-84047354D01*
X125757943Y-84027264D01*
X125846544Y-84011441D01*
X125936586Y-84000000D01*
X126027957Y-83993052D01*
X126120543Y-83990710D01*
X126213130Y-83993052D01*
G37*
G36*
X123898218Y-87210335D02*
G01*
X123897725Y-87229827D01*
X123896262Y-87249064D01*
X123893853Y-87268021D01*
X123890522Y-87286674D01*
X123886292Y-87305000D01*
X123881188Y-87322975D01*
X123875233Y-87340574D01*
X123868450Y-87357775D01*
X123860865Y-87374554D01*
X123852500Y-87390886D01*
X123843379Y-87406748D01*
X123833526Y-87422116D01*
X123822966Y-87436967D01*
X123811721Y-87451276D01*
X123799815Y-87465019D01*
X123787273Y-87478174D01*
X123774118Y-87490716D01*
X123760375Y-87502621D01*
X123746065Y-87513865D01*
X123731215Y-87524425D01*
X123715847Y-87534277D01*
X123699985Y-87543398D01*
X123683652Y-87551762D01*
X123666874Y-87559347D01*
X123649673Y-87566129D01*
X123632074Y-87572084D01*
X123614100Y-87577188D01*
X123595775Y-87581417D01*
X123577123Y-87584748D01*
X123558167Y-87587157D01*
X123538931Y-87588619D01*
X123519440Y-87589112D01*
X120678577Y-87589112D01*
X120659086Y-87588619D01*
X120639851Y-87587157D01*
X120620895Y-87584748D01*
X120602243Y-87581417D01*
X120583918Y-87577188D01*
X120565944Y-87572084D01*
X120548344Y-87566129D01*
X120531144Y-87559347D01*
X120514365Y-87551762D01*
X120498033Y-87543398D01*
X120482171Y-87534277D01*
X120466803Y-87524425D01*
X120451952Y-87513865D01*
X120437643Y-87502621D01*
X120423899Y-87490716D01*
X120410744Y-87478174D01*
X120398202Y-87465019D01*
X120386297Y-87451276D01*
X120375052Y-87436967D01*
X120364491Y-87422116D01*
X120354639Y-87406748D01*
X120345518Y-87390886D01*
X120337153Y-87374554D01*
X120329567Y-87357775D01*
X120322785Y-87340574D01*
X120316830Y-87322975D01*
X120311726Y-87305000D01*
X120307496Y-87286674D01*
X120304165Y-87268021D01*
X120301756Y-87249064D01*
X120300293Y-87229827D01*
X120299800Y-87210335D01*
X120299800Y-85127043D01*
X120678577Y-85127043D01*
X120679563Y-85166027D01*
X120682488Y-85204499D01*
X120687306Y-85242411D01*
X120693968Y-85279717D01*
X120702427Y-85316368D01*
X120712636Y-85352317D01*
X120724546Y-85387516D01*
X120738110Y-85421917D01*
X120753281Y-85455474D01*
X120770011Y-85488139D01*
X120788252Y-85519863D01*
X120807957Y-85550599D01*
X120829078Y-85580300D01*
X120851568Y-85608918D01*
X120875378Y-85636406D01*
X120900462Y-85662715D01*
X120926772Y-85687799D01*
X120954260Y-85711609D01*
X120982879Y-85734099D01*
X121012580Y-85755220D01*
X121043317Y-85774924D01*
X121075042Y-85793165D01*
X121107707Y-85809895D01*
X121141265Y-85825066D01*
X121175668Y-85838630D01*
X121210868Y-85850540D01*
X121246818Y-85860748D01*
X121283470Y-85869208D01*
X121320777Y-85875870D01*
X121358690Y-85880687D01*
X121397164Y-85883613D01*
X121436149Y-85884598D01*
X121436149Y-86547475D01*
X121437011Y-86581586D01*
X121439571Y-86615249D01*
X121443786Y-86648423D01*
X121449615Y-86681066D01*
X121457017Y-86713135D01*
X121465949Y-86744591D01*
X121476370Y-86775390D01*
X121488239Y-86805492D01*
X121501513Y-86834854D01*
X121516151Y-86863435D01*
X121532112Y-86891194D01*
X121549353Y-86918088D01*
X121567834Y-86944077D01*
X121587512Y-86969117D01*
X121608346Y-86993169D01*
X121630294Y-87016189D01*
X121653314Y-87038138D01*
X121677366Y-87058971D01*
X121702407Y-87078649D01*
X121728395Y-87097130D01*
X121755289Y-87114371D01*
X121783048Y-87130332D01*
X121811629Y-87144970D01*
X121840991Y-87158245D01*
X121871093Y-87170113D01*
X121901892Y-87180534D01*
X121933348Y-87189466D01*
X121965418Y-87196868D01*
X121998060Y-87202697D01*
X122031234Y-87206912D01*
X122064898Y-87209472D01*
X122099009Y-87210335D01*
X122133120Y-87209472D01*
X122166783Y-87206912D01*
X122199957Y-87202697D01*
X122232600Y-87196868D01*
X122264670Y-87189466D01*
X122296125Y-87180534D01*
X122326925Y-87170113D01*
X122357027Y-87158245D01*
X122386389Y-87144970D01*
X122414970Y-87130332D01*
X122442729Y-87114371D01*
X122469623Y-87097130D01*
X122495611Y-87078649D01*
X122520652Y-87058971D01*
X122544704Y-87038138D01*
X122567724Y-87016189D01*
X122589672Y-86993169D01*
X122610506Y-86969117D01*
X122630184Y-86944077D01*
X122648665Y-86918088D01*
X122665906Y-86891194D01*
X122681867Y-86863435D01*
X122696505Y-86834854D01*
X122709779Y-86805492D01*
X122721648Y-86775390D01*
X122732069Y-86744591D01*
X122741001Y-86713135D01*
X122748403Y-86681066D01*
X122754232Y-86648423D01*
X122758447Y-86615249D01*
X122761007Y-86581586D01*
X122761869Y-86547475D01*
X122761869Y-85884598D01*
X122800855Y-85883613D01*
X122839328Y-85880687D01*
X122877242Y-85875870D01*
X122914548Y-85869208D01*
X122951200Y-85860748D01*
X122987150Y-85850540D01*
X123022350Y-85838630D01*
X123056753Y-85825066D01*
X123090311Y-85809895D01*
X123122976Y-85793165D01*
X123154700Y-85774924D01*
X123185437Y-85755220D01*
X123215139Y-85734099D01*
X123243758Y-85711609D01*
X123271246Y-85687799D01*
X123297555Y-85662715D01*
X123322639Y-85636406D01*
X123346450Y-85608918D01*
X123368940Y-85580300D01*
X123390061Y-85550599D01*
X123409766Y-85519863D01*
X123428007Y-85488139D01*
X123444737Y-85455474D01*
X123459908Y-85421917D01*
X123473472Y-85387516D01*
X123485382Y-85352317D01*
X123495590Y-85316368D01*
X123504049Y-85279717D01*
X123510712Y-85242411D01*
X123515529Y-85204499D01*
X123518455Y-85166027D01*
X123519440Y-85127043D01*
X123518455Y-85088059D01*
X123515529Y-85049588D01*
X123510712Y-85011675D01*
X123504049Y-84974369D01*
X123495590Y-84937718D01*
X123485382Y-84901770D01*
X123473472Y-84866570D01*
X123459908Y-84832169D01*
X123444737Y-84798612D01*
X123428007Y-84765948D01*
X123409766Y-84734224D01*
X123390061Y-84703487D01*
X123368940Y-84673786D01*
X123346450Y-84645168D01*
X123322639Y-84617680D01*
X123297555Y-84591371D01*
X123271246Y-84566287D01*
X123243758Y-84542477D01*
X123215139Y-84519988D01*
X123185437Y-84498867D01*
X123154700Y-84479162D01*
X123122976Y-84460921D01*
X123090311Y-84444191D01*
X123056753Y-84429021D01*
X123022350Y-84415456D01*
X122987150Y-84403546D01*
X122951200Y-84393338D01*
X122914548Y-84384879D01*
X122877242Y-84378217D01*
X122839328Y-84373399D01*
X122800855Y-84370474D01*
X122761869Y-84369488D01*
X121436149Y-84369488D01*
X121397164Y-84370474D01*
X121358690Y-84373399D01*
X121320777Y-84378217D01*
X121283470Y-84384879D01*
X121246818Y-84393338D01*
X121210868Y-84403546D01*
X121175668Y-84415456D01*
X121141265Y-84429021D01*
X121107707Y-84444191D01*
X121075042Y-84460921D01*
X121043317Y-84479162D01*
X121012580Y-84498867D01*
X120982879Y-84519988D01*
X120954260Y-84542477D01*
X120926772Y-84566287D01*
X120900462Y-84591371D01*
X120875378Y-84617680D01*
X120851568Y-84645168D01*
X120829078Y-84673786D01*
X120807957Y-84703487D01*
X120788252Y-84734224D01*
X120770011Y-84765948D01*
X120753281Y-84798612D01*
X120738110Y-84832169D01*
X120724546Y-84866570D01*
X120712636Y-84901770D01*
X120702427Y-84937718D01*
X120693968Y-84974369D01*
X120687306Y-85011675D01*
X120682488Y-85049588D01*
X120679563Y-85088059D01*
X120678577Y-85127043D01*
X120299800Y-85127043D01*
X120299800Y-84369488D01*
X120300293Y-84349996D01*
X120301756Y-84330759D01*
X120304165Y-84311802D01*
X120307496Y-84293149D01*
X120311726Y-84274823D01*
X120316830Y-84256848D01*
X120322785Y-84239249D01*
X120329567Y-84222048D01*
X120337153Y-84205269D01*
X120345518Y-84188937D01*
X120354639Y-84173075D01*
X120364491Y-84157707D01*
X120375052Y-84142856D01*
X120386297Y-84128547D01*
X120398202Y-84114804D01*
X120410744Y-84101649D01*
X120423899Y-84089107D01*
X120437643Y-84077202D01*
X120451952Y-84065958D01*
X120466803Y-84055398D01*
X120482171Y-84045546D01*
X120498033Y-84036425D01*
X120514365Y-84028061D01*
X120531144Y-84020476D01*
X120548344Y-84013694D01*
X120565944Y-84007739D01*
X120583918Y-84002635D01*
X120602243Y-83998406D01*
X120620895Y-83995075D01*
X120639851Y-83992666D01*
X120659086Y-83991203D01*
X120678577Y-83990710D01*
X123519440Y-83990710D01*
X123538931Y-83991203D01*
X123558167Y-83992666D01*
X123577123Y-83995075D01*
X123595775Y-83998406D01*
X123614100Y-84002635D01*
X123632074Y-84007739D01*
X123649673Y-84013694D01*
X123666874Y-84020476D01*
X123683652Y-84028061D01*
X123699985Y-84036425D01*
X123715847Y-84045546D01*
X123731215Y-84055398D01*
X123746065Y-84065958D01*
X123760375Y-84077202D01*
X123774118Y-84089107D01*
X123787273Y-84101649D01*
X123799815Y-84114804D01*
X123811721Y-84128547D01*
X123822966Y-84142856D01*
X123833526Y-84157707D01*
X123843379Y-84173075D01*
X123852500Y-84188937D01*
X123860865Y-84205269D01*
X123868450Y-84222048D01*
X123875233Y-84239249D01*
X123881188Y-84256848D01*
X123886292Y-84274823D01*
X123890522Y-84293149D01*
X123893853Y-84311802D01*
X123896262Y-84330759D01*
X123897725Y-84349996D01*
X123898218Y-84369488D01*
X123898218Y-85127043D01*
X123898218Y-87210335D01*
G37*
G36*
X124902917Y-79969579D02*
G01*
X124921572Y-79970966D01*
X124940068Y-79973264D01*
X124958375Y-79976458D01*
X124976461Y-79980537D01*
X124994296Y-79985486D01*
X125011848Y-79991293D01*
X125029085Y-79997946D01*
X125045978Y-80005431D01*
X125062495Y-80013736D01*
X125078605Y-80022847D01*
X125094277Y-80032752D01*
X125109480Y-80043439D01*
X125124182Y-80054893D01*
X125138353Y-80067103D01*
X125151962Y-80080055D01*
X125852700Y-80780799D01*
X125866832Y-80794233D01*
X125881468Y-80806801D01*
X125896576Y-80818502D01*
X125912121Y-80829336D01*
X125928070Y-80839303D01*
X125944389Y-80848404D01*
X125961045Y-80856638D01*
X125978004Y-80864005D01*
X125995233Y-80870506D01*
X126012697Y-80876140D01*
X126030362Y-80880907D01*
X126048197Y-80884807D01*
X126066165Y-80887841D01*
X126084235Y-80890007D01*
X126102372Y-80891308D01*
X126120543Y-80891741D01*
X126138714Y-80891308D01*
X126156851Y-80890007D01*
X126174920Y-80887841D01*
X126192889Y-80884807D01*
X126210723Y-80880907D01*
X126228389Y-80876140D01*
X126245853Y-80870506D01*
X126263081Y-80864005D01*
X126280040Y-80856638D01*
X126296696Y-80848404D01*
X126313015Y-80839303D01*
X126328964Y-80829336D01*
X126344509Y-80818502D01*
X126359617Y-80806801D01*
X126374253Y-80794233D01*
X126388384Y-80780799D01*
X127089128Y-80080055D01*
X127102738Y-80067103D01*
X127116911Y-80054893D01*
X127131614Y-80043439D01*
X127146818Y-80032752D01*
X127162491Y-80022847D01*
X127178601Y-80013736D01*
X127195119Y-80005431D01*
X127212013Y-79997946D01*
X127229251Y-79991293D01*
X127246803Y-79985486D01*
X127264638Y-79980537D01*
X127282724Y-79976458D01*
X127301031Y-79973264D01*
X127319528Y-79970966D01*
X127338183Y-79969579D01*
X127356966Y-79969113D01*
X127540971Y-79969113D01*
X127560463Y-79969606D01*
X127579699Y-79971069D01*
X127598656Y-79973477D01*
X127617309Y-79976808D01*
X127635634Y-79981038D01*
X127653609Y-79986142D01*
X127671209Y-79992097D01*
X127688410Y-79998880D01*
X127705188Y-80006465D01*
X127721521Y-80014830D01*
X127737383Y-80023950D01*
X127752751Y-80033803D01*
X127767602Y-80044363D01*
X127781911Y-80055608D01*
X127795655Y-80067513D01*
X127808810Y-80080055D01*
X127821352Y-80093210D01*
X127833257Y-80106954D01*
X127844502Y-80121263D01*
X127855062Y-80136114D01*
X127864915Y-80151482D01*
X127874035Y-80167344D01*
X127882400Y-80183677D01*
X127889985Y-80200455D01*
X127896768Y-80217656D01*
X127902723Y-80235256D01*
X127907827Y-80253231D01*
X127912057Y-80271556D01*
X127915388Y-80290209D01*
X127917796Y-80309166D01*
X127919259Y-80328402D01*
X127919752Y-80347894D01*
X127919752Y-83188737D01*
X127919259Y-83208230D01*
X127917796Y-83227467D01*
X127915388Y-83246424D01*
X127912057Y-83265077D01*
X127907827Y-83283403D01*
X127902723Y-83301379D01*
X127896768Y-83318979D01*
X127889985Y-83336181D01*
X127882400Y-83352960D01*
X127874035Y-83369292D01*
X127864915Y-83385155D01*
X127855062Y-83400524D01*
X127844502Y-83415375D01*
X127833257Y-83429685D01*
X127821352Y-83443429D01*
X127808810Y-83456584D01*
X127795655Y-83469127D01*
X127781911Y-83481033D01*
X127767602Y-83492278D01*
X127752751Y-83502839D01*
X127737383Y-83512691D01*
X127721521Y-83521812D01*
X127705188Y-83530178D01*
X127688410Y-83537763D01*
X127671209Y-83544546D01*
X127653609Y-83550501D01*
X127635634Y-83555605D01*
X127617309Y-83559835D01*
X127598656Y-83563166D01*
X127579699Y-83565575D01*
X127560463Y-83567038D01*
X127540971Y-83567531D01*
X124700128Y-83567531D01*
X124680635Y-83567038D01*
X124661398Y-83565575D01*
X124642441Y-83563166D01*
X124623788Y-83559835D01*
X124605462Y-83555605D01*
X124587486Y-83550501D01*
X124569886Y-83544546D01*
X124552684Y-83537763D01*
X124535905Y-83530178D01*
X124519573Y-83521812D01*
X124503710Y-83512691D01*
X124488341Y-83502839D01*
X124473490Y-83492278D01*
X124459180Y-83481033D01*
X124445436Y-83469127D01*
X124432281Y-83456584D01*
X124419738Y-83443429D01*
X124407832Y-83429685D01*
X124396587Y-83415375D01*
X124386026Y-83400524D01*
X124376174Y-83385155D01*
X124367053Y-83369292D01*
X124358687Y-83352960D01*
X124351102Y-83336181D01*
X124344319Y-83318979D01*
X124338364Y-83301379D01*
X124333260Y-83283403D01*
X124329030Y-83265077D01*
X124325699Y-83246424D01*
X124323290Y-83227467D01*
X124321827Y-83208230D01*
X124321334Y-83188737D01*
X124321334Y-80347894D01*
X124321827Y-80328402D01*
X124323290Y-80309166D01*
X124325699Y-80290209D01*
X124329030Y-80271556D01*
X124333260Y-80253231D01*
X124338364Y-80235256D01*
X124344319Y-80217656D01*
X124351102Y-80200455D01*
X124358687Y-80183677D01*
X124367053Y-80167344D01*
X124376174Y-80151482D01*
X124386026Y-80136114D01*
X124396587Y-80121263D01*
X124407832Y-80106954D01*
X124419738Y-80093210D01*
X124432281Y-80080055D01*
X124445436Y-80067513D01*
X124459180Y-80055608D01*
X124473490Y-80044363D01*
X124488341Y-80033803D01*
X124503710Y-80023950D01*
X124519573Y-80014830D01*
X124535905Y-80006465D01*
X124552684Y-79998880D01*
X124569886Y-79992097D01*
X124587486Y-79986142D01*
X124605462Y-79981038D01*
X124623788Y-79976808D01*
X124642441Y-79973477D01*
X124661398Y-79971069D01*
X124680635Y-79969606D01*
X124700128Y-79969113D01*
X124884135Y-79969113D01*
X124902917Y-79969579D01*
G37*
M02*
