%TF.GenerationSoftware,KiCad,Pcbnew,7.0.10*%
%TF.CreationDate,2024-04-11T21:52:28-07:00*%
%TF.ProjectId,magical toys integration pcbrev4,6d616769-6361-46c2-9074-6f797320696e,rev?*%
%TF.SameCoordinates,Original*%
%TF.FileFunction,Legend,Top*%
%TF.FilePolarity,Positive*%
%FSLAX46Y46*%
G04 Gerber Fmt 4.6, Leading zero omitted, Abs format (unit mm)*
G04 Created by KiCad (PCBNEW 7.0.10) date 2024-04-11 21:52:28*
%MOMM*%
%LPD*%
G01*
G04 APERTURE LIST*
%ADD10C,0.150000*%
%ADD11C,0.120000*%
%ADD12C,0.152400*%
G04 APERTURE END LIST*
D10*
X140025000Y-92515000D02*
X148525000Y-92515000D01*
X148525000Y-85015000D02*
X140025000Y-85015000D01*
X186025000Y-116015000D02*
X186025000Y-86015000D01*
X175300000Y-85065000D02*
X175300000Y-78065000D01*
X136025000Y-92515000D02*
X136025000Y-85015000D01*
X142474999Y-107885000D02*
X142474999Y-94085000D01*
X189725000Y-104365000D02*
X169375000Y-104365000D01*
X122474999Y-94085000D02*
X122474999Y-107885001D01*
X142474999Y-94085000D02*
X122474999Y-94085000D01*
X127525000Y-85015000D02*
X127525000Y-92515000D01*
X136025000Y-85015000D02*
X127525000Y-85015000D01*
X127525000Y-92515000D02*
X136025000Y-92515000D01*
X122474999Y-107885001D02*
X142474999Y-107885000D01*
X121025000Y-86015000D02*
X121025000Y-116015000D01*
X183800000Y-78065000D02*
X183800000Y-85065000D01*
X186025000Y-86015000D02*
X121025000Y-86015000D01*
X140025000Y-85015000D02*
X140025000Y-92515000D01*
X175300000Y-78065000D02*
X183800000Y-78065000D01*
X169375000Y-79365000D02*
X189725000Y-79365000D01*
X189725000Y-79365000D02*
X189725000Y-104365000D01*
X121025000Y-116015000D02*
X186025000Y-116015000D01*
X169375000Y-104365000D02*
X169375000Y-79365000D01*
X183800000Y-85065000D02*
X175300000Y-85065000D01*
X148525000Y-92515000D02*
X148525000Y-85015000D01*
X119005865Y-90563220D02*
X119005865Y-89801316D01*
X119386818Y-90182268D02*
X118624913Y-90182268D01*
X119005865Y-87801315D02*
X119005865Y-87039411D01*
X114082968Y-116016820D02*
X113606778Y-116016820D01*
X113606778Y-116016820D02*
X113606778Y-115016820D01*
X116463921Y-115064439D02*
X116368683Y-115016820D01*
X116368683Y-115016820D02*
X116225826Y-115016820D01*
X116225826Y-115016820D02*
X116082969Y-115064439D01*
X116082969Y-115064439D02*
X115987731Y-115159677D01*
X115987731Y-115159677D02*
X115940112Y-115254915D01*
X115940112Y-115254915D02*
X115892493Y-115445391D01*
X115892493Y-115445391D02*
X115892493Y-115588248D01*
X115892493Y-115588248D02*
X115940112Y-115778724D01*
X115940112Y-115778724D02*
X115987731Y-115873962D01*
X115987731Y-115873962D02*
X116082969Y-115969201D01*
X116082969Y-115969201D02*
X116225826Y-116016820D01*
X116225826Y-116016820D02*
X116321064Y-116016820D01*
X116321064Y-116016820D02*
X116463921Y-115969201D01*
X116463921Y-115969201D02*
X116511540Y-115921581D01*
X116511540Y-115921581D02*
X116511540Y-115588248D01*
X116511540Y-115588248D02*
X116321064Y-115588248D01*
X119035350Y-116016820D02*
X118702017Y-115540629D01*
X118463922Y-116016820D02*
X118463922Y-115016820D01*
X118463922Y-115016820D02*
X118844874Y-115016820D01*
X118844874Y-115016820D02*
X118940112Y-115064439D01*
X118940112Y-115064439D02*
X118987731Y-115112058D01*
X118987731Y-115112058D02*
X119035350Y-115207296D01*
X119035350Y-115207296D02*
X119035350Y-115350153D01*
X119035350Y-115350153D02*
X118987731Y-115445391D01*
X118987731Y-115445391D02*
X118940112Y-115493010D01*
X118940112Y-115493010D02*
X118844874Y-115540629D01*
X118844874Y-115540629D02*
X118463922Y-115540629D01*
X179309819Y-113078333D02*
X180024104Y-113078333D01*
X180024104Y-113078333D02*
X180166961Y-113125952D01*
X180166961Y-113125952D02*
X180262200Y-113221190D01*
X180262200Y-113221190D02*
X180309819Y-113364047D01*
X180309819Y-113364047D02*
X180309819Y-113459285D01*
X180309819Y-112078333D02*
X180309819Y-112649761D01*
X180309819Y-112364047D02*
X179309819Y-112364047D01*
X179309819Y-112364047D02*
X179452676Y-112459285D01*
X179452676Y-112459285D02*
X179547914Y-112554523D01*
X179547914Y-112554523D02*
X179595533Y-112649761D01*
X150478558Y-93984446D02*
X150478558Y-95312817D01*
X150478558Y-95312817D02*
X150556697Y-95469096D01*
X150556697Y-95469096D02*
X150634837Y-95547236D01*
X150634837Y-95547236D02*
X150791116Y-95625375D01*
X150791116Y-95625375D02*
X151103674Y-95625375D01*
X151103674Y-95625375D02*
X151259953Y-95547236D01*
X151259953Y-95547236D02*
X151338092Y-95469096D01*
X151338092Y-95469096D02*
X151416232Y-95312817D01*
X151416232Y-95312817D02*
X151416232Y-93984446D01*
X152119486Y-94140725D02*
X152197626Y-94062585D01*
X152197626Y-94062585D02*
X152353905Y-93984446D01*
X152353905Y-93984446D02*
X152744602Y-93984446D01*
X152744602Y-93984446D02*
X152900881Y-94062585D01*
X152900881Y-94062585D02*
X152979021Y-94140725D01*
X152979021Y-94140725D02*
X153057160Y-94297004D01*
X153057160Y-94297004D02*
X153057160Y-94453283D01*
X153057160Y-94453283D02*
X152979021Y-94687701D01*
X152979021Y-94687701D02*
X152041347Y-95625375D01*
X152041347Y-95625375D02*
X153057160Y-95625375D01*
X185152380Y-81349819D02*
X185152380Y-82064104D01*
X185152380Y-82064104D02*
X185104761Y-82206961D01*
X185104761Y-82206961D02*
X185009523Y-82302200D01*
X185009523Y-82302200D02*
X184866666Y-82349819D01*
X184866666Y-82349819D02*
X184771428Y-82349819D01*
X186104761Y-81349819D02*
X185628571Y-81349819D01*
X185628571Y-81349819D02*
X185580952Y-81826009D01*
X185580952Y-81826009D02*
X185628571Y-81778390D01*
X185628571Y-81778390D02*
X185723809Y-81730771D01*
X185723809Y-81730771D02*
X185961904Y-81730771D01*
X185961904Y-81730771D02*
X186057142Y-81778390D01*
X186057142Y-81778390D02*
X186104761Y-81826009D01*
X186104761Y-81826009D02*
X186152380Y-81921247D01*
X186152380Y-81921247D02*
X186152380Y-82159342D01*
X186152380Y-82159342D02*
X186104761Y-82254580D01*
X186104761Y-82254580D02*
X186057142Y-82302200D01*
X186057142Y-82302200D02*
X185961904Y-82349819D01*
X185961904Y-82349819D02*
X185723809Y-82349819D01*
X185723809Y-82349819D02*
X185628571Y-82302200D01*
X185628571Y-82302200D02*
X185580952Y-82254580D01*
X186438095Y-81349819D02*
X186771428Y-82349819D01*
X186771428Y-82349819D02*
X187104761Y-81349819D01*
X187200000Y-82445057D02*
X187961904Y-82445057D01*
X188390476Y-81349819D02*
X188580952Y-81349819D01*
X188580952Y-81349819D02*
X188676190Y-81397438D01*
X188676190Y-81397438D02*
X188771428Y-81492676D01*
X188771428Y-81492676D02*
X188819047Y-81683152D01*
X188819047Y-81683152D02*
X188819047Y-82016485D01*
X188819047Y-82016485D02*
X188771428Y-82206961D01*
X188771428Y-82206961D02*
X188676190Y-82302200D01*
X188676190Y-82302200D02*
X188580952Y-82349819D01*
X188580952Y-82349819D02*
X188390476Y-82349819D01*
X188390476Y-82349819D02*
X188295238Y-82302200D01*
X188295238Y-82302200D02*
X188200000Y-82206961D01*
X188200000Y-82206961D02*
X188152381Y-82016485D01*
X188152381Y-82016485D02*
X188152381Y-81683152D01*
X188152381Y-81683152D02*
X188200000Y-81492676D01*
X188200000Y-81492676D02*
X188295238Y-81397438D01*
X188295238Y-81397438D02*
X188390476Y-81349819D01*
X189247619Y-81349819D02*
X189247619Y-82159342D01*
X189247619Y-82159342D02*
X189295238Y-82254580D01*
X189295238Y-82254580D02*
X189342857Y-82302200D01*
X189342857Y-82302200D02*
X189438095Y-82349819D01*
X189438095Y-82349819D02*
X189628571Y-82349819D01*
X189628571Y-82349819D02*
X189723809Y-82302200D01*
X189723809Y-82302200D02*
X189771428Y-82254580D01*
X189771428Y-82254580D02*
X189819047Y-82159342D01*
X189819047Y-82159342D02*
X189819047Y-81349819D01*
X190152381Y-81349819D02*
X190723809Y-81349819D01*
X190438095Y-82349819D02*
X190438095Y-81349819D01*
X191580952Y-82349819D02*
X191009524Y-82349819D01*
X191295238Y-82349819D02*
X191295238Y-81349819D01*
X191295238Y-81349819D02*
X191200000Y-81492676D01*
X191200000Y-81492676D02*
X191104762Y-81587914D01*
X191104762Y-81587914D02*
X191009524Y-81635533D01*
X111724818Y-111183334D02*
X112439103Y-111183334D01*
X112439103Y-111183334D02*
X112581960Y-111230953D01*
X112581960Y-111230953D02*
X112677199Y-111326191D01*
X112677199Y-111326191D02*
X112724818Y-111469048D01*
X112724818Y-111469048D02*
X112724818Y-111564286D01*
X111724818Y-110802381D02*
X111724818Y-110183334D01*
X111724818Y-110183334D02*
X112105770Y-110516667D01*
X112105770Y-110516667D02*
X112105770Y-110373810D01*
X112105770Y-110373810D02*
X112153389Y-110278572D01*
X112153389Y-110278572D02*
X112201008Y-110230953D01*
X112201008Y-110230953D02*
X112296246Y-110183334D01*
X112296246Y-110183334D02*
X112534341Y-110183334D01*
X112534341Y-110183334D02*
X112629579Y-110230953D01*
X112629579Y-110230953D02*
X112677199Y-110278572D01*
X112677199Y-110278572D02*
X112724818Y-110373810D01*
X112724818Y-110373810D02*
X112724818Y-110659524D01*
X112724818Y-110659524D02*
X112677199Y-110754762D01*
X112677199Y-110754762D02*
X112629579Y-110802381D01*
X112629579Y-109754762D02*
X112677199Y-109707143D01*
X112677199Y-109707143D02*
X112724818Y-109754762D01*
X112724818Y-109754762D02*
X112677199Y-109802381D01*
X112677199Y-109802381D02*
X112629579Y-109754762D01*
X112629579Y-109754762D02*
X112724818Y-109754762D01*
X111724818Y-108802382D02*
X111724818Y-109278572D01*
X111724818Y-109278572D02*
X112201008Y-109326191D01*
X112201008Y-109326191D02*
X112153389Y-109278572D01*
X112153389Y-109278572D02*
X112105770Y-109183334D01*
X112105770Y-109183334D02*
X112105770Y-108945239D01*
X112105770Y-108945239D02*
X112153389Y-108850001D01*
X112153389Y-108850001D02*
X112201008Y-108802382D01*
X112201008Y-108802382D02*
X112296246Y-108754763D01*
X112296246Y-108754763D02*
X112534341Y-108754763D01*
X112534341Y-108754763D02*
X112629579Y-108802382D01*
X112629579Y-108802382D02*
X112677199Y-108850001D01*
X112677199Y-108850001D02*
X112724818Y-108945239D01*
X112724818Y-108945239D02*
X112724818Y-109183334D01*
X112724818Y-109183334D02*
X112677199Y-109278572D01*
X112677199Y-109278572D02*
X112629579Y-109326191D01*
X112439103Y-108373810D02*
X112439103Y-107897620D01*
X112724818Y-108469048D02*
X111724818Y-108135715D01*
X111724818Y-108135715D02*
X112724818Y-107802382D01*
X112058151Y-107040477D02*
X112724818Y-107040477D01*
X112058151Y-107469048D02*
X112581960Y-107469048D01*
X112581960Y-107469048D02*
X112677199Y-107421429D01*
X112677199Y-107421429D02*
X112724818Y-107326191D01*
X112724818Y-107326191D02*
X112724818Y-107183334D01*
X112724818Y-107183334D02*
X112677199Y-107088096D01*
X112677199Y-107088096D02*
X112629579Y-107040477D01*
X112724818Y-106135715D02*
X111724818Y-106135715D01*
X112677199Y-106135715D02*
X112724818Y-106230953D01*
X112724818Y-106230953D02*
X112724818Y-106421429D01*
X112724818Y-106421429D02*
X112677199Y-106516667D01*
X112677199Y-106516667D02*
X112629579Y-106564286D01*
X112629579Y-106564286D02*
X112534341Y-106611905D01*
X112534341Y-106611905D02*
X112248627Y-106611905D01*
X112248627Y-106611905D02*
X112153389Y-106564286D01*
X112153389Y-106564286D02*
X112105770Y-106516667D01*
X112105770Y-106516667D02*
X112058151Y-106421429D01*
X112058151Y-106421429D02*
X112058151Y-106230953D01*
X112058151Y-106230953D02*
X112105770Y-106135715D01*
X112724818Y-105659524D02*
X112058151Y-105659524D01*
X111724818Y-105659524D02*
X111772437Y-105707143D01*
X111772437Y-105707143D02*
X111820056Y-105659524D01*
X111820056Y-105659524D02*
X111772437Y-105611905D01*
X111772437Y-105611905D02*
X111724818Y-105659524D01*
X111724818Y-105659524D02*
X111820056Y-105659524D01*
X112724818Y-105040477D02*
X112677199Y-105135715D01*
X112677199Y-105135715D02*
X112629579Y-105183334D01*
X112629579Y-105183334D02*
X112534341Y-105230953D01*
X112534341Y-105230953D02*
X112248627Y-105230953D01*
X112248627Y-105230953D02*
X112153389Y-105183334D01*
X112153389Y-105183334D02*
X112105770Y-105135715D01*
X112105770Y-105135715D02*
X112058151Y-105040477D01*
X112058151Y-105040477D02*
X112058151Y-104897620D01*
X112058151Y-104897620D02*
X112105770Y-104802382D01*
X112105770Y-104802382D02*
X112153389Y-104754763D01*
X112153389Y-104754763D02*
X112248627Y-104707144D01*
X112248627Y-104707144D02*
X112534341Y-104707144D01*
X112534341Y-104707144D02*
X112629579Y-104754763D01*
X112629579Y-104754763D02*
X112677199Y-104802382D01*
X112677199Y-104802382D02*
X112724818Y-104897620D01*
X112724818Y-104897620D02*
X112724818Y-105040477D01*
X112201008Y-103945239D02*
X112248627Y-103802382D01*
X112248627Y-103802382D02*
X112296246Y-103754763D01*
X112296246Y-103754763D02*
X112391484Y-103707144D01*
X112391484Y-103707144D02*
X112534341Y-103707144D01*
X112534341Y-103707144D02*
X112629579Y-103754763D01*
X112629579Y-103754763D02*
X112677199Y-103802382D01*
X112677199Y-103802382D02*
X112724818Y-103897620D01*
X112724818Y-103897620D02*
X112724818Y-104278572D01*
X112724818Y-104278572D02*
X111724818Y-104278572D01*
X111724818Y-104278572D02*
X111724818Y-103945239D01*
X111724818Y-103945239D02*
X111772437Y-103850001D01*
X111772437Y-103850001D02*
X111820056Y-103802382D01*
X111820056Y-103802382D02*
X111915294Y-103754763D01*
X111915294Y-103754763D02*
X112010532Y-103754763D01*
X112010532Y-103754763D02*
X112105770Y-103802382D01*
X112105770Y-103802382D02*
X112153389Y-103850001D01*
X112153389Y-103850001D02*
X112201008Y-103945239D01*
X112201008Y-103945239D02*
X112201008Y-104278572D01*
X112724818Y-103278572D02*
X112058151Y-103278572D01*
X112248627Y-103278572D02*
X112153389Y-103230953D01*
X112153389Y-103230953D02*
X112105770Y-103183334D01*
X112105770Y-103183334D02*
X112058151Y-103088096D01*
X112058151Y-103088096D02*
X112058151Y-102992858D01*
X112677199Y-102278572D02*
X112724818Y-102373810D01*
X112724818Y-102373810D02*
X112724818Y-102564286D01*
X112724818Y-102564286D02*
X112677199Y-102659524D01*
X112677199Y-102659524D02*
X112581960Y-102707143D01*
X112581960Y-102707143D02*
X112201008Y-102707143D01*
X112201008Y-102707143D02*
X112105770Y-102659524D01*
X112105770Y-102659524D02*
X112058151Y-102564286D01*
X112058151Y-102564286D02*
X112058151Y-102373810D01*
X112058151Y-102373810D02*
X112105770Y-102278572D01*
X112105770Y-102278572D02*
X112201008Y-102230953D01*
X112201008Y-102230953D02*
X112296246Y-102230953D01*
X112296246Y-102230953D02*
X112391484Y-102707143D01*
X112724818Y-101373810D02*
X112201008Y-101373810D01*
X112201008Y-101373810D02*
X112105770Y-101421429D01*
X112105770Y-101421429D02*
X112058151Y-101516667D01*
X112058151Y-101516667D02*
X112058151Y-101707143D01*
X112058151Y-101707143D02*
X112105770Y-101802381D01*
X112677199Y-101373810D02*
X112724818Y-101469048D01*
X112724818Y-101469048D02*
X112724818Y-101707143D01*
X112724818Y-101707143D02*
X112677199Y-101802381D01*
X112677199Y-101802381D02*
X112581960Y-101850000D01*
X112581960Y-101850000D02*
X112486722Y-101850000D01*
X112486722Y-101850000D02*
X112391484Y-101802381D01*
X112391484Y-101802381D02*
X112343865Y-101707143D01*
X112343865Y-101707143D02*
X112343865Y-101469048D01*
X112343865Y-101469048D02*
X112296246Y-101373810D01*
X112724818Y-100897619D02*
X111724818Y-100897619D01*
X112343865Y-100802381D02*
X112724818Y-100516667D01*
X112058151Y-100516667D02*
X112439103Y-100897619D01*
X112724818Y-99945238D02*
X112677199Y-100040476D01*
X112677199Y-100040476D02*
X112629579Y-100088095D01*
X112629579Y-100088095D02*
X112534341Y-100135714D01*
X112534341Y-100135714D02*
X112248627Y-100135714D01*
X112248627Y-100135714D02*
X112153389Y-100088095D01*
X112153389Y-100088095D02*
X112105770Y-100040476D01*
X112105770Y-100040476D02*
X112058151Y-99945238D01*
X112058151Y-99945238D02*
X112058151Y-99802381D01*
X112058151Y-99802381D02*
X112105770Y-99707143D01*
X112105770Y-99707143D02*
X112153389Y-99659524D01*
X112153389Y-99659524D02*
X112248627Y-99611905D01*
X112248627Y-99611905D02*
X112534341Y-99611905D01*
X112534341Y-99611905D02*
X112629579Y-99659524D01*
X112629579Y-99659524D02*
X112677199Y-99707143D01*
X112677199Y-99707143D02*
X112724818Y-99802381D01*
X112724818Y-99802381D02*
X112724818Y-99945238D01*
X112058151Y-98754762D02*
X112724818Y-98754762D01*
X112058151Y-99183333D02*
X112581960Y-99183333D01*
X112581960Y-99183333D02*
X112677199Y-99135714D01*
X112677199Y-99135714D02*
X112724818Y-99040476D01*
X112724818Y-99040476D02*
X112724818Y-98897619D01*
X112724818Y-98897619D02*
X112677199Y-98802381D01*
X112677199Y-98802381D02*
X112629579Y-98754762D01*
X112058151Y-98421428D02*
X112058151Y-98040476D01*
X111724818Y-98278571D02*
X112581960Y-98278571D01*
X112581960Y-98278571D02*
X112677199Y-98230952D01*
X112677199Y-98230952D02*
X112724818Y-98135714D01*
X112724818Y-98135714D02*
X112724818Y-98040476D01*
X111820056Y-97754761D02*
X111772437Y-97707142D01*
X111772437Y-97707142D02*
X111724818Y-97611904D01*
X111724818Y-97611904D02*
X111724818Y-97373809D01*
X111724818Y-97373809D02*
X111772437Y-97278571D01*
X111772437Y-97278571D02*
X111820056Y-97230952D01*
X111820056Y-97230952D02*
X111915294Y-97183333D01*
X111915294Y-97183333D02*
X112010532Y-97183333D01*
X112010532Y-97183333D02*
X112153389Y-97230952D01*
X112153389Y-97230952D02*
X112724818Y-97802380D01*
X112724818Y-97802380D02*
X112724818Y-97183333D01*
X126340429Y-95576819D02*
X126340429Y-96291104D01*
X126340429Y-96291104D02*
X126292810Y-96433961D01*
X126292810Y-96433961D02*
X126197572Y-96529200D01*
X126197572Y-96529200D02*
X126054715Y-96576819D01*
X126054715Y-96576819D02*
X125959477Y-96576819D01*
X126721382Y-95576819D02*
X127340429Y-95576819D01*
X127340429Y-95576819D02*
X127007096Y-95957771D01*
X127007096Y-95957771D02*
X127149953Y-95957771D01*
X127149953Y-95957771D02*
X127245191Y-96005390D01*
X127245191Y-96005390D02*
X127292810Y-96053009D01*
X127292810Y-96053009D02*
X127340429Y-96148247D01*
X127340429Y-96148247D02*
X127340429Y-96386342D01*
X127340429Y-96386342D02*
X127292810Y-96481580D01*
X127292810Y-96481580D02*
X127245191Y-96529200D01*
X127245191Y-96529200D02*
X127149953Y-96576819D01*
X127149953Y-96576819D02*
X126864239Y-96576819D01*
X126864239Y-96576819D02*
X126769001Y-96529200D01*
X126769001Y-96529200D02*
X126721382Y-96481580D01*
X127769001Y-96481580D02*
X127816620Y-96529200D01*
X127816620Y-96529200D02*
X127769001Y-96576819D01*
X127769001Y-96576819D02*
X127721382Y-96529200D01*
X127721382Y-96529200D02*
X127769001Y-96481580D01*
X127769001Y-96481580D02*
X127769001Y-96576819D01*
X128721381Y-95576819D02*
X128245191Y-95576819D01*
X128245191Y-95576819D02*
X128197572Y-96053009D01*
X128197572Y-96053009D02*
X128245191Y-96005390D01*
X128245191Y-96005390D02*
X128340429Y-95957771D01*
X128340429Y-95957771D02*
X128578524Y-95957771D01*
X128578524Y-95957771D02*
X128673762Y-96005390D01*
X128673762Y-96005390D02*
X128721381Y-96053009D01*
X128721381Y-96053009D02*
X128769000Y-96148247D01*
X128769000Y-96148247D02*
X128769000Y-96386342D01*
X128769000Y-96386342D02*
X128721381Y-96481580D01*
X128721381Y-96481580D02*
X128673762Y-96529200D01*
X128673762Y-96529200D02*
X128578524Y-96576819D01*
X128578524Y-96576819D02*
X128340429Y-96576819D01*
X128340429Y-96576819D02*
X128245191Y-96529200D01*
X128245191Y-96529200D02*
X128197572Y-96481580D01*
X129149953Y-96291104D02*
X129626143Y-96291104D01*
X129054715Y-96576819D02*
X129388048Y-95576819D01*
X129388048Y-95576819D02*
X129721381Y-96576819D01*
X130483286Y-95910152D02*
X130483286Y-96576819D01*
X130054715Y-95910152D02*
X130054715Y-96433961D01*
X130054715Y-96433961D02*
X130102334Y-96529200D01*
X130102334Y-96529200D02*
X130197572Y-96576819D01*
X130197572Y-96576819D02*
X130340429Y-96576819D01*
X130340429Y-96576819D02*
X130435667Y-96529200D01*
X130435667Y-96529200D02*
X130483286Y-96481580D01*
X131388048Y-96576819D02*
X131388048Y-95576819D01*
X131388048Y-96529200D02*
X131292810Y-96576819D01*
X131292810Y-96576819D02*
X131102334Y-96576819D01*
X131102334Y-96576819D02*
X131007096Y-96529200D01*
X131007096Y-96529200D02*
X130959477Y-96481580D01*
X130959477Y-96481580D02*
X130911858Y-96386342D01*
X130911858Y-96386342D02*
X130911858Y-96100628D01*
X130911858Y-96100628D02*
X130959477Y-96005390D01*
X130959477Y-96005390D02*
X131007096Y-95957771D01*
X131007096Y-95957771D02*
X131102334Y-95910152D01*
X131102334Y-95910152D02*
X131292810Y-95910152D01*
X131292810Y-95910152D02*
X131388048Y-95957771D01*
X131864239Y-96576819D02*
X131864239Y-95910152D01*
X131864239Y-95576819D02*
X131816620Y-95624438D01*
X131816620Y-95624438D02*
X131864239Y-95672057D01*
X131864239Y-95672057D02*
X131911858Y-95624438D01*
X131911858Y-95624438D02*
X131864239Y-95576819D01*
X131864239Y-95576819D02*
X131864239Y-95672057D01*
X132483286Y-96576819D02*
X132388048Y-96529200D01*
X132388048Y-96529200D02*
X132340429Y-96481580D01*
X132340429Y-96481580D02*
X132292810Y-96386342D01*
X132292810Y-96386342D02*
X132292810Y-96100628D01*
X132292810Y-96100628D02*
X132340429Y-96005390D01*
X132340429Y-96005390D02*
X132388048Y-95957771D01*
X132388048Y-95957771D02*
X132483286Y-95910152D01*
X132483286Y-95910152D02*
X132626143Y-95910152D01*
X132626143Y-95910152D02*
X132721381Y-95957771D01*
X132721381Y-95957771D02*
X132769000Y-96005390D01*
X132769000Y-96005390D02*
X132816619Y-96100628D01*
X132816619Y-96100628D02*
X132816619Y-96386342D01*
X132816619Y-96386342D02*
X132769000Y-96481580D01*
X132769000Y-96481580D02*
X132721381Y-96529200D01*
X132721381Y-96529200D02*
X132626143Y-96576819D01*
X132626143Y-96576819D02*
X132483286Y-96576819D01*
X133245191Y-96576819D02*
X133245191Y-95576819D01*
X133721381Y-95910152D02*
X133721381Y-96576819D01*
X133721381Y-96005390D02*
X133769000Y-95957771D01*
X133769000Y-95957771D02*
X133864238Y-95910152D01*
X133864238Y-95910152D02*
X134007095Y-95910152D01*
X134007095Y-95910152D02*
X134102333Y-95957771D01*
X134102333Y-95957771D02*
X134149952Y-96053009D01*
X134149952Y-96053009D02*
X134149952Y-96576819D01*
X134626143Y-95910152D02*
X134626143Y-96910152D01*
X134626143Y-95957771D02*
X134721381Y-95910152D01*
X134721381Y-95910152D02*
X134911857Y-95910152D01*
X134911857Y-95910152D02*
X135007095Y-95957771D01*
X135007095Y-95957771D02*
X135054714Y-96005390D01*
X135054714Y-96005390D02*
X135102333Y-96100628D01*
X135102333Y-96100628D02*
X135102333Y-96386342D01*
X135102333Y-96386342D02*
X135054714Y-96481580D01*
X135054714Y-96481580D02*
X135007095Y-96529200D01*
X135007095Y-96529200D02*
X134911857Y-96576819D01*
X134911857Y-96576819D02*
X134721381Y-96576819D01*
X134721381Y-96576819D02*
X134626143Y-96529200D01*
X135959476Y-95910152D02*
X135959476Y-96576819D01*
X135530905Y-95910152D02*
X135530905Y-96433961D01*
X135530905Y-96433961D02*
X135578524Y-96529200D01*
X135578524Y-96529200D02*
X135673762Y-96576819D01*
X135673762Y-96576819D02*
X135816619Y-96576819D01*
X135816619Y-96576819D02*
X135911857Y-96529200D01*
X135911857Y-96529200D02*
X135959476Y-96481580D01*
X136292810Y-95910152D02*
X136673762Y-95910152D01*
X136435667Y-95576819D02*
X136435667Y-96433961D01*
X136435667Y-96433961D02*
X136483286Y-96529200D01*
X136483286Y-96529200D02*
X136578524Y-96576819D01*
X136578524Y-96576819D02*
X136673762Y-96576819D01*
X137530905Y-96576819D02*
X136959477Y-96576819D01*
X137245191Y-96576819D02*
X137245191Y-95576819D01*
X137245191Y-95576819D02*
X137149953Y-95719676D01*
X137149953Y-95719676D02*
X137054715Y-95814914D01*
X137054715Y-95814914D02*
X136959477Y-95862533D01*
X126586044Y-106294818D02*
X126586044Y-107009103D01*
X126586044Y-107009103D02*
X126538425Y-107151960D01*
X126538425Y-107151960D02*
X126443187Y-107247199D01*
X126443187Y-107247199D02*
X126300330Y-107294818D01*
X126300330Y-107294818D02*
X126205092Y-107294818D01*
X127014616Y-107247199D02*
X127157473Y-107294818D01*
X127157473Y-107294818D02*
X127395568Y-107294818D01*
X127395568Y-107294818D02*
X127490806Y-107247199D01*
X127490806Y-107247199D02*
X127538425Y-107199579D01*
X127538425Y-107199579D02*
X127586044Y-107104341D01*
X127586044Y-107104341D02*
X127586044Y-107009103D01*
X127586044Y-107009103D02*
X127538425Y-106913865D01*
X127538425Y-106913865D02*
X127490806Y-106866246D01*
X127490806Y-106866246D02*
X127395568Y-106818627D01*
X127395568Y-106818627D02*
X127205092Y-106771008D01*
X127205092Y-106771008D02*
X127109854Y-106723389D01*
X127109854Y-106723389D02*
X127062235Y-106675770D01*
X127062235Y-106675770D02*
X127014616Y-106580532D01*
X127014616Y-106580532D02*
X127014616Y-106485294D01*
X127014616Y-106485294D02*
X127062235Y-106390056D01*
X127062235Y-106390056D02*
X127109854Y-106342437D01*
X127109854Y-106342437D02*
X127205092Y-106294818D01*
X127205092Y-106294818D02*
X127443187Y-106294818D01*
X127443187Y-106294818D02*
X127586044Y-106342437D01*
X128014616Y-107294818D02*
X128014616Y-106294818D01*
X128014616Y-106294818D02*
X128395568Y-106294818D01*
X128395568Y-106294818D02*
X128490806Y-106342437D01*
X128490806Y-106342437D02*
X128538425Y-106390056D01*
X128538425Y-106390056D02*
X128586044Y-106485294D01*
X128586044Y-106485294D02*
X128586044Y-106628151D01*
X128586044Y-106628151D02*
X128538425Y-106723389D01*
X128538425Y-106723389D02*
X128490806Y-106771008D01*
X128490806Y-106771008D02*
X128395568Y-106818627D01*
X128395568Y-106818627D02*
X128014616Y-106818627D01*
X129014616Y-107294818D02*
X129014616Y-106294818D01*
X129586044Y-107294818D02*
X129157473Y-106723389D01*
X129586044Y-106294818D02*
X129014616Y-106866246D01*
X129776521Y-107390056D02*
X130538425Y-107390056D01*
X130633664Y-106294818D02*
X130966997Y-107294818D01*
X130966997Y-107294818D02*
X131300330Y-106294818D01*
X131633664Y-107294818D02*
X131633664Y-106294818D01*
X132109854Y-107294818D02*
X132109854Y-106294818D01*
X132109854Y-106294818D02*
X132681282Y-107294818D01*
X132681282Y-107294818D02*
X132681282Y-106294818D01*
X133681282Y-107294818D02*
X133109854Y-107294818D01*
X133395568Y-107294818D02*
X133395568Y-106294818D01*
X133395568Y-106294818D02*
X133300330Y-106437675D01*
X133300330Y-106437675D02*
X133205092Y-106532913D01*
X133205092Y-106532913D02*
X133109854Y-106580532D01*
X113304819Y-96137998D02*
X114019104Y-96137998D01*
X114019104Y-96137998D02*
X114161961Y-96185617D01*
X114161961Y-96185617D02*
X114257200Y-96280855D01*
X114257200Y-96280855D02*
X114304819Y-96423712D01*
X114304819Y-96423712D02*
X114304819Y-96518950D01*
X114257200Y-95709426D02*
X114304819Y-95566569D01*
X114304819Y-95566569D02*
X114304819Y-95328474D01*
X114304819Y-95328474D02*
X114257200Y-95233236D01*
X114257200Y-95233236D02*
X114209580Y-95185617D01*
X114209580Y-95185617D02*
X114114342Y-95137998D01*
X114114342Y-95137998D02*
X114019104Y-95137998D01*
X114019104Y-95137998D02*
X113923866Y-95185617D01*
X113923866Y-95185617D02*
X113876247Y-95233236D01*
X113876247Y-95233236D02*
X113828628Y-95328474D01*
X113828628Y-95328474D02*
X113781009Y-95518950D01*
X113781009Y-95518950D02*
X113733390Y-95614188D01*
X113733390Y-95614188D02*
X113685771Y-95661807D01*
X113685771Y-95661807D02*
X113590533Y-95709426D01*
X113590533Y-95709426D02*
X113495295Y-95709426D01*
X113495295Y-95709426D02*
X113400057Y-95661807D01*
X113400057Y-95661807D02*
X113352438Y-95614188D01*
X113352438Y-95614188D02*
X113304819Y-95518950D01*
X113304819Y-95518950D02*
X113304819Y-95280855D01*
X113304819Y-95280855D02*
X113352438Y-95137998D01*
X114304819Y-94709426D02*
X113304819Y-94709426D01*
X113304819Y-94709426D02*
X113304819Y-94328474D01*
X113304819Y-94328474D02*
X113352438Y-94233236D01*
X113352438Y-94233236D02*
X113400057Y-94185617D01*
X113400057Y-94185617D02*
X113495295Y-94137998D01*
X113495295Y-94137998D02*
X113638152Y-94137998D01*
X113638152Y-94137998D02*
X113733390Y-94185617D01*
X113733390Y-94185617D02*
X113781009Y-94233236D01*
X113781009Y-94233236D02*
X113828628Y-94328474D01*
X113828628Y-94328474D02*
X113828628Y-94709426D01*
X114304819Y-93709426D02*
X113304819Y-93709426D01*
X114304819Y-93137998D02*
X113733390Y-93566569D01*
X113304819Y-93137998D02*
X113876247Y-93709426D01*
X114400057Y-92947522D02*
X114400057Y-92185617D01*
X113781009Y-91614188D02*
X113828628Y-91471331D01*
X113828628Y-91471331D02*
X113876247Y-91423712D01*
X113876247Y-91423712D02*
X113971485Y-91376093D01*
X113971485Y-91376093D02*
X114114342Y-91376093D01*
X114114342Y-91376093D02*
X114209580Y-91423712D01*
X114209580Y-91423712D02*
X114257200Y-91471331D01*
X114257200Y-91471331D02*
X114304819Y-91566569D01*
X114304819Y-91566569D02*
X114304819Y-91947521D01*
X114304819Y-91947521D02*
X113304819Y-91947521D01*
X113304819Y-91947521D02*
X113304819Y-91614188D01*
X113304819Y-91614188D02*
X113352438Y-91518950D01*
X113352438Y-91518950D02*
X113400057Y-91471331D01*
X113400057Y-91471331D02*
X113495295Y-91423712D01*
X113495295Y-91423712D02*
X113590533Y-91423712D01*
X113590533Y-91423712D02*
X113685771Y-91471331D01*
X113685771Y-91471331D02*
X113733390Y-91518950D01*
X113733390Y-91518950D02*
X113781009Y-91614188D01*
X113781009Y-91614188D02*
X113781009Y-91947521D01*
X114304819Y-90376093D02*
X113828628Y-90709426D01*
X114304819Y-90947521D02*
X113304819Y-90947521D01*
X113304819Y-90947521D02*
X113304819Y-90566569D01*
X113304819Y-90566569D02*
X113352438Y-90471331D01*
X113352438Y-90471331D02*
X113400057Y-90423712D01*
X113400057Y-90423712D02*
X113495295Y-90376093D01*
X113495295Y-90376093D02*
X113638152Y-90376093D01*
X113638152Y-90376093D02*
X113733390Y-90423712D01*
X113733390Y-90423712D02*
X113781009Y-90471331D01*
X113781009Y-90471331D02*
X113828628Y-90566569D01*
X113828628Y-90566569D02*
X113828628Y-90947521D01*
X113781009Y-89947521D02*
X113781009Y-89614188D01*
X114304819Y-89471331D02*
X114304819Y-89947521D01*
X114304819Y-89947521D02*
X113304819Y-89947521D01*
X113304819Y-89947521D02*
X113304819Y-89471331D01*
X114019104Y-89090378D02*
X114019104Y-88614188D01*
X114304819Y-89185616D02*
X113304819Y-88852283D01*
X113304819Y-88852283D02*
X114304819Y-88518950D01*
X114304819Y-88185616D02*
X113304819Y-88185616D01*
X114304819Y-87614188D02*
X113733390Y-88042759D01*
X113304819Y-87614188D02*
X113876247Y-88185616D01*
X113304819Y-86995140D02*
X113304819Y-86804664D01*
X113304819Y-86804664D02*
X113352438Y-86709426D01*
X113352438Y-86709426D02*
X113447676Y-86614188D01*
X113447676Y-86614188D02*
X113638152Y-86566569D01*
X113638152Y-86566569D02*
X113971485Y-86566569D01*
X113971485Y-86566569D02*
X114161961Y-86614188D01*
X114161961Y-86614188D02*
X114257200Y-86709426D01*
X114257200Y-86709426D02*
X114304819Y-86804664D01*
X114304819Y-86804664D02*
X114304819Y-86995140D01*
X114304819Y-86995140D02*
X114257200Y-87090378D01*
X114257200Y-87090378D02*
X114161961Y-87185616D01*
X114161961Y-87185616D02*
X113971485Y-87233235D01*
X113971485Y-87233235D02*
X113638152Y-87233235D01*
X113638152Y-87233235D02*
X113447676Y-87185616D01*
X113447676Y-87185616D02*
X113352438Y-87090378D01*
X113352438Y-87090378D02*
X113304819Y-86995140D01*
X113304819Y-86137997D02*
X114114342Y-86137997D01*
X114114342Y-86137997D02*
X114209580Y-86090378D01*
X114209580Y-86090378D02*
X114257200Y-86042759D01*
X114257200Y-86042759D02*
X114304819Y-85947521D01*
X114304819Y-85947521D02*
X114304819Y-85757045D01*
X114304819Y-85757045D02*
X114257200Y-85661807D01*
X114257200Y-85661807D02*
X114209580Y-85614188D01*
X114209580Y-85614188D02*
X114114342Y-85566569D01*
X114114342Y-85566569D02*
X113304819Y-85566569D01*
X113304819Y-85233235D02*
X113304819Y-84661807D01*
X114304819Y-84947521D02*
X113304819Y-84947521D01*
X113400057Y-84376092D02*
X113352438Y-84328473D01*
X113352438Y-84328473D02*
X113304819Y-84233235D01*
X113304819Y-84233235D02*
X113304819Y-83995140D01*
X113304819Y-83995140D02*
X113352438Y-83899902D01*
X113352438Y-83899902D02*
X113400057Y-83852283D01*
X113400057Y-83852283D02*
X113495295Y-83804664D01*
X113495295Y-83804664D02*
X113590533Y-83804664D01*
X113590533Y-83804664D02*
X113733390Y-83852283D01*
X113733390Y-83852283D02*
X114304819Y-84423711D01*
X114304819Y-84423711D02*
X114304819Y-83804664D01*
X173704819Y-103469762D02*
X174419104Y-103469762D01*
X174419104Y-103469762D02*
X174561961Y-103517381D01*
X174561961Y-103517381D02*
X174657200Y-103612619D01*
X174657200Y-103612619D02*
X174704819Y-103755476D01*
X174704819Y-103755476D02*
X174704819Y-103850714D01*
X173704819Y-102803095D02*
X173704819Y-102612619D01*
X173704819Y-102612619D02*
X173752438Y-102517381D01*
X173752438Y-102517381D02*
X173847676Y-102422143D01*
X173847676Y-102422143D02*
X174038152Y-102374524D01*
X174038152Y-102374524D02*
X174371485Y-102374524D01*
X174371485Y-102374524D02*
X174561961Y-102422143D01*
X174561961Y-102422143D02*
X174657200Y-102517381D01*
X174657200Y-102517381D02*
X174704819Y-102612619D01*
X174704819Y-102612619D02*
X174704819Y-102803095D01*
X174704819Y-102803095D02*
X174657200Y-102898333D01*
X174657200Y-102898333D02*
X174561961Y-102993571D01*
X174561961Y-102993571D02*
X174371485Y-103041190D01*
X174371485Y-103041190D02*
X174038152Y-103041190D01*
X174038152Y-103041190D02*
X173847676Y-102993571D01*
X173847676Y-102993571D02*
X173752438Y-102898333D01*
X173752438Y-102898333D02*
X173704819Y-102803095D01*
X174181009Y-101612619D02*
X174181009Y-101945952D01*
X174704819Y-101945952D02*
X173704819Y-101945952D01*
X173704819Y-101945952D02*
X173704819Y-101469762D01*
X174181009Y-100755476D02*
X174181009Y-101088809D01*
X174704819Y-101088809D02*
X173704819Y-101088809D01*
X173704819Y-101088809D02*
X173704819Y-100612619D01*
X174800057Y-100469762D02*
X174800057Y-99707857D01*
X174181009Y-99136428D02*
X174228628Y-98993571D01*
X174228628Y-98993571D02*
X174276247Y-98945952D01*
X174276247Y-98945952D02*
X174371485Y-98898333D01*
X174371485Y-98898333D02*
X174514342Y-98898333D01*
X174514342Y-98898333D02*
X174609580Y-98945952D01*
X174609580Y-98945952D02*
X174657200Y-98993571D01*
X174657200Y-98993571D02*
X174704819Y-99088809D01*
X174704819Y-99088809D02*
X174704819Y-99469761D01*
X174704819Y-99469761D02*
X173704819Y-99469761D01*
X173704819Y-99469761D02*
X173704819Y-99136428D01*
X173704819Y-99136428D02*
X173752438Y-99041190D01*
X173752438Y-99041190D02*
X173800057Y-98993571D01*
X173800057Y-98993571D02*
X173895295Y-98945952D01*
X173895295Y-98945952D02*
X173990533Y-98945952D01*
X173990533Y-98945952D02*
X174085771Y-98993571D01*
X174085771Y-98993571D02*
X174133390Y-99041190D01*
X174133390Y-99041190D02*
X174181009Y-99136428D01*
X174181009Y-99136428D02*
X174181009Y-99469761D01*
X174419104Y-98517380D02*
X174419104Y-98041190D01*
X174704819Y-98612618D02*
X173704819Y-98279285D01*
X173704819Y-98279285D02*
X174704819Y-97945952D01*
X173704819Y-97755475D02*
X173704819Y-97184047D01*
X174704819Y-97469761D02*
X173704819Y-97469761D01*
X173704819Y-96993570D02*
X173704819Y-96422142D01*
X174704819Y-96707856D02*
X173704819Y-96707856D01*
X174323866Y-96088808D02*
X174323866Y-95326904D01*
X174704819Y-94326904D02*
X174704819Y-94898332D01*
X174704819Y-94612618D02*
X173704819Y-94612618D01*
X173704819Y-94612618D02*
X173847676Y-94707856D01*
X173847676Y-94707856D02*
X173942914Y-94803094D01*
X173942914Y-94803094D02*
X173990533Y-94898332D01*
X192466666Y-97904819D02*
X192466666Y-98619104D01*
X192466666Y-98619104D02*
X192419047Y-98761961D01*
X192419047Y-98761961D02*
X192323809Y-98857200D01*
X192323809Y-98857200D02*
X192180952Y-98904819D01*
X192180952Y-98904819D02*
X192085714Y-98904819D01*
X192895238Y-98000057D02*
X192942857Y-97952438D01*
X192942857Y-97952438D02*
X193038095Y-97904819D01*
X193038095Y-97904819D02*
X193276190Y-97904819D01*
X193276190Y-97904819D02*
X193371428Y-97952438D01*
X193371428Y-97952438D02*
X193419047Y-98000057D01*
X193419047Y-98000057D02*
X193466666Y-98095295D01*
X193466666Y-98095295D02*
X193466666Y-98190533D01*
X193466666Y-98190533D02*
X193419047Y-98333390D01*
X193419047Y-98333390D02*
X192847619Y-98904819D01*
X192847619Y-98904819D02*
X193466666Y-98904819D01*
X137529819Y-106885000D02*
X138244104Y-106885000D01*
X138244104Y-106885000D02*
X138386961Y-106932619D01*
X138386961Y-106932619D02*
X138482200Y-107027857D01*
X138482200Y-107027857D02*
X138529819Y-107170714D01*
X138529819Y-107170714D02*
X138529819Y-107265952D01*
X138482200Y-106456428D02*
X138529819Y-106313571D01*
X138529819Y-106313571D02*
X138529819Y-106075476D01*
X138529819Y-106075476D02*
X138482200Y-105980238D01*
X138482200Y-105980238D02*
X138434580Y-105932619D01*
X138434580Y-105932619D02*
X138339342Y-105885000D01*
X138339342Y-105885000D02*
X138244104Y-105885000D01*
X138244104Y-105885000D02*
X138148866Y-105932619D01*
X138148866Y-105932619D02*
X138101247Y-105980238D01*
X138101247Y-105980238D02*
X138053628Y-106075476D01*
X138053628Y-106075476D02*
X138006009Y-106265952D01*
X138006009Y-106265952D02*
X137958390Y-106361190D01*
X137958390Y-106361190D02*
X137910771Y-106408809D01*
X137910771Y-106408809D02*
X137815533Y-106456428D01*
X137815533Y-106456428D02*
X137720295Y-106456428D01*
X137720295Y-106456428D02*
X137625057Y-106408809D01*
X137625057Y-106408809D02*
X137577438Y-106361190D01*
X137577438Y-106361190D02*
X137529819Y-106265952D01*
X137529819Y-106265952D02*
X137529819Y-106027857D01*
X137529819Y-106027857D02*
X137577438Y-105885000D01*
X138529819Y-105456428D02*
X137529819Y-105456428D01*
X137529819Y-105456428D02*
X137529819Y-105075476D01*
X137529819Y-105075476D02*
X137577438Y-104980238D01*
X137577438Y-104980238D02*
X137625057Y-104932619D01*
X137625057Y-104932619D02*
X137720295Y-104885000D01*
X137720295Y-104885000D02*
X137863152Y-104885000D01*
X137863152Y-104885000D02*
X137958390Y-104932619D01*
X137958390Y-104932619D02*
X138006009Y-104980238D01*
X138006009Y-104980238D02*
X138053628Y-105075476D01*
X138053628Y-105075476D02*
X138053628Y-105456428D01*
X138529819Y-104456428D02*
X137529819Y-104456428D01*
X138529819Y-103885000D02*
X137958390Y-104313571D01*
X137529819Y-103885000D02*
X138101247Y-104456428D01*
X138625057Y-103694524D02*
X138625057Y-102932619D01*
X137529819Y-102504047D02*
X137529819Y-102313571D01*
X137529819Y-102313571D02*
X137577438Y-102218333D01*
X137577438Y-102218333D02*
X137672676Y-102123095D01*
X137672676Y-102123095D02*
X137863152Y-102075476D01*
X137863152Y-102075476D02*
X138196485Y-102075476D01*
X138196485Y-102075476D02*
X138386961Y-102123095D01*
X138386961Y-102123095D02*
X138482200Y-102218333D01*
X138482200Y-102218333D02*
X138529819Y-102313571D01*
X138529819Y-102313571D02*
X138529819Y-102504047D01*
X138529819Y-102504047D02*
X138482200Y-102599285D01*
X138482200Y-102599285D02*
X138386961Y-102694523D01*
X138386961Y-102694523D02*
X138196485Y-102742142D01*
X138196485Y-102742142D02*
X137863152Y-102742142D01*
X137863152Y-102742142D02*
X137672676Y-102694523D01*
X137672676Y-102694523D02*
X137577438Y-102599285D01*
X137577438Y-102599285D02*
X137529819Y-102504047D01*
X137529819Y-101646904D02*
X138339342Y-101646904D01*
X138339342Y-101646904D02*
X138434580Y-101599285D01*
X138434580Y-101599285D02*
X138482200Y-101551666D01*
X138482200Y-101551666D02*
X138529819Y-101456428D01*
X138529819Y-101456428D02*
X138529819Y-101265952D01*
X138529819Y-101265952D02*
X138482200Y-101170714D01*
X138482200Y-101170714D02*
X138434580Y-101123095D01*
X138434580Y-101123095D02*
X138339342Y-101075476D01*
X138339342Y-101075476D02*
X137529819Y-101075476D01*
X137529819Y-100742142D02*
X137529819Y-100170714D01*
X138529819Y-100456428D02*
X137529819Y-100456428D01*
X138625057Y-100075476D02*
X138625057Y-99313571D01*
X138529819Y-98504047D02*
X138053628Y-98837380D01*
X138529819Y-99075475D02*
X137529819Y-99075475D01*
X137529819Y-99075475D02*
X137529819Y-98694523D01*
X137529819Y-98694523D02*
X137577438Y-98599285D01*
X137577438Y-98599285D02*
X137625057Y-98551666D01*
X137625057Y-98551666D02*
X137720295Y-98504047D01*
X137720295Y-98504047D02*
X137863152Y-98504047D01*
X137863152Y-98504047D02*
X137958390Y-98551666D01*
X137958390Y-98551666D02*
X138006009Y-98599285D01*
X138006009Y-98599285D02*
X138053628Y-98694523D01*
X138053628Y-98694523D02*
X138053628Y-99075475D01*
X138529819Y-97551666D02*
X138529819Y-98123094D01*
X138529819Y-97837380D02*
X137529819Y-97837380D01*
X137529819Y-97837380D02*
X137672676Y-97932618D01*
X137672676Y-97932618D02*
X137767914Y-98027856D01*
X137767914Y-98027856D02*
X137815533Y-98123094D01*
X184554819Y-103469762D02*
X185269104Y-103469762D01*
X185269104Y-103469762D02*
X185411961Y-103517381D01*
X185411961Y-103517381D02*
X185507200Y-103612619D01*
X185507200Y-103612619D02*
X185554819Y-103755476D01*
X185554819Y-103755476D02*
X185554819Y-103850714D01*
X184554819Y-102803095D02*
X184554819Y-102612619D01*
X184554819Y-102612619D02*
X184602438Y-102517381D01*
X184602438Y-102517381D02*
X184697676Y-102422143D01*
X184697676Y-102422143D02*
X184888152Y-102374524D01*
X184888152Y-102374524D02*
X185221485Y-102374524D01*
X185221485Y-102374524D02*
X185411961Y-102422143D01*
X185411961Y-102422143D02*
X185507200Y-102517381D01*
X185507200Y-102517381D02*
X185554819Y-102612619D01*
X185554819Y-102612619D02*
X185554819Y-102803095D01*
X185554819Y-102803095D02*
X185507200Y-102898333D01*
X185507200Y-102898333D02*
X185411961Y-102993571D01*
X185411961Y-102993571D02*
X185221485Y-103041190D01*
X185221485Y-103041190D02*
X184888152Y-103041190D01*
X184888152Y-103041190D02*
X184697676Y-102993571D01*
X184697676Y-102993571D02*
X184602438Y-102898333D01*
X184602438Y-102898333D02*
X184554819Y-102803095D01*
X185031009Y-101612619D02*
X185031009Y-101945952D01*
X185554819Y-101945952D02*
X184554819Y-101945952D01*
X184554819Y-101945952D02*
X184554819Y-101469762D01*
X185031009Y-100755476D02*
X185031009Y-101088809D01*
X185554819Y-101088809D02*
X184554819Y-101088809D01*
X184554819Y-101088809D02*
X184554819Y-100612619D01*
X185650057Y-100469762D02*
X185650057Y-99707857D01*
X185031009Y-99136428D02*
X185078628Y-98993571D01*
X185078628Y-98993571D02*
X185126247Y-98945952D01*
X185126247Y-98945952D02*
X185221485Y-98898333D01*
X185221485Y-98898333D02*
X185364342Y-98898333D01*
X185364342Y-98898333D02*
X185459580Y-98945952D01*
X185459580Y-98945952D02*
X185507200Y-98993571D01*
X185507200Y-98993571D02*
X185554819Y-99088809D01*
X185554819Y-99088809D02*
X185554819Y-99469761D01*
X185554819Y-99469761D02*
X184554819Y-99469761D01*
X184554819Y-99469761D02*
X184554819Y-99136428D01*
X184554819Y-99136428D02*
X184602438Y-99041190D01*
X184602438Y-99041190D02*
X184650057Y-98993571D01*
X184650057Y-98993571D02*
X184745295Y-98945952D01*
X184745295Y-98945952D02*
X184840533Y-98945952D01*
X184840533Y-98945952D02*
X184935771Y-98993571D01*
X184935771Y-98993571D02*
X184983390Y-99041190D01*
X184983390Y-99041190D02*
X185031009Y-99136428D01*
X185031009Y-99136428D02*
X185031009Y-99469761D01*
X185269104Y-98517380D02*
X185269104Y-98041190D01*
X185554819Y-98612618D02*
X184554819Y-98279285D01*
X184554819Y-98279285D02*
X185554819Y-97945952D01*
X184554819Y-97755475D02*
X184554819Y-97184047D01*
X185554819Y-97469761D02*
X184554819Y-97469761D01*
X184554819Y-96993570D02*
X184554819Y-96422142D01*
X185554819Y-96707856D02*
X184554819Y-96707856D01*
X185173866Y-96088808D02*
X185173866Y-95326904D01*
X185554819Y-95707856D02*
X184792914Y-95707856D01*
X185554819Y-94326904D02*
X185554819Y-94898332D01*
X185554819Y-94612618D02*
X184554819Y-94612618D01*
X184554819Y-94612618D02*
X184697676Y-94707856D01*
X184697676Y-94707856D02*
X184792914Y-94803094D01*
X184792914Y-94803094D02*
X184840533Y-94898332D01*
X161828095Y-108124819D02*
X161828095Y-108934342D01*
X161828095Y-108934342D02*
X161875714Y-109029580D01*
X161875714Y-109029580D02*
X161923333Y-109077200D01*
X161923333Y-109077200D02*
X162018571Y-109124819D01*
X162018571Y-109124819D02*
X162209047Y-109124819D01*
X162209047Y-109124819D02*
X162304285Y-109077200D01*
X162304285Y-109077200D02*
X162351904Y-109029580D01*
X162351904Y-109029580D02*
X162399523Y-108934342D01*
X162399523Y-108934342D02*
X162399523Y-108124819D01*
X163399523Y-109124819D02*
X162828095Y-109124819D01*
X163113809Y-109124819D02*
X163113809Y-108124819D01*
X163113809Y-108124819D02*
X163018571Y-108267676D01*
X163018571Y-108267676D02*
X162923333Y-108362914D01*
X162923333Y-108362914D02*
X162828095Y-108410533D01*
X151234819Y-88566666D02*
X151949104Y-88566666D01*
X151949104Y-88566666D02*
X152091961Y-88614285D01*
X152091961Y-88614285D02*
X152187200Y-88709523D01*
X152187200Y-88709523D02*
X152234819Y-88852380D01*
X152234819Y-88852380D02*
X152234819Y-88947618D01*
X152187200Y-88138094D02*
X152234819Y-87995237D01*
X152234819Y-87995237D02*
X152234819Y-87757142D01*
X152234819Y-87757142D02*
X152187200Y-87661904D01*
X152187200Y-87661904D02*
X152139580Y-87614285D01*
X152139580Y-87614285D02*
X152044342Y-87566666D01*
X152044342Y-87566666D02*
X151949104Y-87566666D01*
X151949104Y-87566666D02*
X151853866Y-87614285D01*
X151853866Y-87614285D02*
X151806247Y-87661904D01*
X151806247Y-87661904D02*
X151758628Y-87757142D01*
X151758628Y-87757142D02*
X151711009Y-87947618D01*
X151711009Y-87947618D02*
X151663390Y-88042856D01*
X151663390Y-88042856D02*
X151615771Y-88090475D01*
X151615771Y-88090475D02*
X151520533Y-88138094D01*
X151520533Y-88138094D02*
X151425295Y-88138094D01*
X151425295Y-88138094D02*
X151330057Y-88090475D01*
X151330057Y-88090475D02*
X151282438Y-88042856D01*
X151282438Y-88042856D02*
X151234819Y-87947618D01*
X151234819Y-87947618D02*
X151234819Y-87709523D01*
X151234819Y-87709523D02*
X151282438Y-87566666D01*
X151234819Y-87233332D02*
X152234819Y-86995237D01*
X152234819Y-86995237D02*
X151520533Y-86804761D01*
X151520533Y-86804761D02*
X152234819Y-86614285D01*
X152234819Y-86614285D02*
X151234819Y-86376190D01*
X151234819Y-86138094D02*
X151234819Y-85566666D01*
X152234819Y-85852380D02*
X151234819Y-85852380D01*
X151853866Y-85233332D02*
X151853866Y-84471428D01*
X152234819Y-83995237D02*
X151234819Y-83995237D01*
X151234819Y-83995237D02*
X151234819Y-83757142D01*
X151234819Y-83757142D02*
X151282438Y-83614285D01*
X151282438Y-83614285D02*
X151377676Y-83519047D01*
X151377676Y-83519047D02*
X151472914Y-83471428D01*
X151472914Y-83471428D02*
X151663390Y-83423809D01*
X151663390Y-83423809D02*
X151806247Y-83423809D01*
X151806247Y-83423809D02*
X151996723Y-83471428D01*
X151996723Y-83471428D02*
X152091961Y-83519047D01*
X152091961Y-83519047D02*
X152187200Y-83614285D01*
X152187200Y-83614285D02*
X152234819Y-83757142D01*
X152234819Y-83757142D02*
X152234819Y-83995237D01*
X152234819Y-82423809D02*
X151758628Y-82757142D01*
X152234819Y-82995237D02*
X151234819Y-82995237D01*
X151234819Y-82995237D02*
X151234819Y-82614285D01*
X151234819Y-82614285D02*
X151282438Y-82519047D01*
X151282438Y-82519047D02*
X151330057Y-82471428D01*
X151330057Y-82471428D02*
X151425295Y-82423809D01*
X151425295Y-82423809D02*
X151568152Y-82423809D01*
X151568152Y-82423809D02*
X151663390Y-82471428D01*
X151663390Y-82471428D02*
X151711009Y-82519047D01*
X151711009Y-82519047D02*
X151758628Y-82614285D01*
X151758628Y-82614285D02*
X151758628Y-82995237D01*
X151234819Y-81804761D02*
X151234819Y-81614285D01*
X151234819Y-81614285D02*
X151282438Y-81519047D01*
X151282438Y-81519047D02*
X151377676Y-81423809D01*
X151377676Y-81423809D02*
X151568152Y-81376190D01*
X151568152Y-81376190D02*
X151901485Y-81376190D01*
X151901485Y-81376190D02*
X152091961Y-81423809D01*
X152091961Y-81423809D02*
X152187200Y-81519047D01*
X152187200Y-81519047D02*
X152234819Y-81614285D01*
X152234819Y-81614285D02*
X152234819Y-81804761D01*
X152234819Y-81804761D02*
X152187200Y-81899999D01*
X152187200Y-81899999D02*
X152091961Y-81995237D01*
X152091961Y-81995237D02*
X151901485Y-82042856D01*
X151901485Y-82042856D02*
X151568152Y-82042856D01*
X151568152Y-82042856D02*
X151377676Y-81995237D01*
X151377676Y-81995237D02*
X151282438Y-81899999D01*
X151282438Y-81899999D02*
X151234819Y-81804761D01*
X152234819Y-80947618D02*
X151234819Y-80947618D01*
X151234819Y-80947618D02*
X151234819Y-80566666D01*
X151234819Y-80566666D02*
X151282438Y-80471428D01*
X151282438Y-80471428D02*
X151330057Y-80423809D01*
X151330057Y-80423809D02*
X151425295Y-80376190D01*
X151425295Y-80376190D02*
X151568152Y-80376190D01*
X151568152Y-80376190D02*
X151663390Y-80423809D01*
X151663390Y-80423809D02*
X151711009Y-80471428D01*
X151711009Y-80471428D02*
X151758628Y-80566666D01*
X151758628Y-80566666D02*
X151758628Y-80947618D01*
X152234819Y-79947618D02*
X151234819Y-79947618D01*
X152234819Y-79471428D02*
X151234819Y-79471428D01*
X151234819Y-79471428D02*
X152234819Y-78900000D01*
X152234819Y-78900000D02*
X151234819Y-78900000D01*
X152234819Y-77900000D02*
X152234819Y-78471428D01*
X152234819Y-78185714D02*
X151234819Y-78185714D01*
X151234819Y-78185714D02*
X151377676Y-78280952D01*
X151377676Y-78280952D02*
X151472914Y-78376190D01*
X151472914Y-78376190D02*
X151520533Y-78471428D01*
X115716666Y-97654819D02*
X115716666Y-98369104D01*
X115716666Y-98369104D02*
X115669047Y-98511961D01*
X115669047Y-98511961D02*
X115573809Y-98607200D01*
X115573809Y-98607200D02*
X115430952Y-98654819D01*
X115430952Y-98654819D02*
X115335714Y-98654819D01*
X116097619Y-97654819D02*
X116716666Y-97654819D01*
X116716666Y-97654819D02*
X116383333Y-98035771D01*
X116383333Y-98035771D02*
X116526190Y-98035771D01*
X116526190Y-98035771D02*
X116621428Y-98083390D01*
X116621428Y-98083390D02*
X116669047Y-98131009D01*
X116669047Y-98131009D02*
X116716666Y-98226247D01*
X116716666Y-98226247D02*
X116716666Y-98464342D01*
X116716666Y-98464342D02*
X116669047Y-98559580D01*
X116669047Y-98559580D02*
X116621428Y-98607200D01*
X116621428Y-98607200D02*
X116526190Y-98654819D01*
X116526190Y-98654819D02*
X116240476Y-98654819D01*
X116240476Y-98654819D02*
X116145238Y-98607200D01*
X116145238Y-98607200D02*
X116097619Y-98559580D01*
D11*
%TO.C,J1*%
X178855000Y-110145000D02*
X178855000Y-111475000D01*
X177525000Y-110145000D02*
X178855000Y-110145000D01*
X176255000Y-110145000D02*
X127935000Y-110145000D01*
X176255000Y-110145000D02*
X176255000Y-112745000D01*
X127935000Y-110145000D02*
X127935000Y-115345000D01*
X178855000Y-112745000D02*
X178855000Y-115345000D01*
X176255000Y-112745000D02*
X178855000Y-112745000D01*
X178855000Y-115345000D02*
X127935000Y-115345000D01*
D12*
%TO.C,U2*%
X146165200Y-97647200D02*
X146165200Y-97875800D01*
X146165200Y-107934200D02*
X146165200Y-108162800D01*
X146165200Y-108162800D02*
X153785200Y-108162800D01*
X149670400Y-97647200D02*
X146165200Y-97647200D01*
X150280000Y-97647200D02*
X149670400Y-97647200D01*
X153785200Y-97647200D02*
X150280000Y-97647200D01*
X153785200Y-97875800D02*
X153785200Y-97647200D01*
X153785200Y-108162800D02*
X153785200Y-107934200D01*
X149670400Y-97647200D02*
G75*
G03*
X150280000Y-97647200I304800J0D01*
G01*
D11*
%TO.C,J5V_OUT1*%
X186870000Y-82895000D02*
X188200000Y-82895000D01*
X186870000Y-84225000D02*
X186870000Y-82895000D01*
X186870000Y-85495000D02*
X186870000Y-90635000D01*
X186870000Y-85495000D02*
X189530000Y-85495000D01*
X186870000Y-90635000D02*
X189530000Y-90635000D01*
X189530000Y-85495000D02*
X189530000Y-90635000D01*
%TO.C,J3.5AudioBreakout2*%
X117330000Y-111770000D02*
X112190000Y-111770000D01*
X117330000Y-111770000D02*
X117330000Y-114430000D01*
X112190000Y-111770000D02*
X112190000Y-114430000D01*
X119930000Y-113100000D02*
X119930000Y-114430000D01*
X119930000Y-114430000D02*
X118600000Y-114430000D01*
X117330000Y-114430000D02*
X112190000Y-114430000D01*
%TO.C,J3.5AudioInput1*%
X125455000Y-99855000D02*
X125455000Y-94715000D01*
X125455000Y-99855000D02*
X122795000Y-99855000D01*
X125455000Y-94715000D02*
X122795000Y-94715000D01*
X124125000Y-102455000D02*
X122795000Y-102455000D01*
X122795000Y-102455000D02*
X122795000Y-101125000D01*
X122795000Y-99855000D02*
X122795000Y-94715000D01*
%TO.C,JSPK_VIN1*%
X125454997Y-105041999D02*
X125454997Y-102441999D01*
X125454997Y-105041999D02*
X122794997Y-105041999D01*
X125454997Y-102441999D02*
X122794997Y-102441999D01*
X124124997Y-107641999D02*
X122794997Y-107641999D01*
X122794997Y-107641999D02*
X122794997Y-106311999D01*
X122794997Y-105041999D02*
X122794997Y-102441999D01*
%TO.C,JSPK_BREAKOUT2*%
X118180000Y-88867998D02*
X118180000Y-86267998D01*
X118180000Y-88867998D02*
X115520000Y-88867998D01*
X118180000Y-86267998D02*
X115520000Y-86267998D01*
X116850000Y-91467998D02*
X115520000Y-91467998D01*
X115520000Y-91467998D02*
X115520000Y-90137998D01*
X115520000Y-88867998D02*
X115520000Y-86267998D01*
%TO.C,JOFF_BATT-1*%
X175270000Y-101785000D02*
X176600000Y-101785000D01*
X175270000Y-103115000D02*
X175270000Y-101785000D01*
X175270000Y-104385000D02*
X175270000Y-104445000D01*
X175270000Y-104385000D02*
X177930000Y-104385000D01*
X175270000Y-104445000D02*
X177930000Y-104445000D01*
X177930000Y-104385000D02*
X177930000Y-104445000D01*
%TO.C,JSPK_OUT_R1*%
X139595000Y-102955000D02*
X139595000Y-105555000D01*
X139595000Y-102955000D02*
X142255000Y-102955000D01*
X139595000Y-105555000D02*
X142255000Y-105555000D01*
X140925000Y-100355000D02*
X142255000Y-100355000D01*
X142255000Y-100355000D02*
X142255000Y-101685000D01*
X142255000Y-102955000D02*
X142255000Y-105555000D01*
%TO.C,JOFF_BATT+1*%
X181320000Y-101785000D02*
X182650000Y-101785000D01*
X181320000Y-103115000D02*
X181320000Y-101785000D01*
X181320000Y-104385000D02*
X181320000Y-104445000D01*
X181320000Y-104385000D02*
X183980000Y-104385000D01*
X181320000Y-104445000D02*
X183980000Y-104445000D01*
X183980000Y-104385000D02*
X183980000Y-104445000D01*
%TO.C,U1*%
X167730000Y-107730000D02*
X167730000Y-87170000D01*
X167730000Y-87170000D02*
X157450000Y-87170000D01*
X165240000Y-107670000D02*
X165240000Y-87230000D01*
X165240000Y-87230000D02*
X159940000Y-87230000D01*
X163590000Y-107670000D02*
X165240000Y-107670000D01*
X159940000Y-107670000D02*
X161590000Y-107670000D01*
X159940000Y-87230000D02*
X159940000Y-107670000D01*
X157450000Y-107730000D02*
X167730000Y-107730000D01*
X157450000Y-87170000D02*
X157450000Y-107730000D01*
X163590000Y-107670000D02*
G75*
G03*
X161590000Y-107670000I-1000000J0D01*
G01*
%TO.C,JSWT-DROPIN1*%
X152780000Y-84730000D02*
X152780000Y-83400000D01*
X154110000Y-84730000D02*
X152780000Y-84730000D01*
X155380000Y-84730000D02*
X165600000Y-84730000D01*
X155380000Y-84730000D02*
X155380000Y-82070000D01*
X165600000Y-84730000D02*
X165600000Y-82070000D01*
X155380000Y-82070000D02*
X165600000Y-82070000D01*
%TD*%
M02*
